<?xml version="1.0" encoding="UTF-8"?>
<svg version="1.1" viewBox="0 0 413.5 197.3" xmlns="http://www.w3.org/2000/svg">
    <path d="m373.1 23.03c-0.4012 0-0.7198 0.3239-0.7198 0.7185 0 0.3959 0.3239 0.7185 0.7198 0.7185h35.99c0.3946 0 0.7185-0.3226 0.7185-0.7185 0-0.3999-0.3239-0.7238-0.7185-0.7185z" stroke-width="1.333"/>
    <path d="m226.9 69.14c-0.3426 0-0.6345 0.2399-0.7025 0.5785-0.0773 0.3852 0.172 0.7651 0.5625 0.8438 2.723 0.5465 4.717 1.494 5.998 2.582 1.286 1.093 1.86 2.297 1.86 3.463 0 1.161-0.5732 2.363-1.86 3.456-1.281 1.094-3.275 2.042-5.998 2.583-0.3906 0.07731-0.6398 0.4586-0.5625 0.8491 0.0786 0.3906 0.4532 0.6398 0.8438 0.5612 2.901-0.5772 5.124-1.598 6.654-2.899 1.526-1.297 2.359-2.906 2.359-4.551 0-1.652-0.8331-3.261-2.359-4.556-1.53-1.297-3.754-2.318-6.654-2.901-0.0467-0.01066-0.0933-0.01066-0.1413-0.01066z" stroke-width="1.333"/>
    <path d="m223.3 68.68c-1.098-0.03599-2.03 0.04266-2.801 0.1933-0.7705 0.156-1.385 0.3852-1.854 0.7132-0.4679 0.3279-0.8331 0.8171-0.8331 1.401 0 0.5785 0.3652 1.068 0.8331 1.396 0.4692 0.3279 1.084 0.5625 1.854 0.7132 1.541 0.3066 3.728 0.2973 6.608-0.2813 0.3906-0.07865 0.6452-0.4532 0.5679-0.8438-0.0787-0.3906-0.4586-0.6452-0.8491-0.5679-2.745 0.5519-4.775 0.5372-6.045 0.2813-0.6358-0.124-1.078-0.3173-1.313-0.4785-0.2279-0.1666-0.2186-0.2399-0.2186-0.2186 0 0.016-9e-3 -0.05732 0.2186-0.2186 0.2346-0.1666 0.6772-0.3546 1.313-0.4839 1.27-0.2559 3.301-0.2666 6.045 0.2813 0.3906 0.07731 0.7705-0.172 0.8491-0.5625 0.0773-0.3906-0.1773-0.7705-0.5679-0.8491-1.442-0.2866-2.707-0.4372-3.807-0.4745z" stroke-width="1.333"/>
    <path d="m226.9 35.4c-0.3426 0-0.6398 0.2439-0.7025 0.5825-0.0773 0.3852 0.172 0.7651 0.5625 0.8438 2.723 0.5412 4.717 1.494 5.998 2.582 1.286 1.094 1.86 2.297 1.86 3.463 0 1.161-0.5732 2.365-1.86 3.458-1.281 1.088-3.275 2.041-5.998 2.582-0.3906 0.07865-0.6398 0.4586-0.5625 0.8491 0.0733 0.3852 0.4532 0.6412 0.8438 0.5625 2.901-0.5785 5.124-1.598 6.654-2.901 1.526-1.296 2.359-2.905 2.359-4.551 0-1.65-0.8331-3.259-2.359-4.556-1.53-1.301-3.754-2.317-6.654-2.901-0.0467-0.0093-0.0933-0.01466-0.1413-0.01466z" stroke-width="1.333"/>
    <path d="m226.9 46.64c-0.3426 0-0.6398 0.2453-0.7025 0.5839-0.0773 0.3852 0.172 0.7651 0.5625 0.8425 2.723 0.5479 4.717 1.496 5.998 2.583 1.286 1.093 1.86 2.297 1.86 3.463 0 1.161-0.5732 2.363-1.86 3.456-1.281 1.089-3.275 2.042-5.998 2.583-0.3906 0.07865-0.6398 0.4586-0.5625 0.8491 0.0786 0.3906 0.4532 0.6398 0.8438 0.5625 2.901-0.5785 5.124-1.6 6.654-2.901 1.526-1.297 2.359-2.906 2.359-4.551 0-1.652-0.8331-3.261-2.359-4.556-1.53-1.302-3.754-2.318-6.654-2.901-0.0467-0.01066-0.0933-0.016-0.1413-0.016z" stroke-width="1.333"/>
    <path d="m226.9 57.89c-0.3426 0-0.6345 0.2386-0.7025 0.5772-0.0773 0.3852 0.172 0.7651 0.5625 0.8438 2.723 0.5465 4.717 1.494 5.998 2.583 1.286 1.093 1.86 2.295 1.86 3.462 0 1.161-0.5732 2.365-1.86 3.458-1.281 1.088-3.275 2.041-5.998 2.582-0.3906 0.07865-0.6398 0.4586-0.5625 0.8491 0.0786 0.3906 0.4532 0.6412 0.8438 0.5625 2.901-0.5785 5.124-1.598 6.654-2.901 1.526-1.296 2.359-2.905 2.359-4.551 0-1.65-0.8331-3.259-2.359-4.556-1.53-1.301-3.754-2.317-6.654-2.901-0.0467-0.0093-0.0933-0.0093-0.1413-0.0093z" stroke-width="1.333"/>
    <path d="m223.3 46.19c-1.098-0.03599-2.03 0.04266-2.801 0.1933-0.7705 0.156-1.385 0.3852-1.854 0.7132-0.4679 0.3279-0.8331 0.8171-0.8331 1.401 0 0.5772 0.3652 1.068 0.8331 1.396 0.4692 0.3279 1.084 0.5625 1.854 0.7132 1.541 0.3066 3.728 0.2973 6.608-0.2813 0.3906-0.07865 0.6452-0.4532 0.5679-0.8438-0.0787-0.3906-0.4586-0.6452-0.8491-0.5679-2.745 0.5519-4.775 0.5372-6.045 0.2813-0.6358-0.124-1.078-0.3173-1.313-0.4785-0.2279-0.1666-0.2186-0.2399-0.2186-0.2186 0 0.016-9e-3 -0.05732 0.2186-0.2186 0.2346-0.1666 0.6772-0.3546 1.313-0.4839 1.27-0.2559 3.301-0.2666 6.045 0.2799 0.3906 0.07865 0.7705-0.1706 0.8491-0.5612 0.0773-0.3906-0.1773-0.7718-0.5679-0.8491-1.442-0.2866-2.707-0.4372-3.807-0.4745z" stroke-width="1.333"/>
    <path d="m223.3 57.44c-1.098-0.03599-2.03 0.04132-2.801 0.192-0.7705 0.1573-1.385 0.3866-1.854 0.7145-0.4679 0.3279-0.8331 0.8171-0.8331 1.4 0 0.5785 0.3652 1.068 0.8331 1.396 0.4692 0.3279 1.084 0.5625 1.854 0.7132 1.541 0.3079 3.728 0.2973 6.608-0.2799 0.3906-0.07865 0.6452-0.4532 0.5679-0.8438-0.0787-0.3906-0.4586-0.6465-0.8491-0.5679-2.745 0.5519-4.775 0.5359-6.045 0.2813-0.6358-0.1253-1.078-0.3173-1.313-0.4799-0.2279-0.1666-0.2186-0.2386-0.2186-0.2186 0 0.016-9e-3 -0.05732 0.2186-0.2186 0.2346-0.1666 0.6772-0.3532 1.313-0.4839 1.27-0.2546 3.301-0.2653 6.045 0.2813 0.3906 0.07865 0.7705-0.172 0.8491-0.5625 0.0773-0.3906-0.1773-0.7705-0.5679-0.8491-1.442-0.2853-2.707-0.4372-3.807-0.4732z" stroke-width="1.333"/>
    <path d="m226.9 82.65c-0.3946 0-0.7185 0.3173-0.7185 0.7185v12.37c0 0.3959 0.3239 0.7185 0.7185 0.7185 0.3959 0 0.7198-0.3226 0.7198-0.7185v-12.37c0-0.4012-0.3239-0.7238-0.7198-0.7185z" stroke-width="1.333"/>
    <path d="m226.9 23.03c-0.3946 0-0.7185 0.3239-0.7185 0.7185v12.37c0 0.3959 0.3239 0.7185 0.7185 0.7185 0.3959 0 0.7198-0.3226 0.7198-0.7185v-12.37c0-0.3999-0.3239-0.7238-0.7198-0.7185z" stroke-width="1.333"/>
    <path d="m373.1 95.02c-0.4012 0-0.7198 0.3239-0.7198 0.7185v14.4c0 0.4012 0.3186 0.7238 0.7198 0.7238 0.3946 0 0.7185-0.3226 0.7185-0.7238v-14.4c0-0.3999-0.3239-0.7238-0.7185-0.7185z" stroke-width="1.333"/>
    <path d="m358.7 110.1 14.4 14.4 14.4-14.4z" fill="#fff" stroke-width="1.333"/>
    <path d="m358.7 109.4c-0.6412 5e-3 -0.9584 0.7758-0.5105 1.229l14.4 14.4c0.2813 0.2813 0.7385 0.2813 1.02 0l14.4-14.4c0.4532-0.4532 0.136-1.229-0.5052-1.229zm1.738 1.442h25.31l-12.66 12.66z" stroke-width="1.333"/>
    <path d="m229.1 95.74c0 1.193-0.9691 2.157-2.162 2.157-1.192 0-2.161-0.9638-2.161-2.157 0-1.192 0.9691-2.161 2.161-2.161 1.193 0 2.162 0.9691 2.162 2.161" stroke-width="1.333"/>
    <path d="m226.9 93.22c-1.385 0-2.519 1.129-2.519 2.519 0 1.385 1.134 2.521 2.519 2.521 1.386 0 2.521-1.136 2.521-2.521 0-1.39-1.134-2.519-2.521-2.519zm0 0.7185c0.9998 0 1.802 0.8011 1.802 1.801s-0.8025 1.797-1.802 1.797-1.796-0.7971-1.796-1.797 0.7958-1.801 1.796-1.801z" stroke-width="1.333"/>
    <path d="m121.1 167c-0.4012 0-0.7198 0.3239-0.7198 0.7185v14.4c0 0.4012 0.3186 0.7238 0.7198 0.7238 0.3946 0 0.7185-0.3226 0.7185-0.7238v-14.4c0-0.3999-0.3239-0.7238-0.7185-0.7185z" stroke-width="1.333"/>
    <path d="m106.7 182.1 14.4 14.4 14.4-14.4z" fill="#fff" stroke-width="1.333"/>
    <path d="m106.7 181.4c-0.6412 5e-3 -0.9584 0.7758-0.5105 1.229l14.4 14.4c0.2813 0.2813 0.7385 0.2813 1.02 0l14.4-14.4c0.4532-0.4532 0.136-1.229-0.5052-1.229zm1.738 1.442h25.31l-12.66 12.66z" stroke-width="1.333"/>
    <path d="m121.1 95.02c-0.4012 0-0.7198 0.3239-0.7198 0.7185v13.49c0 0.3959 0.3239 0.7185 0.7198 0.7185 0.3946 0 0.7185-0.3226 0.7185-0.7185v-13.49c0-0.3999-0.3239-0.7238-0.7185-0.7185z" stroke-width="1.333"/>
    <path d="m121.1 153.6c-0.4012 0-0.7198 0.3239-0.7198 0.7185v13.49c0 0.3959 0.3239 0.7185 0.7198 0.7185 0.3946 0 0.7185-0.3226 0.7185-0.7185v-13.49c0-0.3999-0.3239-0.7238-0.7185-0.7185z" stroke-width="1.333"/>
    <path d="m229.1 23.75c0 1.193-0.9691 2.157-2.162 2.157-1.192 0-2.161-0.9638-2.161-2.157 0-1.192 0.9691-2.161 2.161-2.161 1.193 0 2.162 0.9691 2.162 2.161" stroke-width="1.333"/>
    <path d="m226.9 21.23c-1.385 0-2.519 1.129-2.519 2.519 0 1.385 1.134 2.521 2.519 2.521 1.386 0 2.521-1.136 2.521-2.521 0-1.39-1.134-2.519-2.521-2.519zm0 0.7185c0.9998 0 1.802 0.8011 1.802 1.801s-0.8025 1.797-1.802 1.797-1.796-0.7971-1.796-1.797 0.7958-1.801 1.796-1.801z" stroke-width="1.333"/>
    <path d="m121.1 95.02c-0.4012 0-0.7198 0.3239-0.7198 0.7185 0 0.3959 0.3239 0.7185 0.7198 0.7185h180c0.3946 0 0.7185-0.3226 0.7185-0.7185 0-0.3999-0.3239-0.7238-0.7185-0.7185z" stroke-width="1.333"/>
    <path d="m319.1 40.67c-0.5998 0-1.084 0.4785-1.084 1.077 0 0.5945 0.4839 1.078 1.084 1.078 2.666 0 4.592 0.5465 5.769 1.254 1.181 0.7038 1.582 1.49 1.582 2.166 0 0.6718-0.4012 1.458-1.582 2.166-1.177 0.7092-3.103 1.256-5.769 1.256-0.5998 0-1.084 0.4785-1.084 1.077 0 0.5945 0.4839 1.078 1.084 1.078 2.951 0 5.248-0.5785 6.884-1.557 1.629-0.9838 2.629-2.447 2.629-4.02 0-1.577-0.9998-3.041-2.629-4.019-1.636-0.9798-3.932-1.557-6.884-1.557z" stroke-width="1.333"/>
    <path d="m319.1 49.67c-0.5998 0-1.084 0.4785-1.084 1.077 0 0.5945 0.4839 1.078 1.084 1.078 2.666 0 4.592 0.5465 5.769 1.254 1.181 0.7038 1.582 1.49 1.582 2.166 0 0.6718-0.4012 1.458-1.582 2.166-1.177 0.7092-3.103 1.256-5.769 1.256-0.5998 0-1.084 0.4785-1.084 1.077 0 0.5945 0.4839 1.078 1.084 1.078 2.951 0 5.248-0.5785 6.884-1.557 1.629-0.9838 2.629-2.447 2.629-4.02 0-1.577-0.9998-3.041-2.629-4.019-1.636-0.9798-3.932-1.557-6.884-1.557z" stroke-width="1.333"/>
    <path d="m319.1 58.67c-0.5998 0-1.084 0.4785-1.084 1.077 0 0.5945 0.4839 1.078 1.084 1.078 2.666 0 4.592 0.5465 5.769 1.254 1.181 0.7038 1.582 1.49 1.582 2.166 0 0.6718-0.4012 1.458-1.582 2.166-1.177 0.7092-3.103 1.256-5.769 1.256-0.5998 0-1.084 0.4785-1.084 1.077 0 0.5945 0.4839 1.078 1.084 1.078 2.951 0 5.248-0.5785 6.884-1.557 1.629-0.9838 2.629-2.447 2.629-4.02 0-1.577-0.9998-3.041-2.629-4.019-1.636-0.9798-3.932-1.557-6.884-1.557z" stroke-width="1.333"/>
    <path d="m319.1 67.66c-0.5998 0-1.084 0.4785-1.084 1.077 0 0.5945 0.4839 1.078 1.084 1.078 2.666 0 4.592 0.5465 5.769 1.254 1.181 0.7038 1.582 1.49 1.582 2.166 0 0.6718-0.4012 1.458-1.582 2.166-1.177 0.7092-3.103 1.256-5.769 1.256-0.5998 0-1.084 0.4785-1.084 1.077 0 0.5945 0.4839 1.078 1.084 1.078 2.951 0 5.248-0.5785 6.884-1.557 1.629-0.9838 2.629-2.447 2.629-4.02 0-1.577-0.9998-3.041-2.629-4.019-1.636-0.9798-3.932-1.557-6.884-1.557z" stroke-width="1.333"/>
    <path d="m316.9 46.24c0-1.306-1.057-2.363-2.358-2.363-1.308 0-2.365 1.057-2.365 2.363 0 1.302 1.057 2.359 2.365 2.359 1.301 0 2.358-1.057 2.358-2.359" stroke-width="1.333"/>
    <path d="m334.8 41.03c-0.4012 0-0.7185 0.3239-0.7185 0.7185v35.99c0 0.3959 0.3226 0.7185 0.7185 0.7185s0.7185-0.3226 0.7185-0.7185v-35.99c0-0.3999-0.3226-0.7238-0.7185-0.7185z" stroke-width="1.333"/>
    <path d="m339.2 41.03c-0.4012 0-0.7185 0.3239-0.7185 0.7185v35.99c0 0.3959 0.3226 0.7185 0.7185 0.7185s0.7185-0.3226 0.7185-0.7185v-35.99c0-0.3999-0.3226-0.7238-0.7185-0.7185z" stroke-width="1.333"/>
    <path d="m355.1 67.66c-2.958 0-5.249 0.5772-6.884 1.557-1.63 0.9784-2.635 2.442-2.635 4.019 0 1.573 1.005 3.037 2.635 4.02 1.634 0.9784 3.926 1.557 6.884 1.557 0.5932 0 1.077-0.4839 1.077-1.078 0-0.5985-0.4839-1.077-1.077-1.077-2.671 0-4.594-0.5465-5.771-1.256-1.181-0.7078-1.588-1.494-1.588-2.166 0-0.6758 0.4066-1.462 1.588-2.166 1.177-0.7078 3.099-1.254 5.771-1.254 0.5932 0 1.077-0.4839 1.077-1.078 0-0.5985-0.4839-1.077-1.077-1.077z" stroke-width="1.333"/>
    <path d="m355.1 58.67c-2.958 0-5.249 0.5772-6.884 1.557-1.63 0.9784-2.635 2.442-2.635 4.019 0 1.573 1.005 3.037 2.635 4.02 1.634 0.9784 3.926 1.557 6.884 1.557 0.5932 0 1.077-0.4839 1.077-1.078 0-0.5985-0.4839-1.077-1.077-1.077-2.671 0-4.594-0.5465-5.771-1.256-1.181-0.7078-1.588-1.494-1.588-2.166 0-0.6758 0.4066-1.462 1.588-2.166 1.177-0.7078 3.099-1.254 5.771-1.254 0.5932 0 1.077-0.4839 1.077-1.078 0-0.5985-0.4839-1.077-1.077-1.077z" stroke-width="1.333"/>
    <path d="m355.1 49.67c-2.958 0-5.249 0.5772-6.884 1.557-1.63 0.9784-2.635 2.442-2.635 4.019 0 1.573 1.005 3.037 2.635 4.02 1.634 0.9784 3.926 1.557 6.884 1.557 0.5932 0 1.077-0.4839 1.077-1.078 0-0.5985-0.4839-1.077-1.077-1.077-2.671 0-4.594-0.5465-5.771-1.256-1.181-0.7078-1.588-1.494-1.588-2.166 0-0.6758 0.4066-1.462 1.588-2.166 1.177-0.7078 3.099-1.254 5.771-1.254 0.5932 0 1.077-0.4839 1.077-1.078 0-0.5985-0.4839-1.077-1.077-1.077z" stroke-width="1.333"/>
    <path d="m355.1 40.67c-2.958 0-5.249 0.5772-6.884 1.557-1.63 0.9784-2.635 2.442-2.635 4.019 0 1.573 1.005 3.037 2.635 4.02 1.634 0.9784 3.926 1.557 6.884 1.557 0.5932 0 1.077-0.4839 1.077-1.078 0-0.5985-0.4839-1.077-1.077-1.077-2.671 0-4.594-0.5465-5.771-1.256-1.181-0.7078-1.588-1.494-1.588-2.166 0-0.6758 0.4066-1.462 1.588-2.166 1.177-0.7078 3.099-1.254 5.771-1.254 0.5932 0 1.077-0.4839 1.077-1.078 0-0.5985-0.4839-1.077-1.077-1.077z" stroke-width="1.333"/>
    <path d="m361.9 46.24c0-1.306-1.057-2.363-2.358-2.363-1.308 0-2.365 1.057-2.365 2.363 0 1.302 1.057 2.359 2.365 2.359 1.301 0 2.358-1.057 2.358-2.359" stroke-width="1.333"/>
    <path d="m301.1 23.03c-0.4012 0-0.7198 0.3239-0.7198 0.7185 0 0.3959 0.3239 0.7185 0.7198 0.7185h17.28v17.28c0 0.3959 0.3239 0.7185 0.7198 0.7185 0.3946 0 0.7185-0.3226 0.7185-0.7185v-18.72z" stroke-width="1.333"/>
    <path d="m319.1 77.02c-0.4012 0-0.7198 0.3239-0.7198 0.7185v17.28h-17.28c-0.4012 0-0.7198 0.3239-0.7198 0.7185 0 0.3959 0.3239 0.7185 0.7198 0.7185h18.72v-18.72c0-0.3999-0.3239-0.7238-0.7185-0.7185z" stroke-width="1.333"/>
    <path d="m354.3 23.03v18.72c0 0.3959 0.3239 0.7185 0.7198 0.7185 0.3946 0 0.7185-0.3226 0.7185-0.7185v-17.28h17.28c0.3946 0 0.7185-0.3226 0.7185-0.7185 0-0.3999-0.3239-0.7238-0.7185-0.7185z" stroke-width="1.333"/>
    <path d="m355.1 77.02c-0.4012 0-0.7198 0.3239-0.7198 0.7185v18.72h18.72c0.3946 0 0.7185-0.3226 0.7185-0.7185 0-0.3999-0.3239-0.7238-0.7185-0.7185h-17.28v-17.28c0-0.3999-0.3239-0.7238-0.7185-0.7185z" stroke-width="1.333"/>
    <path d="m229.1 23.03c-0.4012 0-0.7198 0.3239-0.7198 0.7185 0 0.3959 0.3239 0.7185 0.7198 0.7185h32.62c0.3959 0 0.7185-0.3226 0.7185-0.7185 0-0.3999-0.3226-0.7238-0.7185-0.7185z" stroke-width="1.333"/>
    <path d="m268.5 23.03c-0.4012 0-0.7185 0.3239-0.7185 0.7185 0 0.3959 0.3226 0.7185 0.7185 0.7185h32.62c0.3946 0 0.7185-0.3226 0.7185-0.7185 0-0.3999-0.3239-0.7238-0.7185-0.7185z" stroke-width="1.333"/>
    <path d="m268.5 5.035c-0.4012 0-0.7185 0.3239-0.7185 0.7185v35.99c0 0.3959 0.3226 0.7185 0.7185 0.7185s0.7185-0.3226 0.7185-0.7185v-35.99c0-0.3999-0.3226-0.7238-0.7185-0.7185z" stroke-width="1.333"/>
    <path d="m261.7 5.035c-0.3999 0-0.7185 0.3239-0.7185 0.7185v35.99c0 0.3959 0.3226 0.7185 0.7185 0.7185s0.7185-0.3226 0.7185-0.7185v-35.99c0-0.3999-0.3226-0.7238-0.7185-0.7185z" stroke-width="1.333"/>
    <path d="m49.12 23.03c-0.4012 0-0.7198 0.3239-0.7198 0.7185 0 0.3959 0.3239 0.7185 0.7198 0.7185h180c0.3946 0 0.7185-0.3226 0.7185-0.7185 0-0.3999-0.3239-0.7238-0.7185-0.7185z" stroke-width="1.333"/>
    <path d="m31.13 59.75c0-9.94 8.055-18 18-18 9.935 0 18 8.055 18 18 0 9.936-8.061 18-18 18-9.94 0-18-8.059-18-18" fill="#fff" stroke-width="1.333"/>
    <path d="m49.12 41.03c-10.28 0-18.62 8.311-18.7 18.57-0.0053 0.04666-0.01066 0.09864-0.01066 0.1453 0 0.04799 0.0053 0.09464 0.01066 0.1413v0.0053c0.08398 10.26 8.426 18.57 18.7 18.57 10.33 0 18.72-8.389 18.72-18.72s-8.389-18.72-18.72-18.72zm0 1.437c9.55 0 17.28 7.727 17.28 17.28s-7.726 17.28-17.28 17.28-17.28-7.727-17.28-17.28 7.727-17.28 17.28-17.28z" stroke-width="1.333"/>
    <path d="m49.12 23.03c-0.4012 0-0.7198 0.3239-0.7198 0.7185v18c0 0.3959 0.3239 0.7185 0.7198 0.7185 0.3946 0 0.7185-0.3226 0.7185-0.7185v-18c0-0.3999-0.3239-0.7238-0.7185-0.7185z" stroke-width="1.333"/>
    <path d="m49.12 77.02c-0.4012 0-0.7198 0.3239-0.7198 0.7185v18c0 0.3959 0.3239 0.7185 0.7198 0.7185 0.3946 0 0.7185-0.3226 0.7185-0.7185v-18c0-0.3999-0.3239-0.7238-0.7185-0.7185z" stroke-width="1.333"/>
    <path d="m48.52 47.63h1.213v5.269h5.228v1.213h-5.228v5.269h-1.213v-5.269h-5.223v-1.213h5.223v-5.269" stroke-width="1.333"/>
    <path d="m43.32 67.22h11.55v1.208h-11.55z" stroke-width="1.333"/>
    <path d="m5.723 62.2c0 0.7451-0.2399 1.317-0.7292 1.724s-1.182 0.6092-2.082 0.6092c-0.8491 0-1.526-0.1973-2.026-0.5879-0.5052-0.3906-0.7971-0.9584-0.8851-1.698l1.609-0.14c0.09864 0.7598 0.5305 1.14 1.297 1.14 0.3799 0 0.6772-0.09331 0.8851-0.2813 0.2079-0.1866 0.3119-0.4732 0.3119-0.8585 0-0.3546-0.1253-0.6198-0.3799-0.8078-0.2546-0.1866-0.6358-0.2813-1.136-0.2813h-0.5519v-1.281h0.5159c0.4532 0 0.7971-0.08798 1.026-0.2706 0.2279-0.1866 0.3426-0.4572 0.3426-0.8011 0-0.3226-0.09331-0.5785-0.2759-0.7651-0.1813-0.188-0.4426-0.2813-0.7905-0.2813-0.3279 0-0.5945 0.09331-0.7971 0.2706-0.1973 0.1813-0.3119 0.4372-0.3439 0.7651l-1.577-0.1146c0.08265-0.6825 0.3639-1.213 0.8478-1.598 0.4852-0.3906 1.114-0.5839 1.896-0.5839 0.8278 0 1.474 0.188 1.942 0.5625 0.4692 0.3746 0.7038 0.8904 0.7038 1.546 0 0.4945-0.152 0.9064-0.4439 1.224-0.2853 0.3186-0.7025 0.5319-1.254 0.6358v0.01999c0.6092 0.07332 1.078 0.2719 1.401 0.6052 0.3332 0.3226 0.4945 0.7438 0.4945 1.249z" stroke-width="1.333"/>
    <path d="m6.92 62.69h1.63v1.718h-1.63z" stroke-width="1.333"/>
    <path d="m15.33 62.2c0 0.7451-0.2453 1.317-0.7292 1.724-0.4892 0.4066-1.182 0.6092-2.082 0.6092-0.8491 0-1.526-0.1973-2.031-0.5879-0.4999-0.3906-0.7958-0.9584-0.8798-1.698l1.609-0.14c0.09864 0.7598 0.5305 1.14 1.297 1.14 0.3799 0 0.6718-0.09331 0.8851-0.2813 0.2079-0.1866 0.3119-0.4732 0.3119-0.8585 0-0.3546-0.1253-0.6198-0.3799-0.8078-0.2546-0.1866-0.6358-0.2813-1.14-0.2813h-0.5479v-1.281h0.5159c0.4532 0 0.7971-0.08798 1.026-0.2706 0.2239-0.1866 0.3386-0.4572 0.3386-0.8011 0-0.3226-0.08931-0.5785-0.2759-0.7651-0.1773-0.188-0.4439-0.2813-0.7918-0.2813-0.3226 0-0.5892 0.09331-0.7918 0.2706-0.1973 0.1813-0.3119 0.4372-0.3439 0.7651l-1.577-0.1146c0.07731-0.6825 0.3639-1.213 0.8478-1.598 0.4852-0.3906 1.114-0.5839 1.896-0.5839 0.8278 0 1.474 0.188 1.937 0.5625 0.4692 0.3746 0.7038 0.8904 0.7038 1.546 0 0.4945-0.1466 0.9064-0.4372 1.224-0.2866 0.3186-0.7092 0.5319-1.256 0.6358v0.01999c0.6092 0.07332 1.073 0.2719 1.401 0.6052 0.3279 0.3226 0.4945 0.7438 0.4945 1.249z" stroke-width="1.333"/>
    <path d="m23.63 64.41h-1.681l-2.927-7.925h1.729l1.63 5.088c0.104 0.3332 0.2453 0.8318 0.4159 1.498l0.12-0.4839 0.2866-1.014 1.625-5.088h1.718z" stroke-width="1.333"/>
    <path d="m49.12 95.02c-0.4012 0-0.7198 0.3239-0.7198 0.7185v14.4c0 0.4012 0.3186 0.7238 0.7198 0.7238 0.3946 0 0.7185-0.3226 0.7185-0.7238v-14.4c0-0.3999-0.3239-0.7238-0.7185-0.7185z" stroke-width="1.333"/>
    <path d="m34.72 110.1 14.4 14.4 14.4-14.4z" fill="#fff" stroke-width="1.333"/>
    <path d="m34.72 109.4c-0.6412 5e-3 -0.9584 0.7758-0.5105 1.229l14.4 14.4c0.2813 0.2813 0.7385 0.2813 1.02 0l14.4-14.4c0.4532-0.4532 0.136-1.229-0.5052-1.229zm1.738 1.442h25.31l-12.66 12.66z" stroke-width="1.333"/>
    <path d="m94.91 109.8h52.39v44.27h-52.39z" fill="#fff" stroke="#000" stroke-linecap="round" stroke-linejoin="round" stroke-width="1.44"/>
    <path d="m104.8 128.8v0.8904c-0.3439-0.1666-0.6718-0.2866-0.9798-0.3692-0.3119-0.084-0.6092-0.1253-0.8958-0.1253-0.4945 0-0.8798 0.0986-1.156 0.2919-0.2653 0.192-0.4012 0.4679-0.4012 0.8225 0 0.3013 0.0893 0.5252 0.2666 0.6825 0.1813 0.1506 0.5252 0.2706 1.025 0.3639l0.5519 0.1146c0.6825 0.1306 1.188 0.3586 1.51 0.6878 0.3226 0.3279 0.4892 0.7652 0.4892 1.317 0 0.6505-0.2239 1.15-0.6612 1.489-0.4372 0.3386-1.082 0.5052-1.932 0.5052-0.3172 0-0.6612-0.036-1.026-0.1093-0.3586-0.0733-0.7278-0.1773-1.114-0.3172v-0.9424c0.3706 0.2079 0.7345 0.3639 1.089 0.4679 0.3586 0.104 0.7078 0.156 1.052 0.156 0.5212 0 0.9264-0.0986 1.208-0.3066 0.2866-0.2026 0.4279-0.4945 0.4279-0.8744 0-0.3332-0.1053-0.5945-0.3079-0.7811-0.2026-0.188-0.5359-0.3279-0.9998-0.4226l-0.5572-0.1093c-0.6825-0.1346-1.177-0.3479-1.484-0.6345-0.3026-0.2919-0.4586-0.6985-0.4586-1.214 0-0.5985 0.2133-1.066 0.6305-1.41 0.4266-0.3439 1.005-0.5159 1.744-0.5159 0.3186 0 0.6412 0.0267 0.9691 0.084 0.3332 0.0573 0.6665 0.1453 1.01 0.2599z" stroke-width="1.333"/>
    <path d="m105.7 128.6h5.717v0.7705h-2.399v5.993h-0.9171v-5.993h-2.401z" stroke-width="1.333"/>
    <path d="m112.3 128.6h1.364l1.724 4.603 1.734-4.603h1.364v6.764h-0.8904v-5.936l-1.744 4.635h-0.9224l-1.744-4.635v5.936h-0.8851z" stroke-width="1.333"/>
    <path d="m123.1 131.7c0.4372 0.0933 0.7758 0.2866 1.021 0.5825 0.2493 0.2972 0.3746 0.6612 0.3746 1.094 0 0.6718-0.2293 1.186-0.6932 1.552-0.4572 0.3639-1.109 0.5465-1.952 0.5465-0.2866 0-0.5785-0.0267-0.8811-0.084-0.2959-0.0573-0.6092-0.14-0.9264-0.2493v-0.8851c0.2506 0.1506 0.5319 0.2599 0.8331 0.3386 0.3026 0.072 0.6145 0.1093 0.9424 0.1093 0.5785 0 1.01-0.1093 1.313-0.3386 0.3013-0.2239 0.4519-0.5572 0.4519-0.9891 0-0.3959-0.14-0.7092-0.4212-0.9331-0.2759-0.2226-0.6665-0.3372-1.166-0.3372h-0.7865v-0.7505h0.8225c0.4532 0 0.7971-0.0933 1.037-0.2706 0.2333-0.1826 0.3532-0.4372 0.3532-0.7758 0-0.3492-0.12-0.6145-0.3692-0.7971-0.2453-0.1866-0.5932-0.2813-1.057-0.2813-0.2506 0-0.5159 0.0267-0.8025 0.0787-0.2906 0.0573-0.6038 0.14-0.9478 0.2546v-0.8171c0.3439-0.0933 0.6718-0.1666 0.9744-0.2133 0.3026-0.052 0.5878-0.0733 0.8584-0.0733 0.6932 0 1.245 0.156 1.652 0.4746 0.4012 0.3119 0.6038 0.7385 0.6038 1.276 0 0.3746-0.104 0.6918-0.3226 0.9531-0.2133 0.2546-0.5159 0.4372-0.9118 0.5359z" stroke-width="1.333"/>
    <path d="m127 134.6h3.191v0.7705h-4.291v-0.7705c0.3439-0.3586 0.8185-0.8384 1.417-1.442 0.5985-0.6092 0.9784-0.9998 1.13-1.177 0.2959-0.3279 0.4999-0.6038 0.6132-0.8331 0.12-0.2293 0.1773-0.4532 0.1773-0.6718 0-0.3586-0.1293-0.6558-0.3799-0.8798-0.2493-0.2293-0.5772-0.3386-0.9838-0.3386-0.2866 0-0.5892 0.0467-0.9118 0.1466-0.3173 0.0986-0.6558 0.2493-1.02 0.4532v-0.9224c0.3692-0.1506 0.7132-0.2599 1.036-0.3332 0.3173-0.0773 0.6145-0.1146 0.8798-0.1146 0.6985 0 1.256 0.172 1.672 0.5265 0.4172 0.3479 0.6252 0.8171 0.6252 1.4 0 0.2813-0.052 0.5425-0.156 0.7971-0.1053 0.2453-0.2919 0.5359-0.5679 0.8744-0.0733 0.0893-0.3132 0.3439-0.7185 0.7612-0.4066 0.4159-0.9744 1.005-1.713 1.754z" stroke-width="1.333"/>
    <path d="m132.1 128.6h3.884v0.7705h-2.973v1.994h2.681v0.7705h-2.681v3.229h-0.9118z" stroke-width="1.333"/>
    <path d="m139.4 129.2c-0.4732 0-0.8278 0.2346-1.068 0.6985-0.2333 0.4626-0.3532 1.156-0.3532 2.087 0 0.9264 0.12 1.625 0.3532 2.087 0.2399 0.4639 0.5945 0.6932 1.068 0.6932 0.4746 0 0.8278-0.2293 1.062-0.6932 0.2399-0.4626 0.3599-1.161 0.3599-2.087 0-0.9318-0.12-1.625-0.3599-2.087-0.2346-0.4639-0.5878-0.6985-1.062-0.6985zm0-0.7238c0.7558 0 1.333 0.2972 1.734 0.9011 0.4012 0.5985 0.5985 1.469 0.5985 2.609 0 1.14-0.1973 2.01-0.5985 2.609-0.4012 0.5985-0.9784 0.8958-1.734 0.8958-0.7598 0-1.338-0.2973-1.74-0.8958-0.3999-0.5985-0.5985-1.469-0.5985-2.609 0-1.14 0.1986-2.01 0.5985-2.609 0.4012-0.6038 0.9798-0.9011 1.74-0.9011z" stroke-width="1.333"/>
    <path d="m211.8 0.6972h167.8v102.5h-167.8z" fill="none" stroke="#333" stroke-dasharray="2.7993, 5.5986" stroke-linecap="round" stroke-linejoin="round" stroke-width="1.4"/>
    <path d="m259.5 108.9v3.374h1.525c0.5679 0 1.005-0.1453 1.313-0.4372 0.3119-0.2919 0.4626-0.7132 0.4626-1.256 0-0.5359-0.1506-0.9518-0.4626-1.244-0.3079-0.2919-0.7452-0.4372-1.313-0.4372zm-1.218-0.9998h2.743c1.01 0 1.77 0.224 2.286 0.6812 0.5159 0.4532 0.7758 1.12 0.7758 2 0 0.8904-0.2599 1.557-0.7758 2.015-0.5159 0.4532-1.276 0.6772-2.286 0.6772h-1.525v3.614h-1.218z" stroke-width="1.333"/>
    <path d="m267.8 110.9c-0.5945 0-1.062 0.2346-1.406 0.6985-0.3439 0.4626-0.5212 1.098-0.5212 1.905 0 0.8078 0.172 1.442 0.5159 1.906 0.3439 0.4639 0.8171 0.6932 1.412 0.6932 0.5932 0 1.061-0.2293 1.405-0.6985 0.3439-0.4626 0.5159-1.098 0.5159-1.901 0-0.8011-0.172-1.432-0.5159-1.9-0.3439-0.4692-0.8118-0.7038-1.405-0.7038zm0-0.9371c0.9678 0 1.722 0.3132 2.27 0.9371 0.5519 0.6252 0.8278 1.494 0.8278 2.603 0 1.105-0.2759 1.969-0.8278 2.599-0.5479 0.6292-1.302 0.9424-2.27 0.9424-0.9638 0-1.724-0.3132-2.277-0.9424-0.5465-0.6305-0.8171-1.494-0.8171-2.599 0-1.109 0.2706-1.978 0.8171-2.603 0.5532-0.6238 1.313-0.9371 2.277-0.9371z" stroke-width="1.333"/>
    <path d="m272.2 110.1h1.109l1.385 5.264 1.38-5.264h1.302l1.385 5.264 1.38-5.264h1.109l-1.765 6.744h-1.306l-1.448-5.525-1.458 5.525h-1.308z" stroke-width="1.333"/>
    <path d="m288.6 113.2v0.5412h-5.097c0.052 0.7651 0.2813 1.349 0.6878 1.749 0.4159 0.3959 0.9891 0.5945 1.724 0.5945 0.4266 0 0.8371-0.052 1.233-0.1573 0.4012-0.104 0.7971-0.2599 1.193-0.4679v1.046c-0.3959 0.172-0.8078 0.2973-1.224 0.3852-0.4172 0.0893-0.8385 0.136-1.27 0.136-1.073 0-1.928-0.3133-2.557-0.9424-0.6305-0.6252-0.9424-1.474-0.9424-2.542 0-1.104 0.2959-1.978 0.8904-2.623 0.5985-0.6518 1.405-0.9744 2.415-0.9744 0.9064 0 1.625 0.2919 2.151 0.8798 0.5305 0.5785 0.7958 1.376 0.7958 2.375zm-1.109-0.3239c-0.0107-0.6092-0.1773-1.088-0.5105-1.452-0.3332-0.3599-0.7705-0.5425-1.317-0.5425-0.6145 0-1.109 0.1773-1.484 0.5265-0.3706 0.3492-0.5838 0.8385-0.6412 1.473z" stroke-width="1.333"/>
    <path d="m294.3 111.2c-0.1253-0.0733-0.2653-0.1253-0.4119-0.1573-0.1453-0.036-0.3066-0.0573-0.4839-0.0573-0.6252 0-1.104 0.2093-1.442 0.6145-0.3332 0.4066-0.4999 0.9904-0.4999 1.756v3.551h-1.114v-6.744h1.114v1.046c0.2346-0.4106 0.5359-0.7132 0.9064-0.9051 0.3746-0.204 0.8278-0.3026 1.364-0.3026 0.0733 0 0.1613 5e-3 0.2506 0.016 0.0933 0.0107 0.1973 0.0213 0.3066 0.0413z" stroke-width="1.333"/>
    <path d="m300.5 115.9v3.578h-1.109v-9.311h1.109v1.026c0.2346-0.4066 0.5265-0.7038 0.8798-0.8958 0.3599-0.1933 0.7865-0.2919 1.281-0.2919 0.8185 0 1.48 0.3226 1.99 0.9744 0.5145 0.6505 0.7705 1.505 0.7705 2.566 0 1.057-0.2559 1.912-0.7705 2.562-0.5105 0.6518-1.172 0.9798-1.99 0.9798-0.4945 0-0.9211-0.1-1.281-0.2919-0.3532-0.1973-0.6452-0.4945-0.8798-0.8958zm3.77-2.354c0-0.8171-0.1666-1.452-0.5039-1.916-0.3332-0.4692-0.7918-0.6972-1.381-0.6972-0.5825 0-1.046 0.2279-1.385 0.6972-0.3332 0.4639-0.4999 1.098-0.4999 1.916 0 0.8131 0.1666 1.453 0.4999 1.922 0.3386 0.4586 0.8025 0.6918 1.385 0.6918 0.5892 0 1.048-0.2333 1.381-0.6918 0.3372-0.4692 0.5039-1.109 0.5039-1.922z" stroke-width="1.333"/>
    <path d="m311.1 111.2c-0.1253-0.0733-0.2599-0.1253-0.4106-0.1573-0.1466-0.036-0.3079-0.0573-0.4852-0.0573-0.6238 0-1.104 0.2093-1.442 0.6145-0.3332 0.4066-0.4999 0.9904-0.4999 1.756v3.551h-1.114v-6.744h1.114v1.046c0.2346-0.4106 0.5372-0.7132 0.9118-0.9051 0.3692-0.204 0.8225-0.3026 1.358-0.3026 0.0786 0 0.1626 5e-3 0.2506 0.016 0.0933 0.0107 0.1973 0.0213 0.3066 0.0413z" stroke-width="1.333"/>
    <path d="m314.7 110.9c-0.5932 0-1.068 0.2346-1.41 0.6985-0.3439 0.4626-0.5159 1.098-0.5159 1.905 0 0.8078 0.1666 1.442 0.5105 1.906 0.3426 0.4639 0.8171 0.6932 1.416 0.6932 0.5892 0 1.057-0.2293 1.401-0.6985 0.3439-0.4626 0.5212-1.098 0.5212-1.901 0-0.8011-0.1773-1.432-0.5212-1.9-0.3439-0.4692-0.8118-0.7038-1.401-0.7038zm0-0.9371c0.9638 0 1.718 0.3132 2.27 0.9371 0.5465 0.6252 0.8225 1.494 0.8225 2.603 0 1.105-0.2759 1.969-0.8225 2.599-0.5519 0.6292-1.306 0.9424-2.27 0.9424-0.9678 0-1.729-0.3132-2.275-0.9424-0.5465-0.6305-0.8225-1.494-0.8225-2.599 0-1.109 0.2759-1.978 0.8225-2.603 0.5465-0.6238 1.308-0.9371 2.275-0.9371z" stroke-width="1.333"/>
    <path d="m324.5 113.5c0-0.8171-0.172-1.452-0.5052-1.916-0.3332-0.4692-0.7958-0.6972-1.38-0.6972-0.5879 0-1.052 0.228-1.385 0.6972-0.3332 0.4639-0.4999 1.098-0.4999 1.916 0 0.8131 0.1666 1.453 0.4999 1.922 0.3332 0.4586 0.7971 0.6918 1.385 0.6918 0.5838 0 1.046-0.2333 1.38-0.6918 0.3332-0.4692 0.5052-1.109 0.5052-1.922zm-3.77-2.353c0.2293-0.4066 0.5265-0.7038 0.8798-0.8958 0.3546-0.1933 0.7811-0.2919 1.276-0.2919 0.8171 0 1.484 0.3226 1.994 0.9744 0.5105 0.6505 0.7705 1.505 0.7705 2.566 0 1.057-0.2599 1.912-0.7705 2.562-0.5105 0.6518-1.177 0.9798-1.994 0.9798-0.4946 0-0.9211-0.1-1.276-0.2919-0.3532-0.1973-0.6505-0.4945-0.8798-0.8958v1.01h-1.114v-9.367h1.114z" stroke-width="1.333"/>
    <path d="m333.2 113.2v0.5412h-5.093c0.0466 0.7651 0.2759 1.349 0.6878 1.749 0.4106 0.3959 0.9838 0.5945 1.718 0.5945 0.4266 0 0.8385-0.052 1.24-0.1573 0.3999-0.104 0.7958-0.2599 1.192-0.4679v1.046c-0.4012 0.172-0.8065 0.2973-1.224 0.3852-0.4159 0.0893-0.8438 0.136-1.27 0.136-1.078 0-1.932-0.3133-2.562-0.9424-0.6252-0.6252-0.9371-1.474-0.9371-2.542 0-1.104 0.2972-1.978 0.8904-2.623 0.5985-0.6518 1.401-0.9744 2.417-0.9744 0.9051 0 1.624 0.2919 2.15 0.8798 0.5252 0.5785 0.7918 1.376 0.7918 2.375zm-1.109-0.3239c-5e-3 -0.6092-0.1773-1.088-0.5105-1.452-0.3279-0.3599-0.7651-0.5425-1.313-0.5425-0.6198 0-1.114 0.1773-1.489 0.5265-0.3692 0.3492-0.5772 0.8385-0.6345 1.473z" stroke-width="1.333"/>
    <path d="m398 11.75c-0.124 0.0053-0.2386 0.05732-0.3279 0.1466-0.1973 0.1973-0.1973 0.5105 0 0.7078l11.16 11.16-11.16 11.16c-0.1973 0.1986-0.1973 0.5105 0 0.7078 0.1933 0.1933 0.5105 0.1933 0.7038 0l11.51-11.51c4e-3 -0.0053 9e-3 -0.0053 9e-3 -0.01066 0.016-0.016 0.0267-0.03199 0.0426-0.04665 0.156-0.1986 0.1346-0.4799-0.0426-0.6625l-11.52-11.52c-0.1-0.09864-0.2346-0.1506-0.3759-0.1466z" stroke="#000" stroke-linecap="round" stroke-linejoin="round" stroke-width=".3999"/>
    <path d="m397.4 2.187v1.124c-0.3639-0.3332-0.7492-0.5825-1.166-0.7491-0.4066-0.1666-0.8331-0.2506-1.292-0.2506-0.9051 0-1.598 0.2813-2.082 0.8331-0.4746 0.5572-0.7078 1.354-0.7078 2.395 0 1.042 0.2333 1.844 0.7078 2.395 0.4839 0.5572 1.177 0.8331 2.082 0.8331 0.4586 0 0.8851-0.08265 1.292-0.2493 0.4172-0.1666 0.8025-0.4172 1.166-0.7505v1.125c-0.3746 0.2493-0.7705 0.4372-1.186 0.5625-0.4172 0.1253-0.8651 0.1866-1.333 0.1866-1.198 0-2.141-0.3586-2.834-1.082-0.6972-0.7345-1.041-1.74-1.041-3.021 0-1.276 0.3439-2.275 1.041-2.999 0.6932-0.7345 1.636-1.104 2.834-1.104 0.4679 0 0.9158 0.06265 1.333 0.188 0.4266 0.124 0.8225 0.3119 1.186 0.5625z" stroke-width="1.333"/>
    <path d="m399 1.562h1.084v3.249h3.895v-3.249h1.062v7.935h-1.062v-3.77h-3.895v3.77h-1.084z" stroke-width="1.333"/>
    <path d="m407.5 8.602h1.749v-6.061l-1.916 0.3959v-0.9784l1.896-0.3959h1.082v7.04h1.75v0.8958h-4.562z" stroke-width="1.333"/>
    <path d="m130.3 161.2-0.0413-0.2293c-0.3959 0.0213-0.7918 0.0213-1.166 0.0213-0.3959 0-0.7705 0-1.166-0.0213v0.2919l0.7918 0.0626c0.2293 0.0213 0.3332 0.104 0.3332 0.3332v0.9584c0 0.208-0.0213 0.3332-0.0626 0.3959-0.104 0.1866-0.6665 0.3119-1.292 0.3119-1.874 0-3.062-1.25-3.062-3.207 0-1.833 1.021-2.895 2.77-2.895 0.4999 0 0.9171 0.0626 1.27 0.1666 0.5625 0.1866 0.7918 0.3959 0.7918 0.7705v0.4999h0.2919c0-0.4786 0.0627-0.9371 0.188-1.437-1.042-0.3132-1.521-0.3959-2.291-0.3959-2.437 0-4.04 1.374-4.04 3.478 0 0.9584 0.3332 1.792 0.9158 2.395 0.6665 0.6252 1.666 1.021 2.77 1.021 0.6665 0 1.333-0.1253 2.603-0.4799v-1.582c0-0.2919 0.0213-0.3119 0.104-0.3546z" stroke-width="1.333"/>
    <path d="m138.4 157.2v-0.2706c-0.3746 0.0213-0.7492 0.0213-1.125 0.0213-0.3746 0-0.7292 0-1.104-0.0213v0.2706l0.4172 0.0413c0.4372 0.0213 0.4786 0.104 0.4786 0.8544v4.458l-4.54-5.624s-0.3132 0.0213-0.5212 0.0213c-0.4372 0-1.125-0.0213-1.125-0.0213v0.2706l0.4172 0.0413c0.4372 0.0213 0.4785 0.104 0.4785 0.8544v4.248c0 0.7292-0.0413 0.8131-0.4785 0.8331l-0.4172 0.0427v0.2706c0.3546-0.0213 0.7292-0.0213 1.084-0.0213 0.3959 0 0.7705 0 1.145 0.0213v-0.2706l-0.4159-0.0427c-0.4372-0.02-0.4799-0.104-0.4799-0.8331v-4.394l4.458 5.56 0.8544 0.1466c0-0.084-0.0213-0.2506-0.0213-0.3546v-5.207c0-0.7505 0.0413-0.8331 0.4799-0.8544z" stroke-width="1.333"/>
    <path d="m145.6 159.8c0-1.75-1.312-2.895-3.291-2.895-0.5625 0-1.104 0.0213-1.645 0.0213-0.6665 0-1.312 0-1.958-0.0213v0.2706l0.3746 0.0413c0.4386 0.0213 0.4799 0.104 0.4799 0.8544v4.478c0 0.2706-0.084 0.4799-0.2293 0.5625l-0.2919 0.1466v0.2079c0.4372-0.0213 0.8744-0.0213 1.313-0.0213 0.4572 0 0.9158 0.0213 1.374 0.0213 1.208 0 2.125-0.3132 2.77-0.9584 0.6878-0.6665 1.104-1.688 1.104-2.707zm-1.021 0.2493c0 1.062-0.3119 1.876-0.9371 2.375-0.5625 0.4786-1.145 0.6238-2.207 0.6238-0.4372 0-0.7292-0.02-0.9784-0.0627v-5.623c0.2493-0.0627 0.5825-0.084 1.062-0.084 1.041 0 1.894 0.188 2.394 0.6878 0.4586 0.4586 0.6665 1.145 0.6665 2.082z" stroke-width="1.333"/>
    <path d="m130.9 99.5v-0.2719c-0.2919 0.02133-0.6038 0.02133-0.8958 0.02133-0.3959 0-0.7918 0-1.188-0.02133v0.2719h0.2506c0.3546 0.04132 0.5412 0.124 0.5412 0.3119 0 0.104-0.0413 0.2079-0.1453 0.3959l-2.75 4.644-0.6665-4.977c-0.0413-0.2919 0.1253-0.3546 0.3959-0.3746h0.3959v-0.2719c-0.3959 0.02133-0.7918 0.02133-1.188 0.02133-0.3946 0-0.7705 0-1.166-0.02133v0.2719h0.2293c0.4172 0.04132 0.5212 0.104 0.5625 0.4572l0.8331 5.895h0.4586l3.582-5.852c0.2293-0.3959 0.3133-0.4586 0.5838-0.4999z" stroke-width="1.333"/>
    <path d="m135.2 105c0-0.6038-0.188-1.041-0.5625-1.292-0.2919-0.208-0.8744-0.3119-1.396-0.3119-0.4159 0-0.8331 0.0213-1.249 0.0213-0.2506 0-0.4999-0.0213-0.7505-0.0213l-0.02 0.1666 0.3119 0.0213c0.1453 0 0.2293 0.0413 0.2293 0.1666 0 0.0827-0.0213 0.2706-0.0627 0.4586l-0.5412 3.103c-0.0213 0.1453-0.208 0.1666-0.3133 0.1866l-0.0413 0.1666c0.188-0.02 0.3959-0.02 0.5838-0.02 0.3959 0 0.7905 0.02 1.186 0.02 0.4372 0 0.7505-0.0626 1.062-0.2293 0.9584-0.4999 1.562-1.416 1.562-2.437zm-0.5825 0.104c0 0.7092-0.2293 1.354-0.6465 1.772-0.3332 0.3532-0.7705 0.5199-1.312 0.5199-0.2706 0-0.5625-0.0413-0.9798-0.104 0-0.0627 0-0.104 0.0213-0.208l0.5839-3.436c0.2493 0 0.4786-0.0213 0.7078-0.0213 1.125 0 1.625 0.4586 1.625 1.478z" stroke-width="1.333"/>
    <path d="m140 105c0-0.6038-0.188-1.041-0.5625-1.292-0.2919-0.208-0.8744-0.3119-1.396-0.3119-0.4159 0-0.8331 0.0213-1.249 0.0213-0.2506 0-0.4999-0.0213-0.7505-0.0213l-0.02 0.1666 0.3119 0.0213c0.1453 0 0.2293 0.0413 0.2293 0.1666 0 0.0827-0.0213 0.2706-0.0627 0.4586l-0.5412 3.103c-0.0213 0.1453-0.2093 0.1666-0.3133 0.1866l-0.0413 0.1666c0.188-0.02 0.3959-0.02 0.5838-0.02 0.3946 0 0.7905 0.02 1.186 0.02 0.4372 0 0.7505-0.0626 1.062-0.2293 0.9584-0.4999 1.562-1.416 1.562-2.437zm-0.5838 0.104c0 0.7092-0.228 1.354-0.6452 1.772-0.3332 0.3532-0.7705 0.5199-1.312 0.5199-0.2706 0-0.5625-0.0413-0.9798-0.104 0-0.0627 0-0.104 0.0213-0.208l0.5825-3.436c0.2506 0 0.4799-0.0213 0.7092-0.0213 1.124 0 1.624 0.4586 1.624 1.478z" stroke-width="1.333"/>
    <path d="m148.2 137.9c-0.4012-5e-3 -0.7238 0.3173-0.7238 0.7185 5e-3 0.3959 0.3226 0.7185 0.7238 0.7185h33.82c0.4012 0 0.7185-0.3226 0.7238-0.7185 0-0.4012-0.3226-0.7238-0.7238-0.7185z" stroke-width="1.333"/>
    <path d="m147.4 126.2c5e-3 0.3959 0.3279 0.7185 0.7238 0.7185h26.57c0.3959 0 0.7185-0.3226 0.7185-0.7185 0-0.3959-0.3226-0.7185-0.7185-0.7185h-26.57c-0.4012 0-0.7238 0.3226-0.7238 0.7185z" stroke-width="1.333"/>
    <path d="m177.4 121.9h5.832v0.7918h-2.458v6.102h-0.9371v-6.102h-2.437z" stroke-width="1.333"/>
    <path d="m185.8 124.5c-0.0986-0.052-0.2026-0.0933-0.3119-0.124-0.1146-0.0267-0.2399-0.0427-0.3746-0.0427-0.4905 0-0.8651 0.1626-1.125 0.4799-0.2506 0.3066-0.3746 0.7492-0.3746 1.333v2.729h-0.8544v-5.165h0.8544v0.7905c0.176-0.3012 0.4052-0.5305 0.6865-0.6865 0.2919-0.1506 0.6465-0.2293 1.062-0.2293 0.052 0 0.1146 0.0107 0.188 0.0213 0.068 0 0.1453 9e-3 0.2293 0.02z" stroke-width="1.333"/>
    <path d="m186.6 123.7h0.8544v5.165h-0.8544zm0-2.021h0.8544v1.084h-0.8544z" stroke-width="1.333"/>
    <path d="m192.8 126.2c0-0.6092-0.1253-1.082-0.3746-1.416-0.2506-0.3439-0.6052-0.5212-1.062-0.5212-0.4586 0-0.8238 0.1773-1.084 0.5212-0.2493 0.3332-0.3746 0.8065-0.3746 1.416 0 0.6145 0.1253 1.094 0.3746 1.437 0.2599 0.3332 0.6252 0.4999 1.084 0.4999 0.4572 0 0.8118-0.1666 1.062-0.4999 0.2493-0.3426 0.3746-0.8225 0.3746-1.437zm0.8531 2c0 0.8851-0.1973 1.542-0.5825 1.958-0.3906 0.4266-0.9891 0.6452-1.792 0.6452-0.3066 0-0.5932-0.02-0.8531-0.0613-0.2666-0.0427-0.5212-0.1146-0.7718-0.2093v-0.8118c0.2506 0.1253 0.4905 0.2186 0.7292 0.2919 0.2506 0.0667 0.4999 0.104 0.7505 0.104 0.5519 0 0.9678-0.1466 1.249-0.4372 0.2759-0.2919 0.4172-0.7292 0.4172-1.313v-0.4372c-0.1666 0.3079-0.3906 0.5372-0.6665 0.6878-0.2813 0.156-0.6038 0.2293-0.9798 0.2293-0.6398 0-1.156-0.2399-1.541-0.7292-0.3906-0.4839-0.5825-1.125-0.5825-1.917 0-0.8011 0.192-1.442 0.5825-1.916 0.3852-0.4839 0.9011-0.7292 1.541-0.7292 0.3759 0 0.6985 0.0786 0.9798 0.2293 0.2759 0.14 0.4999 0.3639 0.6665 0.6665v-0.7705h0.8531z" stroke-width="1.333"/>
    <path d="m198.8 126.2c0-0.6092-0.1253-1.082-0.3759-1.416-0.2493-0.3439-0.6038-0.5212-1.061-0.5212-0.4586 0-0.8238 0.1773-1.084 0.5212-0.2493 0.3332-0.3746 0.8065-0.3746 1.416 0 0.6145 0.1253 1.094 0.3746 1.437 0.2599 0.3332 0.6252 0.4999 1.084 0.4999 0.4572 0 0.8118-0.1666 1.061-0.4999 0.2506-0.3426 0.3759-0.8225 0.3759-1.437zm0.8531 2c0 0.8851-0.1973 1.542-0.5825 1.958-0.3906 0.4266-0.9891 0.6452-1.792 0.6452-0.3066 0-0.5932-0.02-0.8545-0.0613-0.2653-0.0427-0.5199-0.1146-0.7705-0.2093v-0.8118c0.2506 0.1253 0.4892 0.2186 0.7292 0.2919 0.2506 0.0667 0.4999 0.104 0.7505 0.104 0.5519 0 0.9678-0.1466 1.249-0.4372 0.2759-0.2919 0.4172-0.7292 0.4172-1.313v-0.4372c-0.1666 0.3079-0.3906 0.5372-0.6665 0.6878-0.2813 0.156-0.6038 0.2293-0.9798 0.2293-0.6398 0-1.156-0.2399-1.541-0.7292-0.3906-0.4839-0.5825-1.125-0.5825-1.917 0-0.8011 0.192-1.442 0.5825-1.916 0.3852-0.4839 0.9011-0.7292 1.541-0.7292 0.3759 0 0.6985 0.0786 0.9798 0.2293 0.2759 0.14 0.4999 0.3639 0.6665 0.6665v-0.7705h0.8531z" stroke-width="1.333"/>
    <path d="m205.7 126v0.4159h-3.895c0.0267 0.5838 0.1986 1.032 0.5212 1.333 0.3172 0.3079 0.7545 0.4586 1.312 0.4586 0.3332 0 0.6518-0.0413 0.9584-0.1253 0.3026-0.0827 0.6092-0.1973 0.9171-0.3532v0.7918c-0.3079 0.14-0.6198 0.2386-0.9384 0.2906-0.3226 0.068-0.6452 0.104-0.9784 0.104-0.8331 0-1.494-0.2333-1.978-0.7078-0.4745-0.4839-0.7092-1.134-0.7092-1.958 0-0.8425 0.2293-1.509 0.6878-2 0.4586-0.4999 1.073-0.7492 1.854-0.7492 0.6918 0 1.238 0.2239 1.645 0.6665 0.4012 0.4479 0.6038 1.057 0.6038 1.833zm-0.8531-0.2506c0-0.4679-0.136-0.8425-0.3959-1.124-0.2506-0.2759-0.5838-0.4172-0.9998-0.4172-0.4746 0-0.8544 0.1413-1.146 0.4172-0.2813 0.2653-0.4372 0.6398-0.4786 1.124z" stroke-width="1.333"/>
    <path d="m210.1 124.5c-0.0986-0.052-0.2026-0.0933-0.3119-0.124-0.1146-0.0267-0.2399-0.0427-0.3759-0.0427-0.4892 0-0.8638 0.1626-1.124 0.4799-0.2506 0.3066-0.3759 0.7492-0.3759 1.333v2.729h-0.8531v-5.165h0.8531v0.7905c0.1773-0.3012 0.4066-0.5305 0.6878-0.6865 0.2919-0.1506 0.6452-0.2293 1.062-0.2293 0.052 0 0.1146 0.0107 0.1866 0.0213 0.068 0 0.1466 9e-3 0.2293 0.02z" stroke-width="1.333"/>
    <path d="m168.5 118.6c-0.0773 5e-3 -0.1506 0.036-0.208 0.0933-0.12 0.12-0.12 0.3186 0 0.4386l6.946 6.946-6.946 6.945c-0.12 0.1253-0.12 0.3186 0 0.4439 0.1253 0.1186 0.3173 0.1186 0.4426 0l7.16-7.166h5e-3c0.0107-9e-3 0.016-0.02 0.0267-0.0307 0.0933-0.1253 0.0827-0.3026-0.0267-0.4119l-7.165-7.165c-0.0626-0.0613-0.1453-0.0933-0.2346-0.0933z" stroke="#000" stroke-linecap="round" stroke-linejoin="round" stroke-width=".3999"/>
    <path d="m191.7 135.5v0.9171c-0.3639-0.1773-0.7025-0.3133-1.021-0.3959-0.3066-0.084-0.6038-0.1253-0.8944-0.1253-0.4999 0-0.8904 0.104-1.166 0.3119-0.2813 0.1986-0.4172 0.4746-0.4172 0.8345 0 0.3066 0.088 0.5359 0.2706 0.6865 0.1773 0.156 0.5265 0.2813 1.041 0.3746l0.5625 0.1253c0.6932 0.1253 1.209 0.3546 1.542 0.6878s0.4999 0.7865 0.4999 1.353c0 0.6665-0.2293 1.177-0.6878 1.521-0.4479 0.3332-1.098 0.4999-1.958 0.4999-0.3226 0-0.6665-0.036-1.041-0.104-0.3652-0.068-0.7452-0.1773-1.145-0.3332v-0.9584c0.3852 0.2239 0.7598 0.3906 1.124 0.4999 0.3599 0.0986 0.7132 0.1453 1.062 0.1453 0.5265 0 0.9371-0.104 1.229-0.3119 0.2919-0.208 0.4372-0.5052 0.4372-0.8958 0-0.3332-0.104-0.5932-0.3119-0.7918-0.208-0.192-0.5519-0.3372-1.021-0.4372l-0.5625-0.104c-0.6972-0.1346-1.202-0.3532-1.52-0.6452-0.3079-0.3026-0.4586-0.7185-0.4586-1.25 0-0.5932 0.2133-1.066 0.6452-1.416 0.4279-0.3599 1.021-0.5412 1.77-0.5412 0.3186 0 0.6465 0.0307 0.9798 0.0827 0.3439 0.0573 0.6918 0.1466 1.041 0.2706z" stroke-width="1.333"/>
    <path d="m192.6 135.4h5.832v0.7918h-2.457v6.102h-0.9371v-6.102h-2.438z" stroke-width="1.333"/>
    <path d="m198.1 139.3h2.499v0.7705h-2.499z" stroke-width="1.333"/>
    <path d="m201.9 135.4h0.9171v6.104h3.354v0.7905h-4.271z" stroke-width="1.333"/>
    <path d="m207.1 137.1h0.8544v5.165h-0.8544zm0-2.019h0.8544v1.082h-0.8544z" stroke-width="1.333"/>
    <path d="m214.1 139.1v3.123h-0.8544v-3.103c0-0.4839-0.0986-0.8438-0.2919-1.082-0.1813-0.2506-0.4679-0.3759-0.8531-0.3759-0.4586 0-0.8238 0.1466-1.084 0.4386-0.2653 0.2906-0.3959 0.6972-0.3959 1.208v2.915h-0.8531v-5.165h0.8531v0.7918c0.2093-0.3026 0.4479-0.5305 0.7292-0.6878 0.2759-0.1506 0.5892-0.2293 0.9371-0.2293 0.5945 0 1.046 0.188 1.354 0.5625 0.3013 0.3652 0.4586 0.8958 0.4586 1.605z" stroke-width="1.333"/>
    <path d="m215.7 135.1h0.8531v4.248l2.542-2.229h1.082l-2.749 2.417 2.874 2.749h-1.125l-2.625-2.519v2.519h-0.8531z" stroke-width="1.333"/>
    <path d="m160.2 143.7 9.242-9.243" fill="none" stroke="#000" stroke-width=".9998"/>
    <path d="m148.2 148.5c-0.4012 0-0.7238 0.3226-0.7238 0.7185 5e-3 0.3999 0.3226 0.7185 0.7238 0.7185h33.82c0.4012 0 0.7185-0.3186 0.7238-0.7185 0-0.3959-0.3226-0.7185-0.7238-0.7185z" stroke-width="1.333"/>
    <path d="m191.7 146.1v0.9158c-0.3639-0.176-0.7025-0.3119-1.021-0.3946-0.3066-0.084-0.6038-0.1253-0.8944-0.1253-0.4999 0-0.8904 0.104-1.166 0.3119-0.2813 0.1986-0.4172 0.4746-0.4172 0.8331 0 0.3079 0.088 0.5372 0.2706 0.6878 0.1773 0.156 0.5265 0.2813 1.041 0.3746l0.5625 0.1253c0.6932 0.1253 1.209 0.3532 1.542 0.6865s0.4999 0.7865 0.4999 1.354c0 0.6665-0.2293 1.177-0.6878 1.521-0.4479 0.3332-1.098 0.4999-1.958 0.4999-0.3226 0-0.6665-0.0373-1.041-0.104-0.3652-0.068-0.7452-0.1773-1.145-0.3332v-0.9584c0.3852 0.2239 0.7598 0.3906 1.124 0.4999 0.3599 0.0986 0.7132 0.1453 1.062 0.1453 0.5265 0 0.9371-0.104 1.229-0.3119 0.2919-0.208 0.4372-0.5052 0.4372-0.8958 0-0.3332-0.104-0.5932-0.3119-0.7918-0.208-0.192-0.5519-0.3386-1.021-0.4372l-0.5625-0.104c-0.6972-0.136-1.202-0.3546-1.52-0.6452-0.3079-0.3026-0.4586-0.7198-0.4586-1.25 0-0.5932 0.2133-1.068 0.6452-1.416 0.4279-0.3599 1.021-0.5425 1.77-0.5425 0.3186 0 0.6465 0.032 0.9798 0.084 0.3439 0.0573 0.6918 0.1453 1.041 0.2706z" stroke-width="1.333"/>
    <path d="m198 150v0.4172h-3.894c0.0253 0.5825 0.1973 1.03 0.5199 1.333 0.3172 0.3066 0.7558 0.4572 1.313 0.4572 0.3332 0 0.6505-0.0413 0.9571-0.124 0.3026-0.084 0.6092-0.1986 0.9171-0.3546v0.7918c-0.3079 0.14-0.6198 0.2386-0.9371 0.2919-0.3226 0.0667-0.6465 0.104-0.9798 0.104-0.8331 0-1.494-0.2346-1.978-0.7092-0.4745-0.4839-0.7078-1.134-0.7078-1.957 0-0.8438 0.2293-1.51 0.6865-2 0.4586-0.4999 1.073-0.7505 1.854-0.7505 0.6918 0 1.24 0.2239 1.645 0.6665 0.4012 0.4479 0.6038 1.057 0.6038 1.833zm-0.8531-0.2493c0-0.4692-0.136-0.8438-0.3959-1.125-0.2506-0.2759-0.5838-0.4172-0.9998-0.4172-0.4746 0-0.8544 0.1413-1.145 0.4172-0.2813 0.2653-0.4386 0.6398-0.4799 1.125z" stroke-width="1.333"/>
    <path d="m202.3 148.4c-0.0986-0.052-0.2026-0.0946-0.3119-0.1253-0.1146-0.0267-0.2399-0.0413-0.3759-0.0413-0.4892 0-0.8638 0.1613-1.124 0.4786-0.2506 0.3066-0.3746 0.7505-0.3746 1.333v2.729h-0.8544v-5.165h0.8544v0.7918c0.176-0.3026 0.4052-0.5319 0.6865-0.6878 0.2919-0.1506 0.6465-0.2293 1.062-0.2293 0.052 0 0.1146 0.0107 0.188 0.0213 0.0666 0 0.1453 0.0107 0.2279 0.02z" stroke-width="1.333"/>
    <path d="m203.3 147.7h0.8544v5.165h-0.8544zm0-2.021h0.8544v1.084h-0.8544z" stroke-width="1.333"/>
    <path d="m208.2 150.2c-0.6972 0-1.176 0.0827-1.437 0.2493-0.2653 0.156-0.3959 0.4172-0.3959 0.7918 0 0.3079 0.0947 0.5519 0.2919 0.7292 0.208 0.1666 0.4799 0.2493 0.8131 0.2493 0.4679 0 0.8425-0.1666 1.124-0.4999 0.2919-0.3332 0.4372-0.7758 0.4372-1.333v-0.1866zm1.688-0.3546v2.958h-0.8545v-0.7918c-0.1973 0.3226-0.4372 0.5572-0.7278 0.7078-0.2813 0.136-0.6358 0.2093-1.062 0.2093-0.5319 0-0.9531-0.1466-1.27-0.4372-0.3079-0.2919-0.4586-0.6878-0.4586-1.188 0-0.5839 0.192-1.021 0.5825-1.312 0.3852-0.3026 0.9691-0.4586 1.75-0.4586h1.186v-0.084c0-0.3852-0.1346-0.6865-0.3946-0.8958-0.2506-0.2186-0.6052-0.3332-1.062-0.3332-0.3079 0-0.5998 0.0427-0.8758 0.1253-0.2799 0.0733-0.5519 0.1773-0.8118 0.3133v-0.7918c0.3172-0.1253 0.6252-0.2133 0.9171-0.2706 0.2906-0.052 0.5719-0.084 0.8531-0.084 0.7505 0 1.302 0.1986 1.666 0.5838 0.3746 0.3906 0.5625 0.9731 0.5625 1.749z" stroke-width="1.333"/>
    <path d="m211.7 145.6h0.8544v7.186h-0.8544z" stroke-width="1.333"/>
    <path d="m218.2 152.1v2.729h-0.8531v-7.124h0.8531v0.7705c0.1773-0.3026 0.4012-0.5252 0.6665-0.6665 0.2759-0.1506 0.6092-0.2293 0.9998-0.2293 0.6252 0 1.13 0.2506 1.521 0.7505 0.3852 0.4999 0.5825 1.156 0.5825 1.957 0 0.8238-0.1973 1.48-0.5825 1.98-0.3906 0.4892-0.8958 0.7292-1.521 0.7292-0.3906 0-0.7238-0.0733-0.9998-0.2093-0.2653-0.1506-0.4892-0.3799-0.6665-0.6865zm2.895-1.813c0-0.6238-0.1346-1.109-0.3959-1.457-0.2493-0.3599-0.5985-0.5425-1.041-0.5425-0.4586 0-0.8225 0.1826-1.082 0.5425-0.2506 0.3479-0.3759 0.8331-0.3759 1.457 0 0.6252 0.1253 1.12 0.3759 1.48 0.2599 0.3479 0.6238 0.5199 1.082 0.5199 0.4426 0 0.7918-0.172 1.041-0.5199 0.2613-0.3599 0.3959-0.8544 0.3959-1.48z" stroke-width="1.333"/>
    <path d="m225.3 148.2c-0.4586 0-0.8225 0.1826-1.084 0.5425-0.2653 0.3639-0.3946 0.8478-0.3946 1.457 0 0.6252 0.1293 1.12 0.3946 1.48 0.2613 0.3479 0.6252 0.5199 1.084 0.5199s0.8171-0.176 1.082-0.5412c0.2613-0.3586 0.3959-0.8438 0.3959-1.458 0-0.6092-0.1346-1.093-0.3959-1.457-0.2653-0.3599-0.6238-0.5425-1.082-0.5425zm0-0.7078c0.7345 0 1.312 0.2453 1.729 0.7292 0.4266 0.4732 0.6452 1.136 0.6452 1.978 0 0.8491-0.2186 1.516-0.6452 2-0.4172 0.4746-0.9944 0.7092-1.729 0.7092-0.7398 0-1.322-0.2346-1.75-0.7092-0.4159-0.4839-0.6238-1.15-0.6238-2 0-0.8424 0.208-1.505 0.6238-1.978 0.4279-0.4839 1.01-0.7292 1.75-0.7292z" stroke-width="1.333"/>
    <path d="m232.1 148.4c-0.1-0.052-0.204-0.0946-0.3133-0.1253-0.1146-0.0267-0.2386-0.0413-0.3746-0.0413-0.4892 0-0.8638 0.1613-1.125 0.4786-0.2493 0.3066-0.3746 0.7505-0.3746 1.333v2.729h-0.8545v-5.165h0.8545v0.7918c0.1773-0.3026 0.4066-0.5319 0.6878-0.6878 0.2906-0.1506 0.6452-0.2293 1.062-0.2293 0.052 0 0.1146 0.0107 0.1866 0.0213 0.068 0 0.1466 0.0107 0.2293 0.02z" stroke-width="1.333"/>
    <path d="m233.8 146.1v1.478h1.749v0.6452h-1.749v2.813c0 0.4319 0.052 0.7078 0.1666 0.8331 0.124 0.1146 0.3586 0.1666 0.7078 0.1666h0.8744v0.7078h-0.8744c-0.6558 0-1.104-0.1146-1.354-0.3546-0.2493-0.2493-0.3746-0.6972-0.3746-1.353v-2.813h-0.6252v-0.6452h0.6252v-1.478z" stroke-width="1.333"/>
    <path d="m160.2 154.2 9.242-9.248" fill="none" stroke="#000" stroke-width=".9998"/>
    <g stroke-width=".2353" aria-label="EXT">
        <path d="m213.9 121.9h4.338v0.7811h-3.409v2.031h3.267v0.7811h-3.267v2.486h3.492v0.7811h-4.42z"/>
        <path d="m219.5 121.9h0.9971l1.705 2.55 1.714-2.55h0.9971l-2.206 3.295 2.353 3.566h-0.9971l-1.93-2.918-1.944 2.918h-1.002l2.449-3.662z"/>
        <path d="m225.2 121.9h5.803v0.7811h-2.435v6.079h-0.9328v-6.079h-2.435z"/>
    </g>
    <path d="m148.2 113c-0.4012 0-0.7246 0.3228-0.7246 0.7188 5e-3 0.3959 0.3287 0.7188 0.7246 0.7188h101.1v27.69c0 0.203 0.08656 0.3847 0.2227 0.5156 0.1312 0.1331 0.3112 0.2168 0.5117 0.2168h102.6c0.3959 0 0.7188-0.3228 0.7188-0.7188 0-0.3959-0.3228-0.7188-0.7188-0.7188h-101.9v-27.69c0-4e-3 -0.00195-0.00802-0.00195-0.01172v-0.00196c0-0.0948-0.02109-0.1846-0.05469-0.2676-0.1067-0.2635-0.363-0.4512-0.6641-0.4512h-101.8z" stroke-width="1.333"/>
    <path d="m346.5 134.8c-0.0773 5e-3 -0.1506 0.036-0.208 0.0933-0.12 0.12-0.12 0.3186 0 0.4386l6.946 6.946-6.946 6.945c-0.12 0.1253-0.12 0.3186 0 0.4439 0.1253 0.1186 0.3173 0.1186 0.4426 0l7.16-7.166h5e-3c0.0107-9e-3 0.016-0.02 0.0267-0.0307 0.0933-0.1253 0.0827-0.3026-0.0267-0.4119l-7.165-7.165c-0.0626-0.0613-0.1453-0.0933-0.2346-0.0933z" stroke="#000" stroke-linecap="round" stroke-linejoin="round" stroke-width=".3999"/>
    <g stroke-width=".2746" aria-label="Clock CH2">
        <path d="m362.4 138.3v1.142q-0.547-0.5094-1.169-0.7615-0.6167-0.252-1.314-0.252-1.373 0-2.102 0.8419-0.7293 0.8365-0.7293 2.424 0 1.582 0.7293 2.424 0.7293 0.8365 2.102 0.8365 0.6971 0 1.314-0.252 0.622-0.252 1.169-0.7614v1.131q-0.5684 0.3861-1.207 0.5791-0.6328 0.193-1.341 0.193-1.818 0-2.864-1.11-1.046-1.115-1.046-3.04 0-1.93 1.046-3.04 1.046-1.115 2.864-1.115 0.7186 0 1.351 0.193 0.6381 0.1877 1.196 0.5684z"/>
        <path d="m364.1 137.4h0.9867v8.344h-0.9867z"/>
        <path d="m369.4 140.4q-0.7936 0-1.255 0.622-0.4612 0.6167-0.4612 1.694 0 1.078 0.4558 1.7 0.4612 0.6167 1.26 0.6167 0.7883 0 1.249-0.622 0.4612-0.622 0.4612-1.695 0-1.067-0.4612-1.689-0.4612-0.6274-1.249-0.6274zm0-0.8365q1.287 0 2.022 0.8365 0.7346 0.8365 0.7346 2.317 0 1.475-0.7346 2.317-0.7346 0.8365-2.022 0.8365-1.292 0-2.027-0.8365-0.7293-0.8419-0.7293-2.317 0-1.48 0.7293-2.317 0.7346-0.8365 2.027-0.8365z"/>
        <path d="m378.2 139.9v0.9223q-0.4183-0.2306-0.8419-0.3432-0.4183-0.118-0.8472-0.118-0.9599 0-1.491 0.6113-0.5309 0.606-0.5309 1.705t0.5309 1.711q0.5309 0.606 1.491 0.606 0.429 0 0.8472-0.1126 0.4236-0.118 0.8419-0.3486v0.9116q-0.4129 0.193-0.858 0.2896-0.4397 0.0965-0.9384 0.0965-1.357 0-2.156-0.8526-0.799-0.8526-0.799-2.3 0-1.469 0.8044-2.311 0.8097-0.8419 2.215-0.8419 0.4558 0 0.8902 0.0965 0.4344 0.0912 0.8419 0.2788z"/>
        <path d="m379.8 137.4h0.992v4.928l2.944-2.59h1.26l-3.185 2.81 3.319 3.196h-1.287l-3.051-2.933v2.933h-0.992z"/>
        <path d="m395.8 138.3v1.142q-0.547-0.5094-1.169-0.7615-0.6167-0.252-1.314-0.252-1.373 0-2.102 0.8419-0.7293 0.8365-0.7293 2.424 0 1.582 0.7293 2.424 0.7293 0.8365 2.102 0.8365 0.6971 0 1.314-0.252 0.622-0.252 1.169-0.7614v1.131q-0.5684 0.3861-1.207 0.5791-0.6328 0.193-1.341 0.193-1.818 0-2.863-1.11-1.046-1.115-1.046-3.04 0-1.93 1.046-3.04 1.046-1.115 2.863-1.115 0.7186 0 1.351 0.193 0.6381 0.1877 1.196 0.5684z"/>
        <path d="m397.4 137.7h1.083v3.282h3.936v-3.282h1.083v8.006h-1.083v-3.813h-3.936v3.813h-1.083z"/>
        <path d="m406.7 144.8h3.78v0.9116h-5.084v-0.9116q0.6167-0.6381 1.678-1.711 1.067-1.078 1.341-1.389 0.5202-0.5845 0.7239-0.9867 0.2091-0.4075 0.2091-0.799 0-0.6381-0.4504-1.04-0.4451-0.4022-1.164-0.4022-0.5094 0-1.078 0.177-0.563 0.177-1.207 0.5362v-1.094q0.6542-0.2628 1.223-0.3968t1.04-0.1341q1.244 0 1.984 0.622 0.74 0.622 0.74 1.662 0 0.4933-0.1877 0.9384-0.1823 0.4397-0.6703 1.04-0.1341 0.1555-0.8526 0.9009-0.7186 0.74-2.027 2.075z"/>
    </g>
</svg>
