<?xml version="1.0" encoding="UTF-8"?>
<svg width="58.57mm" height="68.74mm" version="1.1" viewBox="0 0 58.57 68.74" xmlns="http://www.w3.org/2000/svg">
    <g transform="translate(-39.61 -64.6)">
        <path d="m43.69 64.73 3.68e-4 29.08h-3.951v11.04h3.951v28.36h23.93l4.15e-4 -68.48z" fill="#fff" stroke="#000" stroke-width=".2646px"/>
        <path d="m53.33 69.64c-0.547 0.0074-0.9865 0.4529-0.9865 0.9999 3.3e-5 0.5522 0.4477 0.9999 0.9999 0.9999 0.5522-3.3e-5 0.9999-0.4477 0.9999-0.9999-3.5e-5 -0.5522-0.4477-0.9999-0.9999-0.9999-0.0045-3e-5 -9e-3 -3e-5 -0.01344 0zm4.347 0c-0.547 0.0074-0.9865 0.4529-0.9865 0.9999 3.3e-5 0.5522 0.4477 0.9999 0.9999 0.9999 0.5524 2.52e-4 1-0.4475 1-0.9999-3.5e-5 -0.5524-0.448-1-1-0.9999-0.0045-3e-5 -9e-3 -3e-5 -0.01344 0zm-4.333 6.32c-0.5524 3.5e-5 -1 0.448-0.9999 1 3.3e-5 0.5522 0.4477 0.9999 0.9999 0.9999 0.5522-3.3e-5 0.9999-0.4477 0.9999-0.9999 2.52e-4 -0.5524-0.4475-1-0.9999-1zm4.347 0c-0.5524 3.3e-5 -1 0.448-0.9999 1 3.3e-5 0.5522 0.4477 0.9999 0.9999 0.9999 0.5524 2.52e-4 1-0.4475 1-0.9999 2.52e-4 -0.5526-0.4478-1.001-1-1zm-4.36 6.32c-0.547 0.0074-0.9865 0.4529-0.9865 0.9999 3.3e-5 0.5522 0.4477 0.9999 0.9999 0.9999 0.5522-3.3e-5 0.9999-0.4477 0.9999-0.9999-3.3e-5 -0.5522-0.4477-0.9999-0.9999-0.9999-0.0045-3e-5 -9e-3 -3e-5 -0.01344 0zm4.347 0c-0.5301 0.0072-0.9625 0.4269-0.9855 0.9565-6.47e-4 0.01446-9.81e-4 0.02893-1e-3 0.04341 9.2e-5 0.5355 0.422 0.9759 0.957 0.9989 0.01429 6.4e-4 0.02859 9.73e-4 0.04289 1e-3 0.0046 3.2e-5 0.0093 3.2e-5 0.01395 0 0.01448-2.19e-4 0.02895-7.52e-4 0.04341-0.0016 0.5293-0.03017 0.9431-0.4682 0.9431-0.9984-1.42e-4 -0.0045-3.14e-4 -9e-3 -5.16e-4 -0.01344-0.0074-0.547-0.4529-0.9865-0.9999-0.9865-0.0045-3e-5 -9e-3 -3e-5 -0.01344 0zm0 6.32c-0.547 0.0074-0.9865 0.4529-0.9865 0.9999-2.52e-4 0.5524 0.4475 1 0.9999 1 0.5526 2.52e-4 1.001-0.4478 1-1-3.5e-5 -0.5524-0.448-1-1-0.9999-0.0045-3e-5 -9e-3 -3e-5 -0.01344 0zm-4.347 6.32c-0.547 0.0074-0.9865 0.4529-0.9865 0.9999 3.3e-5 0.5522 0.4477 0.9999 0.9999 0.9999 0.5522-3.3e-5 0.9999-0.4477 0.9999-0.9999-3.5e-5 -0.5522-0.4477-0.9999-0.9999-0.9999-0.0045-3e-5 -9e-3 -3e-5 -0.01344 0zm4.347 0c-0.5301 0.0072-0.9625 0.4269-0.9855 0.9565-6.47e-4 0.01446-9.81e-4 0.02893-1e-3 0.04341 9.2e-5 0.5355 0.422 0.9759 0.957 0.9989 0.01429 6.4e-4 0.02859 9.73e-4 0.04289 1e-3 0.0046 3.2e-5 0.0093 3.2e-5 0.01395 0 0.01448-2.19e-4 0.02895-7.52e-4 0.04341-0.0016 0.5293-0.03017 0.9431-0.4682 0.9431-0.9984-1.4e-4 -0.0047-3.12e-4 -0.0093-5.16e-4 -0.01395-0.0077-0.5468-0.4531-0.986-0.9999-0.986-0.0045-3e-5 -9e-3 -3e-5 -0.01344 0zm-4.347 6.32c-0.547 7e-3 -0.9865 0.4529-0.9865 0.9999 3.3e-5 0.5522 0.4477 0.9999 0.9999 0.9999 0.5522-3e-5 0.9999-0.4477 0.9999-0.9999-3.3e-5 -0.5522-0.4477-0.9999-0.9999-0.9999-0.0045-3e-5 -9e-3 -3e-5 -0.01344 0zm4.347 0c-0.547 7e-3 -0.9865 0.4529-0.9865 0.9999 3.3e-5 0.5522 0.4477 0.9999 0.9999 0.9999 0.5524 2.5e-4 1-0.4475 1-0.9999-3.3e-5 -0.5524-0.448-1-1-0.9999-0.0045-3e-5 -9e-3 -3e-5 -0.01344 0zm-4.347 6.32c-0.547 7e-3 -0.9865 0.4529-0.9865 0.9999 3.3e-5 0.5522 0.4477 0.9999 0.9999 0.9999 0.5522-3e-5 0.9999-0.4477 0.9999-0.9999-3.3e-5 -0.5522-0.4477-0.9999-0.9999-0.9999-0.0045-3e-5 -9e-3 -3e-5 -0.01344 0zm4.347 0c-0.5301 7e-3 -0.9625 0.4269-0.9855 0.9565-6.47e-4 0.0145-9.81e-4 0.0289-1e-3 0.0434 9.5e-5 0.5355 0.422 0.9759 0.957 0.9989 0.01429 6.4e-4 0.02859 9.7e-4 0.04289 1e-3 0.0046 3e-5 0.0093 3e-5 0.01395 0 0.01448-3.5e-4 0.02896-1e-3 0.04341-2e-3 0.5293-0.0302 0.9431-0.4682 0.9431-0.9984-1.39e-4 -5e-3 -3.11e-4 -9e-3 -5.16e-4 -0.014-0.0077-0.5468-0.4531-0.986-0.9999-0.986-0.0045-3e-5 -9e-3 -3e-5 -0.01344 0zm-4.347 6.32c-0.547 7e-3 -0.9865 0.4529-0.9865 0.9999 3.3e-5 0.5522 0.4477 0.9999 0.9999 0.9999 0.5022 6e-5 0.9265-0.3723 0.9917-0.8702v-5.2e-4c0.0056-0.0428 0.0083-0.086 0.0083-0.1292 3e-5 -4e-3 3e-5 -9e-3 0-0.0134-0.0033-0.2478-0.09852-0.4856-0.2672-0.6671v-5.2e-4c-0.1893-0.2035-0.4548-0.319-0.7328-0.3188-0.0045-3e-5 -9e-3 -3e-5 -0.01344 0zm4.347 0c-0.5301 7e-3 -0.9625 0.4269-0.9855 0.9565-6.47e-4 0.0145-9.81e-4 0.0289-1e-3 0.0434 9.5e-5 0.5355 0.422 0.9759 0.957 0.9989 0.01429 6.4e-4 0.02859 9.7e-4 0.04289 1e-3 0.5022 6e-5 0.9265-0.3723 0.9917-0.8702v-5.2e-4c0.0057-0.0428 0.0087-0.086 0.0088-0.1292-1.42e-4 -4e-3 -3.14e-4 -9e-3 -5.16e-4 -0.0134-0.0033-0.2478-0.09852-0.4856-0.2672-0.6671v-5.2e-4c-0.1893-0.2035-0.4548-0.319-0.7328-0.3188-0.0045-3e-5 -9e-3 -3e-5 -0.01344 0zm-4.333 6.32c-0.5524 3e-5 -1 0.448-0.9999 1 3.9e-5 0.5522 0.4477 0.9999 0.9999 0.9999 0.5522-3e-5 0.9999-0.4477 0.9999-0.9999 2.54e-4 -0.5524-0.4475-1-0.9999-1zm4.347 0c-0.5355 9e-5 -0.9759 0.422-0.9989 0.957-6.47e-4 0.0145-9.81e-4 0.0289-1e-3 0.0434 9.5e-5 0.5355 0.422 0.9759 0.957 0.9989 0.01429 6.4e-4 0.02859 9.7e-4 0.04289 1e-3 0.5524 2.5e-4 1-0.4475 1-0.9999-1.39e-4 -5e-3 -3.11e-4 -9e-3 -5.16e-4 -0.014-0.0074-0.547-0.4529-0.9865-0.9999-0.9865zm-4.36 6.32c-0.547 7e-3 -0.9865 0.4529-0.9865 0.9999 3.9e-5 0.5522 0.4477 0.9999 0.9999 0.9999 0.5522-3e-5 0.9999-0.4477 0.9999-0.9999-3.3e-5 -0.5522-0.4477-0.9999-0.9999-0.9999-0.0045-3e-5 -9e-3 -3e-5 -0.01344 0zm4.347 0c-0.547 7e-3 -0.9865 0.4529-0.9865 0.9999 3.9e-5 0.5522 0.4477 0.9999 0.9999 0.9999 0.5524 2.5e-4 1-0.4475 1-0.9999-3.3e-5 -0.5524-0.448-1-1-0.9999-0.0045-3e-5 -9e-3 -3e-5 -0.01344 0z"/>
        <path d="m47.48 71.28h0.7799v-2.834l-0.8395 0.1888v-0.457l0.8345-0.1838h0.5017v3.286h0.7699v0.4222h-2.047z" stroke-width=".1272"/>
        <path d="m61.53 71.28h1.704v0.4222h-2.253v-0.4222q0.4644-0.4893 0.8122-0.8643 0.3477-0.375 0.4793-0.529 0.2484-0.303 0.3353-0.4893 0.08691-0.1888 0.08691-0.385 0-0.3105-0.1838-0.4868-0.1813-0.1763-0.4992-0.1763-0.226 0-0.4744 0.08196-0.2484 0.08196-0.5265 0.2484v-0.5067q0.2558-0.1217 0.5017-0.1838 0.2484-0.06209 0.4893-0.06209 0.5439 0 0.8742 0.2906 0.3328 0.2881 0.3328 0.7575 0 0.2384-0.1118 0.4769-0.1093 0.2384-0.3576 0.5265-0.1391 0.1614-0.4048 0.4471-0.2633 0.2856-0.8047 0.8544z" stroke-width=".1272"/>
        <path d="m48.74 76.08q0.3651 0.09686 0.5588 0.3452 0.1937 0.2459 0.1937 0.6159 0 0.5116-0.3452 0.8047-0.3427 0.2906-0.9512 0.2906-0.2558 0-0.5216-0.04719-0.2658-0.04719-0.5216-0.1366v-0.4992q0.2533 0.1316 0.4992 0.1962 0.2459 0.06458 0.4893 0.06458 0.4123 0 0.6333-0.1863 0.221-0.1863 0.221-0.5365 0-0.3229-0.221-0.5116-0.221-0.1912-0.5986-0.1912h-0.3825v-0.4123h0.3825q0.3452 0 0.539-0.1515 0.1937-0.1515 0.1937-0.4222 0-0.2856-0.1813-0.4371-0.1788-0.154-0.5116-0.154-0.221 0-0.457 0.04967-0.2359 0.04967-0.4942 0.149v-0.462q0.3005-0.07948 0.534-0.1192 0.2359-0.03973 0.4172-0.03973 0.5414 0 0.8643 0.2732 0.3254 0.2707 0.3254 0.7203 0 0.3055-0.1714 0.5091-0.1689 0.2037-0.4942 0.2881z" stroke-width=".1272"/>
        <path d="m62.55 74.81-1.17 1.96h1.17zm-0.082-0.457h0.5812v2.417h0.4943v0.4073h-0.4943v0.8842h-0.4992v-0.8842h-1.572v-0.4744z" stroke-width=".1272"/>
        <path d="m47.33 80.72h1.878v0.4222h-1.421v0.9115q0.1068-0.03974 0.2136-0.05712 0.1093-0.01987 0.2186-0.01987 0.5762 0 0.914 0.3403 0.3378 0.3403 0.3378 0.9214 0 0.5861-0.3552 0.9239-0.3527 0.3378-0.9661 0.3378-0.2956 0-0.5414-0.03973-0.2434-0.03974-0.4371-0.1192v-0.5092q0.2285 0.1242 0.4595 0.1863 0.231 0.05961 0.4719 0.05961 0.4148 0 0.6383-0.2186 0.226-0.2186 0.226-0.6209 0-0.3974-0.2335-0.6184-0.231-0.221-0.6458-0.221-0.2012 0-0.3924 0.04719-0.1912 0.0447-0.3651 0.1366z" stroke-width=".1272"/>
        <path d="m63.11 80.8v0.462q-0.1565-0.0919-0.3328-0.1391-0.1763-0.04967-0.3676-0.04967-0.4769 0-0.7227 0.3601-0.2459 0.3576-0.2459 1.056 0.1192-0.2484 0.3303-0.38 0.2111-0.1341 0.4843-0.1341 0.5365 0 0.8295 0.3303 0.2956 0.3278 0.2956 0.9314 0 0.601-0.303 0.9314-0.303 0.3303-0.8519 0.3303-0.6457 0-0.9463-0.462-0.3005-0.4644-0.3005-1.46 0-0.9388 0.3601-1.431 0.3626-0.4942 1.048-0.4942 0.1838 0 0.3676 0.03974 0.1838 0.03726 0.3552 0.1093zm-0.8941 1.567q-0.3204 0-0.5042 0.231-0.1838 0.231-0.1838 0.6383 0 0.4073 0.1838 0.6383 0.1838 0.231 0.5042 0.231 0.3328 0 0.5017-0.2186 0.1689-0.221 0.1689-0.6507 0-0.4322-0.1689-0.6507t-0.5017-0.2186z" stroke-width=".1272"/>
        <path d="m47.16 87.09h2.335v0.2136l-1.326 3.494h-0.524l1.291-3.286h-1.776z" stroke-width=".1272"/>
        <path d="m62.19 89.04q-0.3353 0-0.5191 0.1888-0.1813 0.1863-0.1813 0.529 0 0.3427 0.1838 0.534 0.1863 0.1888 0.5166 0.1888 0.3378 0 0.5191-0.1863 0.1838-0.1888 0.1838-0.5365 0-0.3403-0.1863-0.529-0.1838-0.1888-0.5166-0.1888zm-0.4371-0.2086q-0.3204-0.08196-0.5017-0.3055-0.1788-0.2235-0.1788-0.539 0-0.4421 0.3005-0.7004 0.3005-0.2608 0.8171-0.2608 0.5191 0 0.8196 0.2608 0.3005 0.2583 0.3005 0.7004 0 0.3154-0.1813 0.539-0.1788 0.2235-0.4992 0.3055 0.3725 0.08196 0.5687 0.3303 0.1987 0.2484 0.1987 0.6433 0 0.5017-0.3204 0.7848-0.3204 0.2831-0.8867 0.2831t-0.8867-0.2807q-0.3179-0.2831-0.3179-0.7823 0-0.3974 0.1962-0.6457 0.1987-0.2508 0.5712-0.3328zm-0.1813-0.7973q0 0.298 0.159 0.4545 0.159 0.1565 0.4595 0.1565 0.303 0 0.462-0.1565 0.159-0.1565 0.159-0.4545 0-0.303-0.159-0.462-0.1565-0.159-0.462-0.159-0.3005 0-0.4595 0.1614-0.159 0.159-0.159 0.4595z" stroke-width=".1272"/>
        <path d="m48.29 95.52q0.3204 0 0.5017-0.231 0.1838-0.231 0.1838-0.6383 0-0.4073-0.1838-0.6383-0.1813-0.231-0.5017-0.231-0.3328 0-0.5017 0.221-0.1689 0.2186-0.1689 0.6482 0 0.4321 0.1664 0.6507 0.1689 0.2186 0.5042 0.2186zm-0.8941 1.567v-0.462q0.1565 0.09192 0.3328 0.1416 0.1763 0.04713 0.3676 0.04713 0.4769 0 0.7203-0.3576 0.2459-0.3601 0.2459-1.058-0.1167 0.2484-0.3278 0.3825-0.2111 0.1316-0.4843 0.1316-0.5365 0-0.832-0.3303-0.2931-0.3303-0.2931-0.9363 0-0.5986 0.3005-0.9264 0.303-0.3303 0.8544-0.3303 0.6457 0 0.9463 0.4644 0.3005 0.4644 0.3005 1.46 0 0.9363-0.3626 1.431-0.3601 0.4918-1.048 0.4918-0.1813 0-0.3651-0.03978-0.1838-0.03722-0.3552-0.1093z" stroke-width=".1272"/>
        <g transform="matrix(1.066 0 0 1.066 -54.29 -14.22)" stroke-width=".1192">
            <path d="m108.1 104.1h0.7313v-2.657l-0.7872 0.177v-0.4286l0.7826-0.1724h0.4705v3.081h0.722v0.396h-1.919z"/>
            <path d="m111.5 102.7q0-0.1281 0.0885-0.2213 0.0908-0.0932 0.2166-0.0932 0.1304 0 0.2236 0.0932 0.0932 0.0932 0.0932 0.2213 0 0.1304-0.0932 0.2213-0.0908 0.0908-0.2236 0.0908-0.1304 0-0.2189-0.0885-0.0862-0.0885-0.0862-0.2236zm0.3098-1.421q-0.3284 0-0.4914 0.354-0.1607 0.354-0.1607 1.078 0 0.722 0.1607 1.076 0.163 0.354 0.4914 0.354 0.3307 0 0.4914-0.354 0.163-0.354 0.163-1.076 0-0.7243-0.163-1.078-0.1607-0.354-0.4914-0.354zm0-0.3726q0.5566 0 0.8408 0.4565 0.2865 0.4565 0.2865 1.349 0 0.8897-0.2865 1.346-0.2841 0.4565-0.8408 0.4565t-0.8408-0.4565q-0.2841-0.4565-0.2841-1.346 0-0.892 0.2841-1.349 0.2842-0.4565 0.8408-0.4565z"/>
        </g>
        <g transform="matrix(1.066 0 0 1.066 -67.85 -14.22)" stroke-width=".1192">
            <path d="m105.3 110h0.7313v-2.657l-0.7872 0.177v-0.4286l0.7826-0.1724h0.4705v3.081h0.722v0.3959h-1.919z"/>
            <path d="m108.1 110h0.7313v-2.657l-0.7872 0.177v-0.4286l0.7826-0.1724h0.4705v3.081h0.722v0.3959h-1.919z"/>
        </g>
        <g transform="matrix(1.066 0 0 1.066 -57.35 -14.22)" stroke-width=".1192">
            <path d="m111 110h0.7313v-2.657l-0.7872 0.177v-0.4286l0.7826-0.1724h0.4705v3.081h0.722v0.3959h-1.919z"/>
            <path d="m114.1 110h1.598v0.3959h-2.112v-0.3959q0.4355-0.4588 0.7616-0.8105t0.4495-0.4961q0.2329-0.2842 0.3144-0.4588 0.0815-0.177 0.0815-0.361 0-0.2911-0.1724-0.4565-0.17-0.1654-0.4681-0.1654-0.212 0-0.4448 0.0769-0.2329 0.0769-0.4938 0.2329v-0.4751q0.2399-0.1141 0.4705-0.1724 0.2329-0.0582 0.4588-0.0582 0.5101 0 0.8198 0.2725 0.3121 0.2702 0.3121 0.7104 0 0.2236-0.1048 0.4472-0.1025 0.2236-0.3354 0.4938-0.1304 0.1514-0.3796 0.4192-0.2469 0.2678-0.7546 0.8012z"/>
        </g>
        <g transform="matrix(1.066 0 0 1.066 -67.81 -14.22)" stroke-width=".1192">
            <path d="m105.3 116h0.7313v-2.657l-0.7872 0.177v-0.4286l0.7826-0.1724h0.4705v3.081h0.722v0.396h-1.919z"/>
            <path d="m109.3 114.5q0.3424 0.0908 0.524 0.3237 0.1817 0.2306 0.1817 0.5776 0 0.4798-0.3237 0.7546-0.3214 0.2725-0.892 0.2725-0.2399 0-0.4891-0.0443-0.2492-0.0442-0.4891-0.1281v-0.4681q0.2376 0.1234 0.4681 0.184 0.2306 0.0606 0.4588 0.0606 0.3866 0 0.5939-0.1747t0.2073-0.5031q0-0.3028-0.2073-0.4798-0.2073-0.1793-0.5613-0.1793h-0.3587v-0.3866h0.3587q0.3237 0 0.5054-0.1421t0.1817-0.3959q0-0.2678-0.17-0.4099-0.1677-0.1444-0.4798-0.1444-0.2073 0-0.4286 0.0466t-0.4635 0.1398v-0.4332q0.2818-0.0745 0.5008-0.1118 0.2213-0.0373 0.3913-0.0373 0.5077 0 0.8105 0.2562 0.3051 0.2539 0.3051 0.6754 0 0.2865-0.1607 0.4775-0.1584 0.191-0.4635 0.2702z"/>
        </g>
        <g transform="matrix(1.066 0 0 1.066 -57.35 -14.22)" stroke-width=".1192">
            <path d="m111 116h0.7313v-2.657l-0.7872 0.177v-0.4286l0.7826-0.1724h0.4705v3.081h0.722v0.396h-1.919z"/>
            <path d="m115 113.3-1.097 1.838h1.097zm-0.0769-0.4286h0.545v2.266h0.4635v0.382h-0.4635v0.8292h-0.4682v-0.8292h-1.474v-0.4449z"/>
        </g>
        <g transform="matrix(1.066 0 0 1.066 -67.78 -14.22)" stroke-width=".1192">
            <path d="m105.3 122h0.7313v-2.657l-0.7872 0.177v-0.4286l0.7826-0.1724h0.4705v3.081h0.722v0.3959h-1.919z"/>
            <path d="m108 118.9h1.761v0.3959h-1.332v0.8548q0.1002-0.0373 0.2003-0.0536 0.1025-0.0186 0.205-0.0186 0.5403 0 0.8571 0.3191 0.3168 0.3191 0.3168 0.8641 0 0.5497-0.3331 0.8664-0.3307 0.3168-0.906 0.3168-0.2772 0-0.5077-0.0373-0.2282-0.0373-0.4099-0.1118v-0.4775q0.2143 0.1165 0.4309 0.1747 0.2166 0.0559 0.4425 0.0559 0.389 0 0.5986-0.205 0.212-0.205 0.212-0.5823 0-0.3726-0.2189-0.5799-0.2166-0.2073-0.6056-0.2073-0.1887 0-0.368 0.0442-0.1793 0.0419-0.3424 0.1281z"/>
        </g>
        <g transform="matrix(1.066 0 0 1.066 -57.35 -14.22)" stroke-width=".1192">
            <path d="m111 122h0.7313v-2.657l-0.7872 0.177v-0.4286l0.7826-0.1724h0.4705v3.081h0.722v0.3959h-1.919z"/>
            <path d="m115.6 119v0.4332q-0.1467-0.0862-0.3121-0.1304-0.1654-0.0466-0.3447-0.0466-0.4472 0-0.6778 0.3377-0.2306 0.3354-0.2306 0.9899 0.1118-0.2329 0.3098-0.3564 0.198-0.1258 0.4542-0.1258 0.5031 0 0.7779 0.3098 0.2772 0.3074 0.2772 0.8734 0 0.5636-0.2841 0.8734-0.2842 0.3098-0.7989 0.3098-0.6056 0-0.8874-0.4332-0.2818-0.4355-0.2818-1.37 0-0.8804 0.3377-1.342 0.34-0.4635 0.9829-0.4635 0.1724 0 0.3447 0.0373 0.1724 0.0349 0.3331 0.1025zm-0.8385 1.47q-0.3004 0-0.4728 0.2166-0.1724 0.2166-0.1724 0.5986 0 0.382 0.1724 0.5986 0.1724 0.2166 0.4728 0.2166 0.3121 0 0.4705-0.205 0.1584-0.2073 0.1584-0.6102 0-0.4053-0.1584-0.6102-0.1584-0.205-0.4705-0.205z"/>
        </g>
        <g transform="matrix(1.066 0 0 1.066 -67.81 -14.22)" stroke-width=".1192">
            <path d="m105.3 127.9h0.7313v-2.657l-0.7872 0.177v-0.4286l0.7826-0.1724h0.4705v3.081h0.722v0.3959h-1.919z"/>
            <path d="m107.8 124.8h2.189v0.2003l-1.244 3.277h-0.4914l1.211-3.081h-1.665z"/>
        </g>
        <g transform="matrix(1.066 0 0 1.066 -57.35 -14.22)" stroke-width=".1192">
            <path d="m111 127.9h0.7313v-2.657l-0.7872 0.177v-0.4286l0.7826-0.1724h0.4705v3.081h0.722v0.3959h-1.919z"/>
            <path d="m114.7 126.7q-0.3144 0-0.4868 0.177-0.17 0.1747-0.17 0.4961t0.1724 0.5008q0.1747 0.177 0.4844 0.177 0.3168 0 0.4868-0.1747 0.1724-0.177 0.1724-0.5031 0-0.3191-0.1747-0.4961-0.1724-0.177-0.4844-0.177zm-0.4099-0.1956q-0.3004-0.0769-0.4705-0.2865-0.1677-0.2096-0.1677-0.5054 0-0.4146 0.2818-0.6568 0.2818-0.2446 0.7663-0.2446 0.4868 0 0.7686 0.2446 0.2818 0.2422 0.2818 0.6568 0 0.2958-0.17 0.5054-0.1677 0.2096-0.4681 0.2865 0.3494 0.0769 0.5334 0.3098 0.1863 0.2329 0.1863 0.6032 0 0.4705-0.3004 0.736-0.3004 0.2655-0.8315 0.2655-0.531 0-0.8315-0.2632-0.2981-0.2655-0.2981-0.7337 0-0.3726 0.184-0.6056 0.1863-0.2352 0.5357-0.3121zm-0.17-0.7476q0 0.2795 0.1491 0.4262 0.1491 0.1467 0.4309 0.1467 0.2842 0 0.4332-0.1467t0.1491-0.4262q0-0.2842-0.1491-0.4332-0.1467-0.1491-0.4332-0.1491-0.2818 0-0.4309 0.1514-0.1491 0.1491-0.1491 0.4309z"/>
        </g>
        <g transform="matrix(1.066 0 0 1.066 -67.85 -14.22)" stroke-width=".1192">
            <path d="m105.3 133.9h0.7313v-2.657l-0.7872 0.177v-0.4286l0.7826-0.1724h0.4705v3.081h0.722v0.3959h-1.919z"/>
            <path d="m108.9 132.8q0.3004 0 0.4705-0.2166 0.1724-0.2166 0.1724-0.5986t-0.1724-0.5986q-0.17-0.2166-0.4705-0.2166-0.3121 0-0.4705 0.2073-0.1584 0.205-0.1584 0.6079 0 0.4053 0.156 0.6102 0.1584 0.205 0.4728 0.205zm-0.8385 1.47v-0.4332q0.1467 0.0862 0.3121 0.1328 0.1654 0.0443 0.3447 0.0443 0.4472 0 0.6754-0.3354 0.2306-0.3377 0.2306-0.9922-0.1095 0.2329-0.3074 0.3587-0.198 0.1234-0.4542 0.1234-0.5031 0-0.7802-0.3098-0.2748-0.3098-0.2748-0.8781 0-0.5613 0.2818-0.8687 0.2842-0.3098 0.8012-0.3098 0.6056 0 0.8874 0.4355t0.2818 1.369q0 0.8781-0.34 1.342-0.3377 0.4612-0.9829 0.4612-0.17 0-0.3424-0.0373-0.1724-0.0349-0.3331-0.1025z"/>
        </g>
        <g transform="matrix(1.066 0 0 1.066 -57.35 -14.22)" stroke-width=".1192">
            <path d="m111.3 133.9h1.598v0.3959h-2.112v-0.3959q0.4355-0.4588 0.7616-0.8105t0.4495-0.4961q0.2329-0.2842 0.3144-0.4588 0.0815-0.177 0.0815-0.361 0-0.2911-0.1724-0.4565-0.17-0.1654-0.4682-0.1654-0.2119 0-0.4448 0.0769t-0.4938 0.2329v-0.4751q0.2399-0.1141 0.4705-0.1724 0.2329-0.0582 0.4588-0.0582 0.5101 0 0.8198 0.2725 0.3121 0.2702 0.3121 0.7104 0 0.2236-0.1048 0.4472-0.1025 0.2236-0.3354 0.4938-0.1304 0.1514-0.3796 0.4192-0.2469 0.2678-0.7546 0.8012z"/>
            <path d="m114.4 132.5q0-0.1281 0.0885-0.2213 0.0908-0.0932 0.2166-0.0932 0.1304 0 0.2236 0.0932 0.0932 0.0932 0.0932 0.2213 0 0.1304-0.0932 0.2213-0.0908 0.0908-0.2236 0.0908-0.1304 0-0.2189-0.0885-0.0862-0.0885-0.0862-0.2236zm0.3098-1.421q-0.3284 0-0.4914 0.354-0.1607 0.354-0.1607 1.078 0 0.722 0.1607 1.076 0.163 0.354 0.4914 0.354 0.3307 0 0.4914-0.354 0.163-0.354 0.163-1.076 0-0.7243-0.163-1.078-0.1607-0.354-0.4914-0.354zm0-0.3726q0.5566 0 0.8408 0.4565 0.2865 0.4565 0.2865 1.349 0 0.8897-0.2865 1.346-0.2842 0.4565-0.8408 0.4565-0.5566 0-0.8408-0.4565t-0.2842-1.346q0-0.892 0.2842-1.349t0.8408-0.4565z"/>
        </g>
        <g stroke-width=".1284" aria-label="Trace CLK Trace D0 Trace D1 Trace D2 Trace D3">
            <path d="m70.49 99.54h2.856v0.4263h-1.171v3.318h-0.509v-3.318h-1.176z"/>
            <path d="m76.36 101.1q-0.1479-0.1154-0.3009-0.168-0.153-0.0527-0.336-0.0527-0.4313 0-0.6595 0.2708t-0.2282 0.7824v1.397h-0.4639v-2.808h0.4639v0.5492q0.1153-0.2984 0.3536-0.4564 0.2407-0.1605 0.5692-0.1605 0.1705 0 0.3185 0.0426 0.1479 0.0426 0.2834 0.1329z"/>
            <path d="m78.32 101.9h-0.153q-0.4037 0-0.6093 0.1429-0.2031 0.1404-0.2031 0.4213 0 0.2533 0.153 0.3937 0.153 0.1404 0.4238 0.1404 0.3812 0 0.5993-0.2633 0.2182-0.2658 0.2207-0.7322v-0.1028zm0.8952-0.1906v1.602h-0.4639v-0.4163q-0.1479 0.2508-0.3736 0.3711-0.2232 0.1179-0.5441 0.1179-0.4288 0-0.6846-0.2407-0.2558-0.2432-0.2558-0.6495 0-0.4689 0.3134-0.7122 0.316-0.2432 0.9253-0.2432h0.6194v-0.0727q-0.0025-0.336-0.1705-0.4865-0.168-0.153-0.5366-0.153-0.2357 0-0.4764 0.0677-0.2407 0.0677-0.4689 0.1981v-0.4614q0.2558-0.0978 0.489-0.1454 0.2357-0.0502 0.4564-0.0502 0.3486 0 0.5943 0.1028 0.2482 0.1028 0.4012 0.3084 0.09529 0.1254 0.1354 0.3109 0.04012 0.183 0.04012 0.5517z"/>
            <path d="m82.31 103.1q-0.1856 0.1078-0.3837 0.1605-0.1956 0.0552-0.4012 0.0552-0.652 0-1.021-0.3912-0.3661-0.3912-0.3661-1.083t0.3661-1.083q0.3686-0.3912 1.021-0.3912 0.2031 0 0.3962 0.0526 0.1931 0.0527 0.3887 0.163v0.484q-0.1831-0.163-0.3686-0.2357-0.1831-0.0727-0.4163-0.0727-0.4338 0-0.667 0.2808-0.2332 0.2808-0.2332 0.8024 0 0.5191 0.2332 0.8024 0.2357 0.2808 0.667 0.2808 0.2407 0 0.4313-0.0727 0.1906-0.0752 0.3536-0.2307z"/>
            <path d="m85.53 101.8v0.2257h-1.999v0.015q0 0.4589 0.2382 0.7096 0.2407 0.2508 0.677 0.2508 0.2207 0 0.4614-0.0702 0.2407-0.0702 0.5141-0.2131v0.4589q-0.2633 0.1078-0.509 0.1605-0.2432 0.0552-0.4714 0.0552-0.6545 0-1.023-0.3912-0.3686-0.3937-0.3686-1.083 0-0.672 0.3611-1.073t0.9629-0.4012q0.5366 0 0.8451 0.3636 0.3109 0.3636 0.3109 0.993zm-0.4614-0.1354q-0.01003-0.4062-0.1931-0.6169-0.1805-0.2131-0.5216-0.2131-0.3335 0-0.5492 0.2207-0.2157 0.2207-0.2558 0.6118z"/>
            <path d="m91.61 103.1q-0.1931 0.1028-0.3962 0.153-0.2031 0.0527-0.4313 0.0527-0.7197 0-1.118-0.509-0.3962-0.509-0.3962-1.432 0-0.9178 0.3987-1.429 0.4012-0.5141 1.116-0.5141 0.2282 0 0.4313 0.05266 0.2031 0.05015 0.3962 0.153v0.5191q-0.1856-0.153-0.3987-0.2332-0.2131-0.08024-0.4288-0.08024-0.494 0-0.7397 0.3811-0.2457 0.3812-0.2457 1.151 0 0.7673 0.2457 1.148 0.2457 0.3812 0.7397 0.3812 0.2207 0 0.4313-0.0802 0.2131-0.0802 0.3962-0.2332z"/>
            <path d="m92.55 99.54h0.509v3.318h1.808v0.4263h-2.317z"/>
            <path d="m95.45 99.54h0.509v1.665l1.582-1.665h0.5943l-1.457 1.53 1.5 2.214h-0.6118l-1.221-1.876-0.3862 0.4112v1.464h-0.509z"/>
            <path d="m70.49 106h2.856v0.4263h-1.171v3.318h-0.509v-3.318h-1.176z"/>
            <path d="m76.36 107.5q-0.1479-0.1154-0.3009-0.168-0.153-0.0526-0.336-0.0526-0.4313 0-0.6595 0.2708-0.2282 0.2708-0.2282 0.7824v1.397h-0.4639v-2.808h0.4639v0.5492q0.1153-0.2984 0.3536-0.4564 0.2407-0.1605 0.5692-0.1605 0.1705 0 0.3185 0.0426 0.1479 0.0426 0.2834 0.1329z"/>
            <path d="m78.32 108.3h-0.153q-0.4037 0-0.6093 0.1429-0.2031 0.1404-0.2031 0.4213 0 0.2533 0.153 0.3937 0.153 0.1404 0.4238 0.1404 0.3812 0 0.5993-0.2633 0.2182-0.2658 0.2207-0.7322v-0.1028zm0.8952-0.1906v1.602h-0.4639v-0.4163q-0.1479 0.2508-0.3736 0.3711-0.2232 0.1179-0.5441 0.1179-0.4288 0-0.6846-0.2407-0.2558-0.2432-0.2558-0.6495 0-0.4689 0.3134-0.7122 0.316-0.2432 0.9253-0.2432h0.6194v-0.0727q-0.0025-0.336-0.1705-0.4865-0.168-0.153-0.5366-0.153-0.2357 0-0.4764 0.0677-0.2407 0.0677-0.4689 0.1981v-0.4614q0.2558-0.0978 0.489-0.1454 0.2357-0.0502 0.4564-0.0502 0.3486 0 0.5943 0.1028 0.2482 0.1028 0.4012 0.3084 0.09529 0.1254 0.1354 0.3109 0.04012 0.183 0.04012 0.5517z"/>
            <path d="m82.31 109.6q-0.1856 0.1078-0.3837 0.1605-0.1956 0.0552-0.4012 0.0552-0.652 0-1.021-0.3912-0.3661-0.3912-0.3661-1.083t0.3661-1.083q0.3686-0.3912 1.021-0.3912 0.2031 0 0.3962 0.0527 0.1931 0.0527 0.3887 0.163v0.484q-0.1831-0.163-0.3686-0.2357-0.1831-0.0727-0.4163-0.0727-0.4338 0-0.667 0.2808-0.2332 0.2808-0.2332 0.8024 0 0.5191 0.2332 0.8024 0.2357 0.2808 0.667 0.2808 0.2407 0 0.4313-0.0727 0.1906-0.0752 0.3536-0.2307z"/>
            <path d="m85.53 108.2v0.2257h-1.999v0.015q0 0.4589 0.2382 0.7096 0.2407 0.2508 0.677 0.2508 0.2207 0 0.4614-0.0702 0.2407-0.0702 0.5141-0.2131v0.4589q-0.2633 0.1078-0.509 0.1605-0.2432 0.0552-0.4714 0.0552-0.6545 0-1.023-0.3912-0.3686-0.3937-0.3686-1.083 0-0.672 0.3611-1.073t0.9629-0.4012q0.5366 0 0.8451 0.3636 0.3109 0.3636 0.3109 0.993zm-0.4614-0.1354q-0.01003-0.4062-0.1931-0.6169-0.1805-0.2131-0.5216-0.2131-0.3335 0-0.5492 0.2207-0.2157 0.2207-0.2558 0.6118z"/>
            <path d="m90.02 109.3q0.6394 0 0.8927-0.3134 0.2533-0.316 0.2533-1.138 0-0.83-0.2533-1.143-0.2508-0.316-0.8927-0.316h-0.2407v2.911zm0.01003-3.328q0.8576 0 1.264 0.4564 0.4062 0.4564 0.4062 1.419 0 0.9579-0.4062 1.414-0.4062 0.4539-1.264 0.4539h-0.7598v-3.744z"/>
            <path d="m93.23 107.8q0-0.1379 0.09529-0.2382 0.09779-0.1003 0.2332-0.1003 0.1404 0 0.2407 0.1003 0.1003 0.1003 0.1003 0.2382 0 0.1404-0.1003 0.2382-0.0978 0.0978-0.2407 0.0978-0.1404 0-0.2357-0.0953-0.09278-0.0953-0.09278-0.2407zm0.3335-1.53q-0.3536 0-0.5291 0.3812-0.173 0.3812-0.173 1.161 0 0.7774 0.173 1.158 0.1755 0.3812 0.5291 0.3812 0.3561 0 0.5291-0.3812 0.1755-0.3812 0.1755-1.158 0-0.7798-0.1755-1.161-0.173-0.3812-0.5291-0.3812zm0-0.4012q0.5993 0 0.9052 0.4915 0.3084 0.4915 0.3084 1.452 0 0.9579-0.3084 1.449-0.3059 0.4915-0.9052 0.4915-0.5993 0-0.9052-0.4915-0.3059-0.4915-0.3059-1.449 0-0.9604 0.3059-1.452 0.3059-0.4915 0.9052-0.4915z"/>
            <path d="m70.49 112.4h2.856v0.4263h-1.171v3.318h-0.509v-3.318h-1.176z"/>
            <path d="m76.36 113.9q-0.1479-0.1153-0.3009-0.168-0.153-0.0527-0.336-0.0527-0.4313 0-0.6595 0.2708-0.2282 0.2708-0.2282 0.7824v1.397h-0.4639v-2.808h0.4639v0.5492q0.1153-0.2984 0.3536-0.4564 0.2407-0.1605 0.5692-0.1605 0.1705 0 0.3185 0.0426 0.1479 0.0426 0.2834 0.1329z"/>
            <path d="m78.32 114.7h-0.153q-0.4037 0-0.6093 0.1429-0.2031 0.1404-0.2031 0.4213 0 0.2533 0.153 0.3937 0.153 0.1404 0.4238 0.1404 0.3812 0 0.5993-0.2633 0.2182-0.2658 0.2207-0.7322v-0.1028zm0.8952-0.1906v1.602h-0.4639v-0.4163q-0.1479 0.2508-0.3736 0.3711-0.2232 0.1178-0.5441 0.1178-0.4288 0-0.6846-0.2407-0.2558-0.2432-0.2558-0.6495 0-0.4689 0.3134-0.7122 0.316-0.2432 0.9253-0.2432h0.6194v-0.0727q-0.0025-0.336-0.1705-0.4865-0.168-0.153-0.5366-0.153-0.2357 0-0.4764 0.0677-0.2407 0.0677-0.4689 0.1981v-0.4614q0.2558-0.0978 0.489-0.1454 0.2357-0.0502 0.4564-0.0502 0.3486 0 0.5943 0.1028 0.2482 0.1028 0.4012 0.3084 0.09529 0.1254 0.1354 0.3109 0.04012 0.1831 0.04012 0.5517z"/>
            <path d="m82.31 116q-0.1856 0.1078-0.3837 0.1605-0.1956 0.0552-0.4012 0.0552-0.652 0-1.021-0.3912-0.3661-0.3912-0.3661-1.083 0-0.6921 0.3661-1.083 0.3686-0.3912 1.021-0.3912 0.2031 0 0.3962 0.0527 0.1931 0.0527 0.3887 0.163v0.484q-0.1831-0.163-0.3686-0.2357-0.1831-0.0727-0.4163-0.0727-0.4338 0-0.667 0.2808-0.2332 0.2808-0.2332 0.8024 0 0.5191 0.2332 0.8024 0.2357 0.2808 0.667 0.2808 0.2407 0 0.4313-0.0727 0.1906-0.0752 0.3536-0.2307z"/>
            <path d="m85.53 114.6v0.2257h-1.999v0.0151q0 0.4589 0.2382 0.7096 0.2407 0.2508 0.677 0.2508 0.2207 0 0.4614-0.0702 0.2407-0.0702 0.5141-0.2132v0.4589q-0.2633 0.1078-0.509 0.1605-0.2432 0.0552-0.4714 0.0552-0.6545 0-1.023-0.3912-0.3686-0.3937-0.3686-1.083 0-0.672 0.3611-1.073t0.9629-0.4012q0.5366 0 0.8451 0.3636 0.3109 0.3636 0.3109 0.993zm-0.4614-0.1354q-0.01003-0.4062-0.1931-0.6169-0.1805-0.2132-0.5216-0.2132-0.3335 0-0.5492 0.2207t-0.2558 0.6118z"/>
            <path d="m90.02 115.7q0.6394 0 0.8927-0.3134 0.2533-0.316 0.2533-1.138 0-0.83-0.2533-1.143-0.2508-0.316-0.8927-0.316h-0.2407v2.911zm0.01003-3.328q0.8576 0 1.264 0.4564 0.4062 0.4564 0.4062 1.419 0 0.9579-0.4062 1.414-0.4062 0.4539-1.264 0.4539h-0.7598v-3.744z"/>
            <path d="m92.69 115.7h0.7874v-2.861l-0.8476 0.1906v-0.4614l0.8425-0.1856h0.5065v3.318h0.7773v0.4263h-2.066z"/>
            <path d="m70.49 118.8h2.856v0.4263h-1.171v3.318h-0.509v-3.318h-1.176z"/>
            <path d="m76.36 120.3q-0.1479-0.1154-0.3009-0.168-0.153-0.0527-0.336-0.0527-0.4313 0-0.6595 0.2708t-0.2282 0.7824v1.397h-0.4639v-2.808h0.4639v0.5492q0.1153-0.2984 0.3536-0.4564 0.2407-0.1605 0.5692-0.1605 0.1705 0 0.3185 0.0426 0.1479 0.0426 0.2834 0.1329z"/>
            <path d="m78.32 121.1h-0.153q-0.4037 0-0.6093 0.1429-0.2031 0.1404-0.2031 0.4213 0 0.2533 0.153 0.3937 0.153 0.1404 0.4238 0.1404 0.3812 0 0.5993-0.2633 0.2182-0.2658 0.2207-0.7322v-0.1028zm0.8952-0.1906v1.602h-0.4639v-0.4162q-0.1479 0.2508-0.3736 0.3711-0.2232 0.1178-0.5441 0.1178-0.4288 0-0.6846-0.2407-0.2558-0.2432-0.2558-0.6495 0-0.4689 0.3134-0.7122 0.316-0.2432 0.9253-0.2432h0.6194v-0.0727q-0.0025-0.336-0.1705-0.4865-0.168-0.153-0.5366-0.153-0.2357 0-0.4764 0.0677-0.2407 0.0677-0.4689 0.1981v-0.4614q0.2558-0.0978 0.489-0.1454 0.2357-0.0501 0.4564-0.0501 0.3486 0 0.5943 0.1028 0.2482 0.1028 0.4012 0.3084 0.09529 0.1254 0.1354 0.3109 0.04012 0.1831 0.04012 0.5517z"/>
            <path d="m82.31 122.4q-0.1856 0.1078-0.3837 0.1605-0.1956 0.0552-0.4012 0.0552-0.652 0-1.021-0.3912-0.3661-0.3912-0.3661-1.083t0.3661-1.083q0.3686-0.3912 1.021-0.3912 0.2031 0 0.3962 0.0527 0.1931 0.0527 0.3887 0.163v0.484q-0.1831-0.163-0.3686-0.2357-0.1831-0.0727-0.4163-0.0727-0.4338 0-0.667 0.2808-0.2332 0.2808-0.2332 0.8024 0 0.5191 0.2332 0.8024 0.2357 0.2808 0.667 0.2808 0.2407 0 0.4313-0.0727 0.1906-0.0752 0.3536-0.2307z"/>
            <path d="m85.53 121v0.2257h-1.999v0.0151q0 0.4589 0.2382 0.7096 0.2407 0.2508 0.677 0.2508 0.2207 0 0.4614-0.0702 0.2407-0.0702 0.5141-0.2131v0.4589q-0.2633 0.1078-0.509 0.1605-0.2432 0.0552-0.4714 0.0552-0.6545 0-1.023-0.3912-0.3686-0.3937-0.3686-1.083 0-0.672 0.3611-1.073 0.3611-0.4012 0.9629-0.4012 0.5366 0 0.8451 0.3636 0.3109 0.3636 0.3109 0.993zm-0.4614-0.1354q-0.01003-0.4062-0.1931-0.6169-0.1805-0.2132-0.5216-0.2132-0.3335 0-0.5492 0.2207t-0.2558 0.6118z"/>
            <path d="m90.02 122.1q0.6394 0 0.8927-0.3134 0.2533-0.316 0.2533-1.138 0-0.83-0.2533-1.143-0.2508-0.316-0.8927-0.316h-0.2407v2.911zm0.01003-3.328q0.8576 0 1.264 0.4564 0.4062 0.4564 0.4062 1.419 0 0.9579-0.4062 1.414-0.4062 0.4539-1.264 0.4539h-0.7598v-3.744z"/>
            <path d="m92.95 122.1h1.72v0.4263h-2.274v-0.4263q0.4689-0.494 0.82-0.8726 0.3511-0.3786 0.484-0.5341 0.2508-0.3059 0.3385-0.494 0.08777-0.1906 0.08777-0.3887 0-0.3134-0.1856-0.4915-0.1831-0.178-0.504-0.178-0.2282 0-0.4789 0.0827-0.2508 0.0828-0.5316 0.2508v-0.5115q0.2583-0.1229 0.5065-0.1856 0.2508-0.0627 0.494-0.0627 0.5492 0 0.8827 0.2934 0.336 0.2909 0.336 0.7648 0 0.2407-0.1128 0.4815-0.1103 0.2407-0.3611 0.5316-0.1404 0.163-0.4087 0.4514-0.2658 0.2884-0.8125 0.8626z"/>
            <path d="m70.49 125.2h2.856v0.4263h-1.171v3.318h-0.509v-3.318h-1.176z"/>
            <path d="m76.36 126.8q-0.1479-0.1154-0.3009-0.168-0.153-0.0527-0.336-0.0527-0.4313 0-0.6595 0.2708t-0.2282 0.7824v1.397h-0.4639v-2.808h0.4639v0.5492q0.1153-0.2984 0.3536-0.4564 0.2407-0.1605 0.5692-0.1605 0.1705 0 0.3185 0.0426 0.1479 0.0426 0.2834 0.1329z"/>
            <path d="m78.32 127.6h-0.153q-0.4037 0-0.6093 0.1429-0.2031 0.1404-0.2031 0.4213 0 0.2533 0.153 0.3937 0.153 0.1404 0.4238 0.1404 0.3812 0 0.5993-0.2633 0.2182-0.2658 0.2207-0.7322v-0.1028zm0.8952-0.1906v1.602h-0.4639v-0.4163q-0.1479 0.2508-0.3736 0.3711-0.2232 0.1179-0.5441 0.1179-0.4288 0-0.6846-0.2407-0.2558-0.2432-0.2558-0.6495 0-0.4689 0.3134-0.7122 0.316-0.2432 0.9253-0.2432h0.6194v-0.0727q-0.0025-0.336-0.1705-0.4865-0.168-0.153-0.5366-0.153-0.2357 0-0.4764 0.0677-0.2407 0.0677-0.4689 0.1981v-0.4614q0.2558-0.0978 0.489-0.1454 0.2357-0.0502 0.4564-0.0502 0.3486 0 0.5943 0.1028 0.2482 0.1028 0.4012 0.3084 0.09529 0.1254 0.1354 0.3109 0.04012 0.183 0.04012 0.5517z"/>
            <path d="m82.31 128.8q-0.1856 0.1078-0.3837 0.1605-0.1956 0.0552-0.4012 0.0552-0.652 0-1.021-0.3912-0.3661-0.3912-0.3661-1.083t0.3661-1.083q0.3686-0.3912 1.021-0.3912 0.2031 0 0.3962 0.0527 0.1931 0.0527 0.3887 0.163v0.484q-0.1831-0.163-0.3686-0.2357-0.1831-0.0727-0.4163-0.0727-0.4338 0-0.667 0.2808-0.2332 0.2808-0.2332 0.8024 0 0.5191 0.2332 0.8024 0.2357 0.2808 0.667 0.2808 0.2407 0 0.4313-0.0727 0.1906-0.0752 0.3536-0.2307z"/>
            <path d="m85.53 127.5v0.2257h-1.999v0.015q0 0.4589 0.2382 0.7096 0.2407 0.2508 0.677 0.2508 0.2207 0 0.4614-0.0702 0.2407-0.0702 0.5141-0.2131v0.4589q-0.2633 0.1078-0.509 0.1605-0.2432 0.0552-0.4714 0.0552-0.6545 0-1.023-0.3912-0.3686-0.3937-0.3686-1.083 0-0.672 0.3611-1.073 0.3611-0.4012 0.9629-0.4012 0.5366 0 0.8451 0.3636 0.3109 0.3636 0.3109 0.993zm-0.4614-0.1354q-0.01003-0.4062-0.1931-0.6169-0.1805-0.2131-0.5216-0.2131-0.3335 0-0.5492 0.2207-0.2157 0.2207-0.2558 0.6118z"/>
            <path d="m90.02 128.6q0.6394 0 0.8927-0.3134 0.2533-0.316 0.2533-1.138 0-0.83-0.2533-1.143-0.2508-0.316-0.8927-0.316h-0.2407v2.911zm0.01003-3.328q0.8576 0 1.264 0.4564 0.4062 0.4564 0.4062 1.419 0 0.9579-0.4062 1.414-0.4062 0.4539-1.264 0.4539h-0.7598v-3.744z"/>
            <path d="m93.96 127q0.3686 0.0978 0.5642 0.3486 0.1956 0.2482 0.1956 0.6219 0 0.5166-0.3486 0.8125-0.346 0.2934-0.9604 0.2934-0.2583 0-0.5266-0.0477-0.2683-0.0476-0.5266-0.1379v-0.504q0.2558 0.1329 0.504 0.1981t0.494 0.0652q0.4163 0 0.6394-0.1881 0.2232-0.1881 0.2232-0.5416 0-0.326-0.2232-0.5166-0.2232-0.1931-0.6043-0.1931h-0.3862v-0.4163h0.3862q0.3486 0 0.5441-0.153t0.1956-0.4263q0-0.2884-0.1831-0.4413-0.1805-0.1555-0.5166-0.1555-0.2232 0-0.4614 0.0502t-0.499 0.1504v-0.4664q0.3034-0.0802 0.5391-0.1204 0.2382-0.0401 0.4213-0.0401 0.5467 0 0.8726 0.2758 0.3285 0.2733 0.3285 0.7272 0 0.3084-0.173 0.514-0.1705 0.2056-0.499 0.2909z"/>
        </g>
    </g>
</svg>
