<?xml version="1.0" encoding="UTF-8"?>
<svg width="1588pt" height="1027pt" version="1.1" viewBox="0 0 1588 1027" xmlns="http://www.w3.org/2000/svg">
    <path d="m644.9 372.7c-1.718-5e-3 -3.411 0.6465-4.676 1.802l-0.036 0.036-0.0267 0.032c-5.415 8.211-3.65 18.53-4.067 27.61v0.0307l5e-3 0.036c0.5372 3.755-0.6398 6.572-2.041 9.388-1.338 2.709-2.838 5.441-3.166 8.858-0.6505-0.0307-1.38-0.4066-2.145-1.041-0.8544-0.7185-1.709-1.661-2.537-2.39-0.4159-0.3652-0.8225-0.6825-1.244-0.8958-0.4226-0.2026-0.8744-0.3119-1.322-0.1826-0.4426 0.12-0.8278 0.4692-1.146 0.9998-0.3119 0.5319-0.5719 1.265-0.8011 2.259v0.0107l-5e-3 0.0107c-0.1773 0.9838-0.4479 1.494-0.6612 1.666-0.1093 0.084-0.188 0.1093-0.3132 0.104-0.124-5e-3 -0.2906-0.0573-0.4892-0.1666-0.7918-0.4426-1.948-1.786-3.119-3.103-1.177-1.317-2.374-2.634-3.655-3.03-0.6398-0.1933-1.338-0.1093-1.901 0.3746-0.5679 0.4786-1.005 1.292-1.38 2.525l-0.0107 0.052c-0.1773 1.12-0.4212 1.761-0.6145 1.996-0.0933 0.1146-0.1453 0.1293-0.2026 0.1346-0.0466 5e-3 -0.14-0.0107-0.2759-0.0933-0.2706-0.1666-0.6612-0.5785-1.068-1.109-0.4052-0.5265-0.8438-1.161-1.292-1.792-0.4572-0.6305-0.9264-1.249-1.416-1.745-0.4892-0.4892-0.9944-0.8744-1.584-0.9678-0.5932-0.0933-1.208 0.188-1.676 0.8225-0.4692 0.6252-0.8704 1.604-1.234 3.031-0.0107 0.02-0.0107 0.0253-0.0213 0.0466-1.869 3.42-2.91 8.414-3.852 12.99-0.4746 2.301-0.9278 4.494-1.437 6.296-0.4172 1.484-0.9171 2.442-1.428 3.227-5.515-12.58-2.885-26.95-6.181-40.34l-0.0147-0.0466c-1.322-3.38-1.313-9.384-2.281-14.42-0.4839-2.515-1.218-4.805-2.562-6.43-1.344-1.63-3.322-2.541-6.086-2.265l-0.0733 0.0147-0.068 0.0373c-5.384 2.931-8.378 7.737-10.09 13.12-1.714 5.388-2.166 11.36-2.505 16.73-0.2293 2.047-0.6465 7.17-1.589 10.62-0.2386 0.8651-0.5092 1.62-0.8065 2.182-0.2973 0.5679-0.6252 0.9158-0.9011 1.036s-0.5412 0.0986-0.9784-0.2493c-0.4372-0.3492-0.9798-1.037-1.573-2.125-0.3746-1.838-0.9211-2.942-1.693-3.483-0.7851-0.5519-1.733-0.4119-2.593 0.02-1.552 0.7865-3.067 2.427-4.254 3.436-0.3599-2.259-1.474-4.223-2.983-4.951-0.8345-0.4012-1.792-0.4066-2.614 0.1506-0.8238 0.5519-1.496 1.609-1.969 3.254v5e-3c-1.521 3.193-1.464 7.285-1.64 11.07-0.172 3.592-0.6105 6.81-2.526 8.81-3.578-6.076-1.822-14.05-2.317-21.14v-0.0267c-0.4279-3.368 0.12-7.622-0.032-11.59-0.156-3.978-1.046-7.743-4.456-9.971l-0.1626-0.1053-0.176 0.0626c-4.531 1.661-7.301 5.561-8.998 10.07-1.688 4.51-2.327 9.638-2.625 13.88-0.12 2.031-0.2239 5.368-0.2026 8.306 9e-3 1.473 0.0467 2.837 0.1346 3.899 0.0413 0.5319 0.0933 0.9851 0.1613 1.344 0.0733 0.3599 0.1093 0.6145 0.3332 0.8544l0.5105 0.5305 0.1306-0.7238c1.962-10.46 1.181-21.66 6.889-30.85 0.7238-0.9798 1.338-1.594 1.817-1.901 0.4785-0.3079 0.7705-0.3226 1.021-0.208 0.2546 0.1133 0.5199 0.4319 0.7492 0.9464 0.2293 0.5212 0.4119 1.22 0.5519 2.021 0.5625 3.207 0.4266 7.973 0.5159 10.03v9e-3c0.5519 8.874-0.7238 18.42 2.65 26.98l0.032 0.0933 0.0826 0.0627c1.229 0.9571 2.297 1.536 3.25 1.79 0.9571 0.2559 1.806 0.1773 2.509-0.1866 1.406-0.7345 2.166-2.469 2.641-4.546 0.9478-4.14 0.7292-9.863 0.9584-12.75 0.3852-1.514 0.7545-2.395 0.9944-2.697 0.124-0.1466 0.1506-0.1306 0.1453-0.1306-5e-3 0 0.084 0.0267 0.1973 0.1773 0.2346 0.3066 0.5319 0.9784 0.8185 1.776 0.2919 0.7971 0.5878 1.74 0.9104 2.625l0.0573 0.156 0.152 0.0626c1.322 0.5359 2.473 0.1453 3.358-0.5679 0.8904-0.7078 1.593-1.708 2.245-2.478 0.3226-0.3906 0.6345-0.7185 0.9211-0.9171 0.2866-0.2026 0.5159-0.2813 0.7558-0.2439 0.2386 0.0307 0.5412 0.192 0.9104 0.6145 0.3746 0.4212 0.8078 1.098 1.281 2.087l0.032 0.068 0.056 0.0466c1.125 1.021 2.157 1.625 3.13 1.874 0.9691 0.2506 1.874 0.12 2.65-0.3013 1.562-0.8438 2.625-2.75 3.406-5.036 1.578-4.562 2.016-10.73 2-13.68v-0.0147c0.6198-4.755 0.9118-10.22 2.234-15.09 1.297-4.828 3.592-9.05 8.149-11.6 0.9944 0.4066 1.765 1.224 2.365 2.401 0.6238 1.245 1.061 2.849 1.39 4.578 0.6558 3.442 0.8944 7.378 1.566 10.16 1.557 11.66 2.01 23.42 2.854 35.18v0.0213c0.3959 2.879 1.03 6.654 2.546 9.68 0.7505 1.52 1.729 2.853 3.021 3.775 1.292 0.9211 2.901 1.416 4.837 1.26l0.1973-0.016 0.0986-0.1706c2.094-3.734 2.709-8.077 3.255-12.45 0.5519-4.375 1.041-8.774 2.786-12.64l0.02-0.052 5e-3 -0.052c0.104-0.7398 0.2919-1.057 0.3119-1.088 0.0427 0.02 0.1053 0.0626 0.204 0.1666 0.4626 0.5052 1.177 1.806 1.978 3.041 0.8025 1.229 1.704 2.437 2.874 2.765 0.5892 0.1666 1.245 0.0573 1.838-0.3906 0.5945-0.4479 1.146-1.197 1.709-2.343l0.0253-0.0573 5e-3 -0.0573c0.1933-1.385 0.4372-2.306 0.6972-2.842 0.2613-0.5372 0.4639-0.6465 0.6878-0.6558 0.224-5e-3 0.5985 0.1653 1.036 0.5199 0.4386 0.3492 0.9331 0.8598 1.469 1.401 1.073 1.088 2.297 2.349 3.707 2.901 0.7132 0.2759 1.48 0.3639 2.261 0.124 0.7278-0.2239 1.446-0.7811 2.155-1.588 1.984-0.6038 4.076 0.1146 6.113 0.2706 1.025 0.084 2.046 5e-3 2.983-0.5305 0.9371-0.5212 1.76-1.485 2.447-3.062 3.963-6.582 4.103-13.9 3.972-21.25-0.124-7.269-0.4839-14.54 2.223-21.21 2.551-0.8011 4.364-0.4012 5.703 0.7971 1.374 1.224 2.27 3.306 2.765 5.759 0.9891 4.9 0.3959 11.21-0.5265 14.61-3.347 10.15-3.592 20.82-0.9678 31.14-0.3279 4.094 2.39 9.076 5.395 11.49 0.7598 0.6092 1.541 1.046 2.322 1.254 0.7811 0.208 1.573 0.1666 2.265-0.2079 1.38-0.7558 2.27-2.709 2.483-6.186 0.4172-3.301 0.12-7.196 0.3026-10.83 0.172-3.348 0.8118-6.4 2.671-8.597 0.6145 3.082 2.843 7.403 5.509 10.01 1.448 1.41 3.03 2.337 4.576 2.061 0.7758-0.1346 1.5-0.5825 2.125-1.358 0.6252-0.7651 1.15-1.849 1.588-3.307 0.5052-1.197 0.9798-1.828 1.318-2.03 0.1613-0.104 0.2813-0.1253 0.4052-0.0987 0.136 0.0253 0.2972 0.104 0.4852 0.2706 0.7332 0.6452 1.62 2.483 2.546 4.354 0.9318 1.869 1.921 3.775 3.254 4.696 0.6665 0.4639 1.474 0.6505 2.291 0.3692 0.8118-0.2813 1.614-0.9784 2.473-2.15l0.0107-5e-3c2.937-3.093 4.203-8.597 5.998-13.16 0.8904-2.291 1.912-4.343 3.265-5.733 1.329-1.364 2.963-2.093 5.223-1.91 3.25 3.019 3.291 7.446 3.39 11.99 0.048 2.297 0.1146 4.608 0.6718 6.744 0.5572 2.129 1.614 4.092 3.608 5.623l0.0893 0.0627 0.104 0.0107c2.573 0.2706 4.519-0.4012 5.941-1.677 1.421-1.27 2.327-3.109 2.967-5.155 1.292-4.103 1.553-9.112 2.499-12.37l0.0213-0.0573-5e-3 -0.0573c-0.0573-2.259 0.9224-5.848 1.89-7.482 0.2453-0.4066 0.4892-0.6825 0.6465-0.7865 0.0826-0.052 0.124-0.0573 0.1453-0.052 0.0213 0 0.036 0 0.0986 0.0627 0.1146 0.1133 0.3079 0.4786 0.4479 1.129 0.136 0.6358 0.2399 1.546 0.2866 2.755-0.7132 3.046-0.224 7.706 1.344 10.66 0.7958 1.484 1.91 2.582 3.347 2.655 1.438 0.0733 3.026-0.8798 4.78-3.13 1.073-1.15 1.677-2.239 1.876-3.191 0.2026-0.9584-0.016-1.808-0.5838-2.343-0.5679-0.5359-1.432-0.7238-2.39-0.5319-0.7918 0.1573-1.686 0.7398-2.582 1.428-0.4852-2.713-0.4946-6.978-1.406-10.5-0.4785-1.854-1.218-3.499-2.499-4.536-1.276-1.041-3.078-1.41-5.468-0.7905l-0.14 0.036-0.0787 0.1253c-5.165 7.894-4.769 18.21-7.998 26.78-0.3586 0.1506-0.6505 0.2026-0.8851 0.12-0.2599-0.0947-0.5145-0.3332-0.7492-0.7345-0.4746-0.7971-0.8131-2.193-1.016-3.775-0.4159-3.161-0.3746-7.072-0.5252-9.066 0.0413-2.994-0.9331-5.311-2.49-6.91-1.546-1.593-3.666-2.457-5.873-2.623-4.406-0.3239-9.242 2.166-10.97 7.305-0.5479 0.8904-1.057 2.421-1.625 4.187-0.5785 1.776-1.198 3.759-1.874 5.404-0.6825 1.641-1.469 2.933-2.141 3.313-0.3386 0.192-0.6092 0.2133-0.9838 0.0107-0.3706-0.1986-0.8331-0.6878-1.328-1.51-0.016-2.433-0.7238-4.13-1.901-5.103-1.202-0.9904-2.817-1.214-4.42-0.8904-2.911 0.5879-5.801 2.994-6.754 6.149-1.12-2.702-2.811-6.394-5.108-8.779-1.265-1.302-2.702-2.207-4.302-2.171-1.593 0.0307-3.249 1.01-4.893 3.229l-0.0267 0.036-0.0213 0.0466c-1.218 2.969-1.129 7.358-1.249 11.25-0.068 1.942-0.1773 3.764-0.4945 5.187-0.2653 1.166-0.7132 1.946-1.297 2.447-4.019-10.74-4.947-22.66-1.609-33.66l0.0107-0.0613c0.5679-4.52 1.177-10.6 0.224-15.94-0.4786-2.677-1.349-5.171-2.833-7.192-1.478-2.021-3.583-3.551-6.457-4.275z" stroke-width="1.333"/>
    <path d="m1144 471.2c-8.247 0-18.38 0.9691-31.51 2.901l-18.66 2.791 12 1.874c16.26 2.395 45.72 2.53 57.72 0.2653l9.598-1.734-8.931-3.197c-5.597-1.932-11.96-2.901-20.21-2.901z" fill="#fff" stroke-width="1.333"/>
    <path d="m1173 300.3c-3.53 0-6.696 0.4732-8.899 1.473-14.96 4.431-26.77 28.69-25.09 51.4-0.1346 11.33 0.1307 12.66 4.531 21.33 3.598 7.061 6.133 10.13 11.2 13.46 3.463 2.401 7.196 4.395 8.263 4.395 9.456-2.15 21.29 0.2506 29.86 0 0 0.8078 4.795 1.338 11.06 1.338 9.732 0 12-0.5305 20.39-4.53 5.203-2.541 9.868-5.597 10.4-6.93 2.265-5.998-2.135-22.27-10.8-39.87-10.66-21.59-20.35-32.06-33.17-38.32-4.999-2.415-17.76-3.738-17.76-3.738zm-96.8 2.874c-17.46 0-34.95 7.305-50.41 22.75-12.66 12.66-16.1 22.03-16.77 36.7-0.4012 9.46 0 11.6 2.394 15.6 5.067 8.127 19.2 14.4 36.66 16.13l9.202 1.068c7.357-2.738 18.74-2.926 27.18-3.067 4.666 0 12.53-11.87 18.8-27.86 3.598-9.331 4.4-21.99 2.401-37.72-1.204-9.064-6.269-16.26-14.53-20.66-4.264-2.265-7.862-2.931-14.93-2.931z" fill="#fff" stroke-width="1.333"/>
    <path d="m983.4 290.3v4.114c1.318-1.458 2.551-2.843 3.655-4.114z" fill="#fff" stroke-width="1.333"/>
    <path d="m1258 167.6c-0.3999-0.0307-0.8118-0.0253-1.228 5e-3 -0.4479 0.032-0.9011 0.0946-1.36 0.1986-4.931 1.062-10.4 6.524-11.07 11.06-1.514 1.197-5.633-2.11-8.127-4.927-5.998-5.603-13.33-0.9371-14.93 9.462-0.8011 4.264-0.2653 5.467 3.198 9.066 3.067 2.931 5.332 3.999 8.799 3.999 4.666 0 2.865 1.166 2.999 5.961 0.1306 13.86 5.733 18.8 15.86 13.86 3.202-1.469 7.93-3.832 8.066-3.832 0.2653 0 0.7958 2.666 1.197 5.998 1.333 8.664 3.202 10.52 9.066 9.455 7.733-1.457 9.998-8.122 4.666-13.85-3.067-3.067-3.067-3.202-0.5319-5.067 1.464-1.073 3.999-1.864 5.599-1.864 2.931 0 8.529-5.599 8.529-8.535 0-2.931-8.664-10.13-12-10.13-3.728 0.1293-7.998 2.795-7.998 5.065 0 2.13-3.728 0.5319-7.462-3.202-3.467-3.598-9.2-4.264-10.4-1.062-1.469 3.598-0.7971 10.66 1.066 13.2 2 2.666 9.196 3.462 15.86 1.598 5.332-1.469 4.8 2.401-0.5318 4.264-15.06 5.201-24.79-3.863-19.73-18.4 1.869-5.201 6.133-6.4 11.73-3.467 5.197 2.53 6.4 1.864 7.598-4.135 1.405-7.733-2.849-14.33-8.879-14.73zm-288.9 5.848c-4.25 0.7705-9.144 1.874-11.84 5.244-1.688 2.103-1.756 5.243-1.584 7.941 0.2759 4.358 4.155 12.43 4.155 12.43s-2.926 1.41-4.39 2.114c-2.207 1.057-4.863 1.462-6.622 3.166-1.989 1.921-3.712 4.592-3.827 7.357-0.12 2.953 1.442 5.988 3.436 8.17 2.125 2.322 5.217 3.999 8.337 4.436 1.838 0.2559 5.436-1.161 5.436-1.161l5.461-2.467-1.582 10.68 4.748 4.062 10.51-5.165 10.16-3.316 2.463-7.618s9.206-3.89 11.67-7.878c2.634-4.259 3.863-10.26 1.968-14.9-0.6718-1.64-4.196-3.281-4.196-3.281s0.4265-3.395 0.4478-5.108c0.052-3.728 2.02-8.602-0.6878-11.17-2.453-2.322-6.868-0.9478-10.14-0.0827-2.125 0.5572-5.703 3.295-5.703 3.295l-4.442-0.2386s-1.593-4.739-3.566-5.932c-2.922-1.765-6.864-1.197-10.22-0.5878zm345.4 257.4c-2.546-0.0627-5.832 0.7705-9.592 2.515-30.75 14.33-46.47 24.07-63.93 39.75-25.86 23.11-47.05 41-56.47 47.72-5.68 4.119-12.61 9.242-15.26 11.51-2.639 2.141-6.649 4.739-8.836 5.823l-4.092 1.796 3.952 1.005c12.24 3.291 25.81 4.51 54.88 4.775 79.77 104.4 44.15 23.79 34.12-1.874 27.69-24.47 70.04-68.17 71.74-102.4 0.1306-5.071-1.421-10.45-6.513-10.64zm-353.6 71.24c-7.623 0.1413-14.12 3.859-16.82 10.42-1.942 25.15 43.27 43.56 71.38 58.29l1.89 4.619 41.2-15.06c37.15-15.52 36.83-17.74 42.54-23.19 5.581-5.405 7.165-8.629 3.207-7.034-0.9944 0.3959-5.473-1.105-10.03-3.157-45.39-11.15-92.03-21.27-130-24.73-1.13-0.1253-2.239-0.1826-3.327-0.1626zm295.5 61.6c-5.28 14-3.535 21.91 4.504 27.21 24.91 16.4 84.63 20.21 100.8 21.59 11 0.4732 10.16-5.837 5.706-12.56-14.9-21.73-31.85-28.02-58.25-37.24-27.73-8.347-45.96-18.76-52.73 1.009zm-174.6 20.67c-32.77 30.77-63.18 91.4-60.2 104.5 0.6412 2.79 2.411 4.462 5.441 4.717 9.826 0.8171 32.93-13.27 73.85-52.59l4.53-4.524c21.11-51.29-6.352-51.17-23.62-52.07z" fill="#f7efa1" stroke="#000" stroke-linecap="round" stroke-linejoin="round" stroke-width="3.999"/>
    <path d="m1200 645.7-5.597 0.14c-6.264 0.2653-18.26 2.666-25.06 5.067-2.401 0.8011-6.801 1.462-9.596 1.462-8.263 0-10.4 1.87-10.4 8.535 0 3.197-0.9317 10.53-1.864 16.26-4.135 21.99-5.067 35.72-3.468 50.12 4.53 41.59 19.46 86.64 37.46 113.2 7.597 11.33 16.26 21.21 33.32 38.54 26.93 27.19 33.72 37.04 41.86 60.52l4.135 12.13 8.263 0.9384c10.26 1.197 25.86 5.332 38.79 10.53 11.6 4.666 23.99 6.665 31.99 5.196 6.53-1.197 5.733-0.5305 9.196-7.326 3.999-8.133 4.8-16 2.401-26.39-4.536-19.33-13.86-32.66-41.19-58.65-25.19-23.99-41.72-42.52-57.32-63.98-14.4-20.13-23.59-37.72-33.99-66.25-16.26-44.12-18.8-55.17-18.93-82.38zm164 192.1c-1.213-0.1146 1.354 2.005 10.75 9.462 11.73 9.331 21.59 19.73 24.13 25.73 1.068 2.541 1.864 7.602 1.864 11.47v6.806l5.998-6.67c3.203-3.603 12-10.66 19.46-15.73l13.6-9.066-11.2-3.202c-6.129-1.604-15.46-3.87-20.79-4.936-5.201-1.062-16.26-4.266-24.66-7.197-8.269-2.801-16.26-5.592-17.73-6.258-0.6505-0.2239-1.134-0.3746-1.421-0.4012z" fill="#67e0fe" stroke-width="1.333"/>
    <path d="m1274 587.2c-0.2279 0.0787-0.4319 1.193-0.4319 2.827 0 1.74-2.401 6.801-5.461 10.93-3.734 5.197-5.332 8.53-4.802 10.53 0.2653 1.604 3.067 11.6 6.134 22.13 6.398 21.99 12.13 34.12 26.79 56.79 5.603 8.794 12.8 20.53 15.86 25.99 12.4 22.26 40.26 55.19 61.98 73.05 15.73 13.06 31.99 25.59 43.46 33.46 22.79 15.46 36.52 26.26 50.25 39.06 5.332 5.072 10.13 9.071 10.79 9.071 0.8025 0 1.734-7.332 2.265-16.4 1.604-29.46-3.598-59.05-14.53-81.45-6.801-14.12-34.12-53.59-48.39-70.1-11.6-13.48-9.596-11.74-30.13-27.06-30.39-22.66-42.26-30.93-57.32-39.72-31.86-18.52-35.86-21.85-48.92-39.18-3.863-5.207-7.196-9.602-7.461-9.872-0.037-0.032-0.068-0.0373-0.1-0.0267zm-28.93 40.66c-0.3173 0.2706-0.7545 0.4426-1.229 0.4426-1.062 0-2.931 1.068-4.134 2.53-3.332 3.604-19.46 10.66-29.06 12.66l-8.399 1.74-0.1346 13.86c-0.1307 25.99 3.467 41.99 18.8 83.31 8.93 23.86 16.93 41.32 24.26 52.52 13.06 20.39 40.92 53.45 58.39 69.32 22.39 20.39 27.33 25.33 33.59 33.19 6.665 8.134 16.4 24.93 16.4 27.87 0 0.7905 0.6665 3.062 1.333 4.925 1.068 2.666 1.865 3.338 3.067 2.265 0.9318-0.7958 6.394-2.666 12.26-4.264 5.864-1.593 11.86-3.592 13.33-4.53 3.463-2.266 11.07-24.26 12.13-35.19 0.8011-6.665 0.4012-9.066-2.13-14.13-5.467-11.46-27.59-29.73-70.65-58.25-13.2-8.794-35.99-28.93-42.26-37.46-10.4-14-22.93-39.2-28.13-56.39-5.597-18.4-6.665-27.59-7.466-61.32-0.2652-12.7-0.2559-19.14 0.031-19.42zm-145 28.13c-4.915-0.4746-15.41 20.13-20.16 40.38-1.068 4.795-3.202 12.66-4.671 17.6-1.462 5.072-3.462 16-4.264 24.39-1.598 14.4-1.464 16.26 1.333 28.11 3.598 15.73 16.66 42.12 26.26 53.59 8.535 9.862 24.13 32.13 29.59 41.99 6.265 11.33 18.13 39.06 21.99 51.59 5.463 17.33 7.863 39.59 7.061 65.98-0.5305 12.79-1.598 26.13-2.795 30.66-1.068 4.399-1.734 8.127-1.469 8.398 0.2706 0.2666 2.666-1.066 5.603-2.806 2.797-1.734 8.664-4.66 13.06-6.394 5.067-2.134 10.8-5.862 16.26-11.07 6.93-6.393 9.596-10.12 14.93-21.33 3.599-7.597 7.863-18.12 9.598-23.33l3.196-9.731-3.463-2.938c-30.66-25.19-47.99-43.32-63.18-65.98-22.93-34.39-33.32-64.92-39.32-115.8-4.666-40.92-4.796-48.39-0.9318-62.92 3.863-13.86 7.597-32.53 7.597-37.32 0-2.931-0.3959-2.931-6.93-2.265-3.734 0.5359-7.597 0.2706-8.399-0.3959-0.2706-0.2293-0.5772-0.3546-0.9065-0.3852z" fill="#ccf6ff" stroke-width="1.333"/>
    <path d="m1274 572.8v5e-3zm0 5e-3c-0.021 0-0.032 0.016-0.032 0.0373 0 4.123 7.197 18 13.2 25.59 12.13 15.2 17.33 19.33 46.79 37.06 18.66 11.33 41.99 27.45 62.52 43.32 10.66 8.122 23.33 20.79 31.86 31.59 13.46 17.06 35.86 50.52 41.06 61.32 5.868 12 12.53 32.93 12.53 38.79 0 1.729 0.5319 3.198 1.198 3.198 2 0 21.46-18.8 23.46-22.66 1.598-3.067 1.598-4.931 0-12.66-4.8-22.66-11.33-38.26-21.99-52.52-12.66-16.8-28.26-29.59-52.65-43.46-3.603-2-11.73-6.801-18-10.66-6.269-3.87-20.53-11.86-31.73-17.86-11.2-5.998-23.86-13.06-27.99-15.73-7.867-5.067-31.59-20.53-46.92-30.53-4.8-3.197-11.73-8.93-15.46-12.79-3.734-3.875-9.336-10.66-12.4-14.93-2.745-4.112-5.135-7.06-5.431-7.097zm-14.66 38.39c-1.604 0.136-14.8 14.13-14.8 15.73 0 0.2813-0.104 0.5519-0.2759 0.7758v14.68c0.5105 3.066 1.448 15.97 2.807 38.67 1.604 27.06 5.467 42.39 16.4 64.65 18.8 38.14 42.26 60.53 84.38 80.79 21.19 10.26 36.66 15.46 68.65 23.18 6.93 1.74 19.2 5.067 27.06 7.467 7.998 2.53 15.06 4.53 15.86 4.53 3.87 0-5.863-8.122-37.59-30.93-22.93-16.4-23.33-16.8-45.99-35.46-28.66-23.59-51.99-50.79-69.32-80.78-4.264-7.332-11.19-18.66-15.6-25.33-14.66-22.26-19.06-32.79-27.86-67.18-1.6-5.998-3.198-10.94-3.728-10.8zm-115.8 42.66c-0.5305 0.136-5.733 0.8025-11.6 1.598l-10.66 1.198-7.332 25.59c-8.399 29.33-8.399 29.59-3.999 68.65 4.666 41.46 12.26 71.44 23.99 94.91 12.53 25.06 39.59 59.85 57.85 74.51 28.13 22.66 49.05 43.19 57.59 56.65 7.196 11.33 8.127 11.21 9.46-1.193 1.333-12.66-6.529-39.99-16.4-57.85-5.597-9.868-10.93-16.13-33.72-39.59-9.202-9.596-20.26-21.86-24.39-27.33-17.73-23.59-29.99-53.59-39.99-98.64-3.999-18.13-4.4-54.39-0.8024-71.32 2.265-10.39 2.931-20.26 1.598-25.05-0.3999-1.204-1.061-2.135-1.598-2.135z" fill="#99eaff" stroke-width="1.333"/>
    <path d="m1041 533.2v6.801c0 3.732 0.4012 8.664 0.8025 10.93 0.7958 3.999 1.061 4.134 5.726 3.332 6.801-1.198 7.332-2.265 4.4-7.998-1.468-2.931-4.535-6.93-6.8-9.066zm31.86 69.32c-2.061-0.2346-9.774 7.639-9.392 9.758 0.7958 3.604 13.86 25.33 15.33 25.33 1.728 0 0.3946-12.79-2.537-24.93-1.197-4.931-2.666-9.466-3.067-9.998-0.083-0.0933-0.1919-0.1453-0.3332-0.1666z" fill="#99eaff" stroke-width="1.333"/>
    <path d="m1220 498.9-9.331 6.8c-12.4 8.931-22.66 14.66-37.99 20.93-19.06 7.862-24.66 8.93-47.99 8.93-20.26 0-25.99-0.8025-44.66-5.864-9.467-2.535-37.99-2.399-37.99 0.2666 0 0.9318 2.136 3.332 4.666 5.332s5.862 5.998 7.332 8.799c1.469 2.931 3.332 5.993 4.264 6.921 2.931 3.207 5.869 10.67 13.6 35.2 7.998 25.19 11.46 39.32 11.46 46.52 0 3.594 0.9371 5.067 5.739 8.399 15.2 10.93 15.46 11.07 24.79 11.07 12.26 0 48.79-4.801 60.38-7.998 5.332-1.333 15.2-3.207 21.73-3.999 24.13-2.931 35.32-8.399 51.59-25.06 6.264-6.4 13.46-14.93 16.13-18.93 4.264-6.264 4.931-8.399 4.931-14.8 0-9.596-5.733-32.13-10.26-39.59-1.87-3.197-7.597-10.14-12.93-15.46-5.203-5.192-13.06-13.6-17.46-18.53z" fill="#01c3f4" stroke-width="1.333"/>
    <path d="m1150 125.8c-0.2653 0.136-2.265 1.068-4.53 2.266-5.868 2.931-11.07 8.269-14.93 14.8-3.734 6.264-3.468 9.196 0.2652 3.327 1.333-2 6.264-7.461 11.06-12.13 4.8-4.536 8.399-8.265 8.133-8.265z" fill="#b9a4ca" stroke-width="1.333"/>
    <path d="m1278 3.223c-0.9171 0.02133-1.453 0.3332-1.453 0.9998 0 0.8025 2.666 6.936 5.998 13.73 9.862 20.13 8.398 20.66-8.134 2.931-6.796-7.197-12.66-12.66-13.19-12.14-0.4012 0.4066 1.066 6.134 3.332 12.66 2.265 6.4 4.53 12.8 4.931 14.26 0.5305 1.468-2.802-0.5372-8.664-5.468-9.732-8.134-25.73-19.46-26.39-18.66-2.401 2.401 11.73 28.79 20.26 37.72 2.537 2.666 4.536 5.061 4.536 5.332 0 1.462-4.802 0.1293-10.66-2.802-9.467-4.796-28.53-9.998-36.52-9.998-11.6 0-11.73 1.068-2.395 13.2 4.531 5.864 8.265 11.33 8.265 12.13 0 1.068-3.734 1.202-12.26 0.6665-9.602-0.5305-12.93-0.3959-14.8 1.068-2.136 1.869-1.734 2.797 6.4 13.6 4.666 6.405 8.263 12.14 7.998 12.67-0.4012 0.6665-5.067-0.2653-10.26-2.13-5.201-1.733-9.731-3.202-9.998-3.202-0.6665 0 20.93 23.59 33.99 37.19 4.531 4.796 8.265 9.196 8.265 9.732 0 1.734-2.135 1.198-5.733-1.604-2.65-2.177-12.71-6.602-19.54-9.003-0.027 0.032-0.037 0.0627-0.052 0.0893 0.011-0.032 0.015-0.068 0.025-0.1053-2.775-0.9731-5.061-1.65-6.024-1.65-3.332 0-1.333 2.141 15.86 17.06 15.86 13.6 22.26 20.51 26.26 28.66 1.766 10.23 5.905 9.019 9.732-1.193 3.863-3.863 5.463-4.524 10.53-4.524 5.197 0 6.53 0.6665 9.598 4.264 3.202 3.734 3.598 5.197 3.066 11.73l-0.5305 7.591 3.463-1.328c4.8-1.864 9.466-0.4066 14.53 4.259 7.462 6.937 4.796 17.46-5.067 20.13l-5.067 1.338 2.401 6.936c2.265 6.665 2.931 7.326 14.8 14.53 19.06 11.6 25.73 21.46 29.86 44.52l0.9317 5.332 3.999-8.67c6.665-14.13 5.067-23.99-6.529-38.26-2.535-3.067-3.999-5.869-3.332-6.264 2.931-1.87 28.13 18.66 33.32 27.19l2.53 4.264 1.6-7.737c0.9318-4.266 1.333-11.06 0.9318-15.2-0.6665-6.665-1.333-7.857-6.93-12.66-6.665-5.863-7.332-7.337-3.332-7.337 3.066 0 22.53 18.14 25.46 23.59 1.865 3.468 1.865 3.468 2.666-2.931 1.333-11.47-0.9317-20.66-6.534-26.26-3.463-3.734-4.395-5.468-3.327-6.536 1.062-1.061 5.461 2.662 16.26 13.46 8.129 8.263 14.8 14.13 14.8 12.92 0-3.858-4.13-23.59-5.998-29.06-6.932-19.6 15.06-9.592 26.79 12.14l3.332 5.998-0.5305-11.34c-0.8025-15.85-4.536-25.85-12.27-32.51-6.796-5.733-8.53-11.6-2.266-7.603 4.536 2.802 24.93 22.66 28.53 27.73 2.931 4.135 4.53 5.332 5.332 4.135 1.729-2.931 1.197-18.26-0.9371-25.73-4.599-16.1-5.927-19.28 5.467-15.33 3.198 2.13 5.864 3.598 5.864 3.197 0-1.864-6.665-13.46-8.8-15.33-2.057-3.348-2.259-4.135-0.2653-6.53 4.354 6.446 13.92 10.83 15.2 8.935 1.464-1.468-0.6665-7.201-4.134-11.47-2.531-2.933-5.332-4.4-11.07-5.468-8.795-1.864-25.46-9.195-28.13-12.39-1.468-1.864-1.468-2.405 0.5318-3.071 2.666-1.062 18.4 3.738 27.59 8.269 7.597 3.868 9.066 3.999 9.066 0.8011 0-2.931-7.066-9.862-13.06-12.93-9.998-4.931-35.46-10.67-42.92-9.607-1.068 0.136-2.13-0.3959-2.401-1.062-0.6665-2.265 7.733-2.801 22.79-1.598 18 1.464 26.26 0.5359 26.26-3.062 0-5.733-17.86-10.66-38.92-10.66-11.86 0-14.4-0.4012-14.4-2 0-3.067 5.998-4.004 23.73-3.734 13.46 0.2653 16.53-0.0053 17.06-1.609 1.865-4.795-12.8-11.33-25.33-11.33-3.598 0-10.4 0.9318-15.06 2.135-4.666 1.202-9.466 1.729-10.8 1.202-3.734-1.473 2.27-5.337 14.66-9.336 5.998-2 13.06-4.666 15.73-5.998 4.134-2.134 4.399-2.53 2.134-3.467-4.666-1.86-21.19 1.604-32.39 6.665-11.73 5.207-15.06 5.868-15.06 2.801 0-7.332 9.331-16.26 22.53-21.33 10.27-3.999 14.93-7.733 12.53-10.14-0.8012-0.7971-6.133-1.464-11.87-1.594-18.66-0.1346-25.73 5.197-31.86 23.99-1.333 4.13-2.933 7.061-4.135 7.061-2.265 0-2.395-4.134-0.5305-15.73 2-11.73 2.134-27.99 0.3999-29.73-1.733-1.729-4.8 6.936-7.201 20.13-0.7971 4.801-1.734 9.998-2 11.6-0.4012 1.734-1.197 3.062-1.864 3.062-0.8025 0-1.333-4.925-1.333-11.72 0-11.33-2.266-24.39-5.468-31.46-3.332-7.066-3.863-4.666-5.862 23.19-0.8025 10.26-2.531 14.53-4.135 9.858-2.53-8.134-4.395-10.66-13.06-18.8-5.201-5.061-12.8-11.33-16.8-14-5.599-3.796-11.79-6.4-14.54-6.337zm-367.4 17.26v0.0053l5e-3 -0.0053zm0 0.0053c-0.1506 0.01066-3.338 2.671-7.061 5.993-7.461 6.665-11.19 14.4-13.6 27.33-1.864 10.53-4.666 16-7.862 16-5.067 0-5.869-3.202-5.067-19.73l0.6665-15.6-5.733 6.264c-6.665 7.473-9.732 15.33-10.8 28.39-1.066 14.26-1.462 15.6-4.931 15.06-4.4-0.6665-7.733-8.258-7.066-16.26l0.4012-6.541-4.53 7.208c-7.869 12.53-11.07 29.45-7.869 42.78 0.9384 4.542 0.8025 5.067-1.598 5.067-5.461 0-11.86-12.52-10.4-20.39 0.0107-0.06265 0.016-0.07731 0.0213-0.14 0-0.016 5e-3 -0.03599 5e-3 -0.04666 0.6305-4.02 0.6092-4.015-1.093-0.7451-3.198 5.733-5.197 17.86-4.531 27.73 0.4012 8.529 0.9318 9.998 4.801 14 2.401 2.395 4.264 4.796 4.264 5.327 0 2.666-7.196 0.2706-13.19-4.395l-6.801-5.337v3.999c0 2.265 0.8025 6.004 1.864 8.405 2.266 5.196 9.598 12.93 12.26 12.93 0.9318 0 1.869 0.9318 1.869 2 0 2.666-7.332 2.666-15.46-0.1346-3.332-1.068-6.398-1.734-6.794-1.333-1.469 1.462 1.062 7.597 5.061 12.13 2.27 2.537 3.732 5.067 3.332 5.733-0.4012 0.6665-3.999 0.9371-8.129 0.5305-4.135-0.3946-7.332 0-7.332 0.6665s1.864 4.14 4.13 7.473c4.27 6.529 8.133 8.529 13.2 6.93 2.13-0.6665 2.797-0.4066 2.395 0.7971-0.3959 1.068-2.931 2.401-5.864 3.067-15.6 3.332-20.66 7.466-15.73 12.93 2.801 3.067 8.263 3.202 14.53 0.2653 6.93-3.332 7.196-1.197 0.4012 5.201-3.332 3.198-7.602 8.399-9.467 11.73-3.467 6.134-8.93 23.73-8.93 28.66 0.1306 2.666 0.1306 2.666 2 0 9.998-13.6 26.93-35.18 27.73-35.18 2-0.2706 0.7958 3.592-3.067 8.794-5.868 7.998-13.33 28.39-14.13 38.79l-0.8011 8.935 2.937-4.535c4.931-7.733 22.66-29.46 23.99-29.46 2 0 1.598 1.062-2.401 7.061-5.201 7.602-6.93 13.06-7.862 25.19-1.204 14.93 0.1293 16.66 5.061 6.394 5.065-10.66 18.53-27.73 18.53-23.46 0 0.3999-0.9318 4.666-2.135 9.726-2.265 9.874-2.134 31.33 0.4012 33.87 1.333 1.333 1.464 1.062 6.4-12.4 2.13-5.998 14.26-23.86 16.8-24.79 1.733-0.6665 1.462 2.141-0.6665 5.473-6.4 9.862-9.331 29.46-5.599 36.79 4.266 8.133 5.733 7.602 6.665-2.797 1.734-16.93 3.198-21.73 9.066-28.26 2.931-3.468 5.728-5.869 6.394-5.468 0.5359 0.2653-0.3959 3.468-2.13 6.93-3.732 7.332-4.399 21.33-1.202 28.79 3.067 7.332 4.27 6.93 5.067-2.141 1.468-14.12 3.999-21.33 10.26-28.66 3.202-3.728 6.134-6.529 6.4-6.264 0.2653 0.2706-0.136 2.401-0.9318 4.801-1.87 5.461-1.865 15.2 0.1346 24.11l1.598 7.072 1.464-9.336c1.333-8.794 6.134-19.33 8.664-19.33 0.6665 0 1.869-2.53 2.802-5.733 2-7.862 8.529-19.6 13.86-25.33 6.796-7.201 14.8-11.07 25.73-12.67 5.332-0.7958 10.53-2.129 11.6-2.937 1.437-1.182 2.603-3.811 2.687-5.133-0.0426-0.0267-0.0733-0.052-0.1146-0.084-0.3226-0.1773-0.6358-0.2919-0.9478-0.3906-0.0107 0.016-0.016 0.016-0.0267 0.016-8.534 6.665-22.66-2.395-20.26-13.06 1.062-4.666 6.796-10.67 10.39-10.67 2 0 2.401-0.5305 1.734-3.062-2-6.4-2.401-14-0.8025-16.8 2.135-3.999 11.33-8.134 18.4-8.134 5.863 0 10.93 3.327 10.93 7.197 0 1.462 1.338 1.072 5.201-1.464 3.734-2.401 5.599-4.796 6.796-8.795 1.202-4.134 5.067-8.935 15.2-19.06 10.93-10.93 15.73-14.66 24.79-19.33 6.264-3.198 13.2-6.26 15.33-6.796 5.067-1.062 22.53-8.93 21.86-9.732-0.2706-0.2653-3.467 0.136-7.065 0.9371-9.202 2-9.998 0.4012-4.666-9.331 3.863-6.8 4.264-8.534 3.062-11.73-1.464-4.264-1.6-4.264-22.53-3.066-10.13 0.6665-10.8-1.333-3.067-10.13 3.332-3.728 4.536-5.863 2.933-4.931-1.6 0.8011-5.864 2.666-9.732 4.264-8.93 3.468-9.992 1.333-4.264-7.998 7.201-11.6 5.732-13.6-7.733-10.39-8.394 1.865-10.26 0.6612-11.06-7.602-1.333-11.73-6.665-13.06-16.53-4.264-15.2 13.6-18.53 11.19-11.73-8.67 2-5.592 3.197-11.06 2.795-12.26-1.468-3.599-9.596-0.1413-27.19 11.33-5.868 3.728-11.47 6.529-12.93 6.264-4.666-0.6665-4.264-5.864 1.068-12.66 7.332-9.467 5.998-13.6-3.864-10.93-6.534 1.864-12.93 7.862-21.46 19.86-8.399 12-11.47 15.06-14.8 14.4-2-0.4012-2.401-1.729-2.265-9.06 0.1346-6.665 1.068-10.8 4.264-17.73 2.265-4.915 3.859-8.903 3.603-8.924zm223.1 100.1c-0.047-5e-3 -0.104-5e-3 -0.1666 0v0.0147c-0.7705 0.12-2.603 1.573-5.405 4.431-0.8332 0.8598-1.63 1.844-2.385 2.938-0.4265 0.6918-1.15 1.88-1.636 2.67-2.931 5.348-4.988 12.53-5.841 20.65-0.7971 8.269-3.067 10.66-3.067 3.332 0-6.665-1.333-9.998-4.264-10.66-2-0.5319-2.531-1.598-2-3.468 0.9371-3.462-1.062-4.128-16.53-5.067-18.4-1.061-20 0-9.066 5.998 13.46 7.462 17.2 10.13 17.2 12 0 2.797-3.87 3.468-6.536 1.068-2-1.729-4.666-2.129-12.26-1.864l-9.862 0.4012 9.066 3.066c9.596 3.198 21.19 9.863 25.59 14.93 2 2.129 2.666 4.8 2.53 10.13 0 3.864-0.3959 7.462-0.7958 7.998-0.5372 0.3959-2.933-0.6665-5.332-2.535-2.401-1.87-8.265-4.931-13.06-6.93-15.86-6.665-32.39-4.666-55.32 6.93-15.86 7.998-23.86 14-24.79 18.8-1.197 5.998-4.931 11.07-9.331 12.67-2.129 0.7971-3.863 2.266-3.863 3.327 0 3.203-7.863 9.998-10.66 9.202-1.865-0.3959-4.135 0.7958-7.202 3.863-2.53 2.537-5.327 4.536-6.393 4.536-1.87 0-9.467 8.263-15.46 16.8-3.332 4.796-5.067 12-6.134 25.19l-0.7958 9.331 3.067-6.665c4.264-9.066 12.66-21.99 14.26-21.99 2.401 0 1.468 2.801-4.666 13.6-10.8 19.2-11.47 21.33-12.66 41.06-0.6665 9.856-1.598 21.86-2.135 26.53-0.7958 7.733-0.6665 8.399 1.469 7.998 2-0.3959 2.931-3.197 4.931-15.06 3.587-3.754 5.832-10.29 6.649-6.722 1.218 0.5319 22.01-34.07 28.41-42.07 9.195-11.6 15.46-17.61 20.79-20.27 22.79-10.93 32.66-14.78 40.26-15.33 7.196-0.6665 28.13 0.9331 42.26 3.067 4.53 0.8025 4.795 0.5372 4.666-3.067 0-3.598 0.2653-3.727 5.597-3.462 3.067 0.1293 9.732 2 14.66 4.123 7.201 2.943 9.602 3.474 10.8 2.141 3.332-3.598 30.53 3.202 39.99 9.998 3.598 2.666 5.863 3.598 6.398 2.666 2.395-3.999 23.19 2.401 32.13 9.998 2.535 2.135 5.733 3.468 8.263 3.468 2.401 0 6.536 1.197 9.202 2.53 6.398 3.202 17.46 13.2 21.73 19.33 3.728 5.597 4.796 5.863 5.463 1.734 0.2653-1.598 1.202-2.931 2.27-2.931 3.062 0 13.86 20.51 18.66 35.32 2.395 7.721 4.931 15.05 5.597 16.26 0.6665 1.333 1.198 3.598 1.198 5.067 0 4.666 2.535 2.79 4.134-2.943 0.8025-3.197 2.666-8.122 4.266-11.05 1.598-3.067 2.801-8.405 2.931-12.67 0.2652-3.999 0.8011-13.06 1.333-20 1.598-20.79-0.5319-31.99-9.331-48.39-4.531-8.394-7.332-12.39-7.332-10.66s-0.5319 3.067-1.198 3.067c-1.468 0-2.801-3.332-2.801-7.066 0-1.598-3.067-6.67-6.665-11.34-3.598-4.666-6.93-10.52-7.468-13.06-0.6665-3.863-1.197-4.264-3.196-3.197-3.463 1.869-12.26 1.598-14.93-0.4012-1.198-0.9318-2.666-3.463-3.067-5.728-1.598-6.534-20.26-23.73-31.59-29.06-8.972-5.644-17.08-6.472-36.58-8.299 2.869-0.0573 5.171-0.3546 7.613-0.3133-0.057-0.5572-0.4159-1.838-0.5679-2.238-0.4945-1.286-1.453-2.447-2.822-3.062-0.6345-0.2866-1.249-0.3799-1.806-0.3959 1.661 1.552-1.052 3.082-7.02 3.51-3.868 0.3999-5.067 0.1293-3.868-0.8025 1.468-0.8025 0.6665-1.197-2.797-1.197-5.998 0-13.06 2.265-16.66 5.461-3.598 3.332-4.535 3.203-4.535-0.6612 0-8.263 17.46-20.93 35.19-25.46 10.39-2.666 10.79-3.332 1.864-3.332-9.731 0-22.79 4.128-29.19 9.195-5.998 4.931-7.867 5.196-7.867 1.197 0-4.123 11.2-14.26 21.59-19.6 7.066-3.598 7.597-4.27 3.863-3.603-8.528 1.469-18.26 7.072-25.73 14.66-3.999 4.13-7.731 7.462-8.133 7.462-0.5319 0-0.9318-1.204-0.9318-2.807 0-1.464-0.5372-2.401-1.204-2-2.994 1.922-2.301-4.685 0.2293-12.48-0.047 0-0.093 0-0.14-0.0213 0.1093-0.1813 0.2493-0.4212 0.3586-0.6092 1.51-4.519 3.603-9.367 5.952-13.15 2.526-3.864 3.354-5.911 2.63-6.029z" fill="#8c569e" stroke-width="1.333"/>
    <path d="m1103 251.3c-2.318 0.2346-1.25 2.469 3.946 6.597 5.197 4.135 6.536 6.93 4.135 8.399-0.6665 0.4012-3.332-0.9318-5.998-3.067-3.598-2.931-7.201-4.128-15.46-5.461-9.998-1.605-13.8-5.113-15.4-2.849-1.734 2.265-2.136 2.265-6.932 0.2653-11.73-5.061-11.4-1.817-19-0.2186-10.66 2.265-19.73 7.066-32.93 17.6-6.4 5.067-12.66 9.202-13.86 9.202-3.332 0-13.73 12.13-25.06 29.33-10.26 15.46-19.33 36.52-22.93 53.05-2.666 12.39-6.536 7.332-6.536-8.534 0-12.26-3.863-32.53-7.065-37.06-4.395-6.264-7.863-8.659-12.53-8.794-4.931 0-7.466 2.134-11.6 10.53-5.337 13.78-10.53 42.76-4.395 54.52 3.598 6.53 18.53 20.93 25.19 24.39 3.202 1.598 7.201 3.994 9.064 5.197 1.87 1.333 3.87 2.265 4.536 2.129 1.864-0.2653 9.998 16.26 19.06 39.19 6.398 16.13 24.13 37.86 39.72 48.39 15.6 10.66 59.72 29.06 84.38 35.19 12.13 2.931 17.06 3.467 32.93 3.467 22.66-0.1346 39.72-3.868 56.65-12.4 10.8-5.332 27.46-16.13 32.66-20.79 1.469-1.464 4.801-3.999 7.332-5.733 2.537-1.738 10.4-9.596 17.46-17.6 10.66-12 14.4-17.46 23.19-34.12 18.26-34.52 18.53-35.19 16.8-37.99-2.401-3.863-0.4013-5.461 5.597-4.53 5.864 0.9318 24.66-2.265 30.39-5.332 5.316 0.172 13.31-9.571 16.4-18 2-3.197 4.139-5.311 2.937-22.5 3.426-21.57-5.348-37.78-9.607-42.42-1.198-1.734-3.994-3.999-6.264-4.931-3.599-1.469-4.796-1.469-7.863 0.1293-4.931 2.537-7.332 6.536-10.4 17.06-3.77 3.567-6.144 12.16-7.679 17.06-2.401 4.666-4.187 11.19-5.249 14.8-2.134 7.332-6.4 10.79-11.6 9.462-3.197-0.7971-3.463-1.464-3.463-7.462 0-3.868-1.733-11.6-3.999-18.4-4.264-13.2-11.33-29.33-12.66-29.33-0.5358 0-0.6665 2-0.3999 4.264 0.2653 3.332-0.1359 4.53-1.865 4.8-1.333 0.2666-2.401-0.1346-2.401-0.6665 0-0.6665-3.467-5.998-7.862-11.87-5.468-7.462-10.27-12.4-16.13-16.26-8.93-5.998-14.26-7.597-10.26-3.198 2.537 2.802 3.067 6.932 0.8025 6.932-2.931 0-6.536-2.933-8.664-6.932-2.937-5.597-6.134-8.263-16-13.06-7.869-3.864-13.86-5.197-13.86-3.067 0.136 0.6665 0.9331 2.535 2 4.4 1.068 1.864 1.87 4.399 2 5.597 0 3.467-3.863 2.931-5.196-0.7971-3.734-9.602-27.99-22.13-42.79-22.13l-4.666 0.1346 5.738 4.931c3.463 3.067 5.597 5.998 5.597 7.863 0 4.8-3.338 3.598-9.2-3.332-3.734-4.666-7.998-7.733-14.4-10.66-8.331-3.864-14.04-5.629-16.34-5.4zm73.7 45.27c5.472-0.0786 10.19 1.093 15.3 3.687 6.129 3.071 21.21 15.9 26.94 24.43 3.332 4.931 12.79 20.79 15.58 27.73 1.333 3.197 1.333 3.197 4.134-3.203 1.598-3.598 2.931-6.93 2.931-7.597s0.6665-1.197 1.333-1.197c2.136 0 1.6 2.265-2.53 10.39-3.468 6.937-3.603 8.134-2.27 12.94l1.598 5.327 4.931-7.998c2.666-4.266 5.067-8.394 5.332-9.196 0.4012-0.7958 1.068-1.068 1.604-0.5305 1.464 1.333-1.733 8.529-6.936 15.33-2.395 3.197-4.395 6.665-4.395 7.727 0 3.603 3.599 0.5359 7.462-6.394 2-3.734 3.868-6.134 4.135-5.332 0.8011 2.265-4.666 12.13-7.598 14-1.468 0.9318-2.666 3.067-2.666 4.666 0 3.863-7.998 10.26-17.33 13.73-6.534 2.394-10.8 2.931-30.79 3.066-24.79 0.2666-30.66-0.6665-38.92-6.269l-4.666-3.197-6.15-8.217c-16.52 14.13-39.47 5.753-43.06 1.514 0-2.666-4.779 9.103-6.242 10.3-6.936 5.733-34.12 8.399-50.79 4.936-10.93-2.27-23.46-7.332-27.73-11.07-1.333-1.333-3.332-2.399-4.4-2.535-1.062-0.1306-4.531-2.395-7.597-4.931-3.067-2.401-8.399-6.134-11.86-8.134-3.598-2-6.4-4.264-6.4-4.931 0-1.197 6.265 2 15.73 7.733 3.198 2 5.864 1.333 3.463-0.6665-0.6665-0.6665-4.665-3.999-8.8-7.467-4.264-3.598-7.733-7.332-7.733-8.529 0-1.198 2.401 0.4012 6.27 4.134 10.13 9.998 13.86 7.727 4.399-2.535-2.937-3.197-5.332-7.066-5.332-8.529 0-1.469 0.2666-2.666 0.5319-2.666 1.333 0 7.066 6.128 7.998 8.664l1.068 2.666 1.066-2.666c0.6665-1.87 0.2666-3.203-1.733-4.536-2.933-2-6.932-10.66-5.468-12 0.4012-0.3959 1.469 0.4012 2.401 1.734 2.265 3.863 6.264 7.733 7.066 6.93 0.3999-0.4012-0.6665-3.332-2.266-6.665-1.604-3.332-2.399-6.794-2-7.597 0.5318-0.8025 2 0.9318 3.463 4.135 2.136 4.795 2.802 5.332 4.535 3.999 1.062-0.9384 2-2.271 2-3.067 0-5.332 23.59-27.86 35.59-33.99 15.6-7.998 33.59-9.202 46.39-3.203 13.46 6.4 17.06 14.53 18.8 41.86 0.5358 9.331-3.488 22.09-4.42 24.89-1.885 4.295-2.119 4.947 0.8012 3.332 4.666-1.734 22.29-0.8544 26.29 0.4786l4.135 1.469c-2.313-21.89-0.3759-49.4 10.93-64.06 6.269-7.998 11.73-11.2 20.13-12.39 2.032-0.3066 3.936-0.4732 5.765-0.4945zm75.65 56.09-0.1359 0.3279-0.031 0.0213c0.052-0.12 0.1186-0.2039 0.1666-0.3492zm296.7 71.77c-3.562-0.016-6.816 0.1666-8.217 0.6198-0.6665 0.2653-7.597 1.068-15.33 1.864-23.59 2.666-33.72 4.27-39.99 6.269-5.332 1.6-30.13 17.6-42.79 27.46-2.531 1.869-9.331 6.134-15.2 9.195-5.862 3.067-15.73 9.066-21.99 13.2-14 9.331-35.19 17.46-55.45 21.19-11.73 2.265-22.53 2.931-52.65 3.598-37.32 0.8025-46.66 0.136-65.85-4.264-3.332-0.7958-1.197 1.87 12.93 15.6 4.463 5.088 11.15 10.65 16.46 17.72 2.775 3.698 4.452 7.451 6.108 10.91 1.412 2.978 2.354 6.301 2.359 6.79 0 0.4479 0.077 0.8691 0.192 1.276 3.338 0.6038 13.04 0.9264 18.6 1.828 16.66 2.801 18.8 2.931 29.99 1.333 6.53-0.9318 18.66-1.598 26.66-1.464 16 0.2653 35.99-2.401 50.39-6.665 11.2-3.332 21.86-8.399 43.86-21.06 15.46-8.93 17.46-9.731 21.99-8.799 7.998 1.468 12.93 5.332 23.86 18.4 5.597 6.794 11.07 12.93 12.13 13.86 2.531 2 14 3.468 18.93 2.401 5.065-1.068 6.529-5.468 7.466-23.33 1.333-21.06 1.865-23.73 6.129-28.66 2.265-2.531 11.2-8.935 20-14.26 15.33-9.331 30.26-21.73 35.06-29.33 2-3.203 2.134-3.999 0.5306-7.332-3.296-6.618-15-6.9-18.53-5.197-2.531 0.3959-11.2 1.464-19.2 2.13 3.28-1.292 4.698-3.426 22.66-4.531 4.264-0.1346 8.129-1.066 8.394-1.869 0.2706-0.7971-2.931-3.062-7.196-4.931l-7.598-3.332-17.73 1.869c-9.732 1.062-18.8 2.531-20.13 3.198s-3.999 1.598-5.998 2.134c-5.468 1.333-4.801-2.666 0.6665-4.4 6.129-2.134 25.99-5.467 31.73-5.467 5.467 0 11.47-3.999 9.998-6.394-0.4998-0.9211-7.301-1.521-13.24-1.552zm-780.7 93.12c0 0.032-0.0107 0.0626-0.016 0.0986-5e-3 0.016-5e-3 0.032-9e-3 0.048-0.136 0.6558-1.125 1.494-2.239 1.989-1.333 0.4012-4.666 2.795-7.597 5.196l-5.067 4.4 7.733 7.998c6.665 6.93 16.26 13.73 19.33 13.73 1.421 0-4.255-15.58-11.69-33.38-0.156-0.3746-0.4172-0.2706-0.4479-0.084zm31.33 2.802c-0.4012 0 2.401 5.998 5.998 13.46 3.734 7.332 7.867 16.13 9.2 19.6 1.464 3.467 5.998 13.46 10.13 22.26 9.602 20.26 15.6 34.12 18.53 42.79l2.266 6.801 11.6-0.136c22.13-0.2653 45.99 2.266 68.52 7.332 14.4 3.067 33.99 3.332 52.39 0.4012 7.332-1.068 17.2-2.666 21.99-3.332 20.39-3.067 49.59-13.06 56.65-19.46 1.469-1.333 4.264-3.203 6.264-4.271 2-1.066 4.936-3.197 6.4-4.8l2.666-2.931-4.53-15.86c-6.134-21.19-8.664-27.19-11.47-27.19-1.197 0-2.666 0.5305-3.463 1.068-2.666 2.53-22.93 9.726-30.53 10.93-13.19 2.129-80.11 1.598-96.11-0.6665-16.8-2.537-38.39-8.535-49.99-13.86-4.666-2.129-19.6-8.127-33.19-13.19-13.6-5.196-28.66-11.6-33.72-14.13-4.936-2.666-9.2-4.8-9.602-4.8zm-49.45 9.06-2.399 5.868c-2.666 6.665-4.135 18-2.933 22.79 0.5319 2.27 3.332 4.8 8.53 7.862 6.534 3.734 8.799 4.406 16.26 4.27 11.33-0.1346 14.66-1.864 14.66-7.862 0-4.4-0.5305-4.931-8.924-9.202-5.067-2.53-11.47-7.196-14.4-10.39-2.931-3.203-6.534-7.467-8.134-9.467zm40.48 38.18c1.342 3.52 3.374 7.312 5.404 10.05-0.1146-0.7132-0.2133-0.7185-0.3439-1.03-0.14-0.3386-0.3173-0.7398-0.5305-1.202-0.4212-0.9278-0.9731-2.099-1.557-3.338l-0.0107-0.0267c-0.7078-1.473-1.202-2.499-1.885-3.406-0.2706-0.3532-0.5772-0.7278-1.077-1.061zm-42.3 0.2093c-0.9264-0.048-1.385 0.3999-1.385 1.333 0 1.066 0.5319 1.733 1.198 1.333 0.6665-0.4012 4.666 0.9371 8.93 3.066 10.13 4.932 20.66 7.202 29.46 5.998 3.864-0.3999 7.066-1.066 7.066-1.333 0-0.2653-1.068-2.53-2.265-5.065-1.869-3.864-2.401-4.4-3.603-2.666-3.598 4.8-25.99 4.8-33.46 0-2.775-1.724-4.748-2.605-5.947-2.666zm1.365 4.685c-0.8185-0.052-1.485 0.4479-2.485 1.448-2.399 2.401-2 10.26 1.068 19.33 3.332 9.732 6.93 13.33 14.8 14.8 6.665 1.197 24.39-5e-3 32.93-2.27 5.468-1.469 5.603-1.734 5.603-7.197 0-3.067-1.068-7.733-2.401-10.27l-2.265-4.665-14.66-0.7971c-14.66-0.8011-22.13-2.931-29.19-8.534-1.604-1.197-2.567-1.797-3.384-1.849zm56.83 35.84c0.7092 3.535 1.734 6.857 2.771 8.795l-0.5732-2.771-5e-3 -0.0147c-0.4266-1.958-0.7598-3.422-1.385-4.728-0.208-0.4372-0.4639-0.8744-0.8078-1.281zm-3.109 0.9838c-0.8691-0.0467-2.057 0.4692-3.806 1.422-4.135 2.129-11.33 2.53-27.73 1.462-5.467-0.2653-8.799 0-8.529 0.8025 0.5305 1.333 15.2 3.598 34.12 5.461l9.732 0.9331-0.9371-4.531c-0.8331-3.832-1.401-5.477-2.854-5.551zm-31.29 8.353c-2.651 0.0987-3.854 0.9998-3.854 2.666 0 3.067 5.864 15.33 7.863 16.53 2.27 1.464 21.99-2 28.53-4.936 5.463-2.395 6.4-3.197 5.998-6.129-0.4012-3.332-0.8025-3.467-9.196-3.732-4.8-0.1306-12.4-1.198-16.8-2.266-5.801-1.536-9.899-2.233-12.54-2.134zm40.59 18.88c-0.6252-0.0573-2.057 0.5732-4.458 1.921-1.864 0.9331-4.4 1.865-5.863 1.865-1.333 0-4.931 0.6665-7.998 1.468-10.13 2.802-9.732 2.531-7.202 4.4 4.666 3.332 23.33-2.666 25.59-8.269 0.4106-0.8744 0.4106-1.338-0.0786-1.385zm-19.12 1.39c-9.2 0.2653-14.66 1.197-14 2.53 1.198 1.734 8.53 1.333 14-0.7958l4.051-1.51-0.036-0.224z" fill="#f7a1c6" stroke-width="1.333"/>
    <path d="m1278 3.213c2.749-0.06265 8.946 2.541 14.54 6.337 3.999 2.666 11.6 8.935 16.8 14 8.664 8.134 10.53 10.66 13.06 18.8 1.604 4.666 3.332 0.3999 4.135-9.863 2-27.86 2.53-30.26 5.862-23.19 3.203 7.066 5.468 20.13 5.468 31.46 0 6.796 0.5305 11.73 1.333 11.73 0.6665 0 1.464-1.333 1.864-3.071 0.2666-1.594 1.204-6.79 2-11.59 2.401-13.19 5.468-21.86 7.202-20.13 1.733 1.724 1.598 18-0.4012 29.71-1.865 11.61-1.734 15.73 0.5305 15.73 1.204 0 2.802-2.931 4.135-7.07 6.133-18.78 13.19-24.11 31.86-23.99 5.733 0.14 11.07 0.8065 11.87 1.609 2.399 2.399-2.266 6.133-12.53 10.13-13.19 5.061-22.53 14-22.53 21.33 0 3.062 3.332 2.401 15.06-2.801 11.19-5.067 27.73-8.53 32.39-6.665 2.266 0.9318 2 1.333-2.134 3.467-2.666 1.333-9.732 3.999-15.73 5.998-12.4 3.999-18.4 7.863-14.66 9.331 1.333 0.5319 6.134 0 10.8-1.202 4.666-1.198 11.47-2.135 15.06-2.135 12.53 0 27.19 6.536 25.33 11.33-0.5358 1.604-3.598 1.87-17.06 1.604-17.73-0.2706-23.73 0.6665-23.73 3.734 0 1.598 2.535 2 14.4 2 21.06 0 38.92 4.931 38.92 10.66 0 3.598-8.263 4.531-26.26 3.062-15.06-1.197-23.46-0.6665-22.79 1.604 0.2706 0.6665 1.333 1.198 2.401 1.068 7.466-1.068 32.93 4.666 42.92 9.596 5.998 3.067 13.06 9.998 13.06 12.93 0 3.203-1.469 3.067-9.066-0.8011-9.195-4.531-24.93-9.326-27.59-8.263-2 0.6665-2 1.202-0.5319 3.066 2.666 3.203 19.33 10.53 28.13 12.4 5.733 1.068 8.534 2.531 11.07 5.463 3.467 4.27 5.597 9.998 4.134 11.47-1.202 1.198-11.02-3.942-15.2-8.93-3.707-4.431-21.81-7.332-28.35-7.534-3.162-0.3746-2.005 1.041-0.344 1.849 5.977 1.114 22.47 3.784 28.97 12.22 1.729 2.243 8.8 13.46 8.8 15.33 0 0.3946-2.666-1.068-5.864-3.198-6.8-4.666-30.13-14.66-34.12-14.66-3.864 0-3.332 2.531 1.068 4.264 18.4 7.467 23.73 12.4 27.59 25.73 2.134 7.462 2.666 22.79 0.9371 25.73-0.8025 1.197-2.401 0-5.332-4.135-3.603-5.065-23.99-24.93-28.53-27.73-6.265-3.999-4.531 1.869 2.265 7.597 7.733 6.665 11.47 16.66 12.27 32.53l0.5306 11.33-3.332-5.998c-11.73-21.73-33.72-31.73-26.79-12.13 1.869 5.467 5.998 25.19 5.998 29.06 0 1.198-6.665-4.666-14.8-12.93-10.8-10.8-15.2-14.53-16.26-13.46-1.068 1.066-0.136 2.801 3.327 6.534 5.603 5.597 7.867 14.8 6.534 26.26-0.8011 6.4-0.8011 6.4-2.666 2.931-2.931-5.467-22.39-23.59-25.46-23.59-3.999 0-3.332 1.464 3.332 7.332 5.597 4.796 6.264 5.998 6.93 12.66 0.4012 4.13 0 10.93-0.9318 15.2l-1.598 7.731-2.537-4.264c-5.196-8.534-30.39-29.06-33.32-27.19-0.6665 0.4012 0.8025 3.202 3.332 6.269 11.6 14.26 13.2 24.13 6.536 38.26l-3.999 8.664-0.9331-5.332c-4.134-23.06-10.8-32.93-29.86-44.52-11.86-7.197-12.53-7.863-14.8-14.53l-2.399-6.936 5.065-1.333c9.863-2.666 12.53-13.19 5.067-20.13-5.067-4.666-9.732-6.133-14.53-4.264l-3.463 1.333 0.5319-7.602c0.5305-6.529 0.1346-7.993-3.067-11.73-3.067-3.598-4.4-4.27-9.596-4.27-5.067 0-6.665 0.6665-10.53 4.535-3.467 3.463-4.535 5.599-4.4 8.931 0.2666 3.999 0.3959 3.999 0.7971 0.9318 0.6665-4.531 6.134-9.998 11.07-11.07 7.332-1.598 13.06 5.733 11.47 14.53-1.202 5.998-2.399 6.665-7.602 4.13-5.597-2.931-9.862-1.729-11.73 3.468-5.065 14.53 4.666 23.59 19.73 18.4 5.332-1.869 5.864-5.732 0.5319-4.27-6.665 1.87-13.86 1.068-15.86-1.598-1.869-2.53-2.535-9.596-1.068-13.19 1.198-3.198 6.932-2.531 10.39 1.066 3.734 3.734 7.468 5.332 7.468 3.198 0-2.265 4.264-4.931 7.998-5.067 3.332 0 12 7.201 12 10.13 0 2.931-5.597 8.529-8.53 8.529-1.604 0-4.134 0.8025-5.603 1.869-2.53 1.865-2.53 2 0.5372 5.067 5.332 5.728 3.062 12.39-4.666 13.86-5.869 1.066-7.733-0.8025-9.066-9.467-0.4012-3.332-0.9318-5.998-1.202-5.998-0.1306 0-2.933 1.338-6.129 2.802-10.13 4.931-17.34 0.6865-17.48-13.17-0.1307-4.801 1.348-5.619-3.318-5.619-3.462 0-5.728-1.068-8.794-3.999-3.468-3.603-3.999-4.801-3.203-9.066 1.6-10.4 8.931-15.06 14.93-9.466 1.645 1.41 4.243 4.395 5.988 4.685 1.672 0.2759 2.519-2.109 2.77-2.223 0.1827-0.0827 0.068-3.972-0.2132-3.535-3.734 5.717-4.624 0.4426-6.545-2.655-3.999-8.134-10.39-15.06-26.26-28.66-17.2-14.93-19.2-17.06-15.86-17.06s21.86 7.597 25.59 10.66c3.598 2.797 5.733 3.332 5.733 1.598 0-0.5305-3.734-4.931-8.263-9.732-13.06-13.6-34.66-37.19-33.99-37.19 0.2653 0 4.795 1.464 9.998 3.197 5.196 1.865 9.862 2.802 10.26 2.135 0.2652-0.5359-3.332-6.269-7.998-12.66-8.134-10.8-8.534-11.73-6.4-13.6 1.865-1.464 5.197-1.598 14.8-1.062 8.529 0.5305 12.26 0.3959 12.26-0.6718 0-0.7971-3.734-6.264-8.263-12.13-9.331-12.13-9.202-13.2 2.395-13.2 7.998 0 27.06 5.201 36.52 9.998 5.863 2.937 10.66 4.264 10.66 2.802 0-0.2666-2-2.666-4.535-5.332-8.53-8.931-22.66-35.32-20.26-37.72 0.6665-0.7971 16.66 10.53 26.39 18.66 5.864 4.931 9.196 6.93 8.664 5.467-0.4013-1.468-2.666-7.867-4.931-14.26-2.265-6.534-3.734-12.27-3.332-12.66 0.5305-0.5359 6.4 4.931 13.19 12.13 16.53 17.73 18 17.2 8.134-2.931-3.332-6.801-5.998-12.93-5.998-13.73 0-0.6665 0.5359-0.9838 1.453-1.005zm-367.4 17.26c0.2706 0-1.328 3.999-3.598 8.926-3.197 6.936-4.135 11.06-4.264 17.73-0.136 7.332 0.2653 8.664 2.265 9.066 3.332 0.6665 6.4-2.401 14.8-14.4 8.529-12 14.93-18 21.46-19.86 9.868-2.666 11.2 1.464 3.87 10.93-5.332 6.796-5.733 12-1.068 12.66 1.468 0.2653 7.066-2.535 12.93-6.264 17.6-11.47 25.73-14.93 27.19-11.33 0.4012 1.197-0.8011 6.665-2.801 12.26-6.796 19.86-3.463 22.26 11.73 8.664 9.862-8.804 15.2-7.471 16.53 4.264 0.8024 8.259 2.666 9.467 11.07 7.593 13.46-3.193 14.93-1.193 7.733 10.4-5.733 9.331-4.666 11.47 4.264 7.998 3.868-1.598 8.133-3.462 9.732-4.264 1.598-0.9318 0.3999 1.202-2.933 4.931-7.731 8.8-7.065 10.8 3.067 10.13 20.93-1.208 21.06-1.208 22.53 3.067 1.202 3.197 0.8011 4.931-3.067 11.73-5.332 9.732-4.531 11.32 4.666 9.322 3.603-0.7918 6.8-1.193 7.066-0.9278 0.6665 0.8025-16.8 8.664-21.86 9.732-2.134 0.5359-9.066 3.603-15.33 6.801-9.066 4.665-13.86 8.398-24.79 19.33-10.13 10.13-14 14.93-15.2 19.06-1.197 3.999-3.067 6.4-6.796 8.8-3.868 2.53-5.201 2.931-5.201 1.464 0-3.864-5.067-7.202-10.93-7.202-7.066 0-16.26 4.135-18.4 8.134-1.598 2.801-1.197 10.4 0.8025 16.8 0.6665 2.531 0.2653 3.067-1.734 3.067-3.598 0-9.331 5.998-10.4 10.66-2.395 10.66 11.73 19.73 20.26 13.06 2.265-1.734 0.6665 3.734-1.604 5.597-1.062 0.8025-6.264 2.135-11.6 2.931-10.93 1.6-18.93 5.468-25.73 12.66-5.332 5.733-11.86 17.46-13.86 25.33-0.9331 3.203-2.135 5.733-2.802 5.733-2.53 0-7.332 10.53-8.664 19.33l-1.464 9.331-1.604-7.066c-2-8.93-2-18.66-0.1346-24.13 0.8011-2.395 1.202-4.531 0.9371-4.796s-3.202 2.531-6.4 6.264c-6.264 7.332-8.795 14.53-10.26 28.66-0.8025 9.066-2 9.467-5.067 2.135-3.197-7.467-2.53-21.46 1.198-28.79 1.733-3.467 2.666-6.665 2.134-6.93-0.6665-0.4012-3.463 2-6.394 5.463-5.868 6.534-7.332 11.34-9.066 28.26-0.9318 10.39-2.399 10.93-6.669 2.797-3.728-7.332-0.7971-26.93 5.603-36.79 2.129-3.332 2.399-6.134 0.6665-5.468-2.531 0.9331-14.66 18.8-16.8 24.79-4.931 13.46-5.061 13.73-6.394 12.39-2.535-2.531-2.666-23.99-0.4012-33.86 1.198-5.065 2.135-9.331 2.135-9.731 0-4.266-13.46 12.79-18.53 23.46-4.932 10.27-6.265 8.535-5.067-6.394 0.9371-12.13 2.666-17.6 7.867-25.19 3.999-5.998 4.395-7.066 2.395-7.066-1.333 0-19.06 21.73-23.99 29.46l-2.931 4.53 0.8011-8.93c0.8025-10.4 8.265-30.79 14.13-38.79 3.863-5.201 5.061-9.064 3.062-8.799-0.7971 0-17.73 21.59-27.73 35.19-1.869 2.666-1.869 2.666-2 0 0-4.931 5.463-22.53 8.93-28.66 1.865-3.332 6.129-8.534 9.462-11.73 6.8-6.398 6.534-8.534-0.4012-5.201-6.264 2.931-11.73 2.802-14.53-0.2653-4.932-5.468 0.1293-9.596 15.73-12.93 2.933-0.6665 5.463-2 5.864-3.067 0.4012-1.198-0.2653-1.464-2.401-0.7971-5.061 1.598-8.93-0.4012-13.19-6.936-2.266-3.332-4.135-6.796-4.135-7.462s3.202-1.066 7.332-0.6665c4.135 0.4012 7.733 0.1306 8.134-0.5359 0.3999-0.6665-1.068-3.197-3.332-5.733-3.999-4.53-6.53-10.66-5.067-12.13 0.4012-0.4012 3.467 0.2653 6.8 1.333 8.129 2.795 15.46 2.795 15.46 0.1293 0-1.062-0.9318-2-1.864-2-2.666 0-9.998-7.727-12.26-12.93-1.066-2.401-1.864-6.129-1.864-8.399v-3.999l6.801 5.332c5.998 4.666 13.19 7.066 13.19 4.4 0-0.5305-1.864-2.931-4.264-5.332-3.87-3.999-4.4-5.463-4.801-14-0.6665-9.862 1.333-21.99 4.531-27.73 1.733-3.332 1.733-3.332 1.066 0.9371-1.468 7.863 4.932 20.39 10.4 20.39 2.401 0 2.531-0.5305 1.598-5.061-3.197-13.33 0-30.26 7.863-42.79l4.535-7.197-0.4012 6.53c-0.6665 7.998 2.666 15.6 7.066 16.26 3.463 0.5305 3.864-0.8025 4.931-15.06 1.068-13.06 4.135-20.93 10.8-28.39l5.728-6.269-0.6665 15.6c-0.7971 16.53 0 19.73 5.067 19.73 3.202 0 5.998-5.461 7.867-16 2.395-12.93 6.129-20.66 13.6-27.33 3.734-3.332 6.93-5.998 7.066-5.998zm239.1 105.3c0.2653 0-3.332 3.728-8.134 8.259-4.801 4.666-9.732 10.13-11.07 12.13-3.734 5.864-3.999 2.937-0.2653-3.332 3.868-6.529 9.066-11.86 14.93-14.8 2.27-1.198 4.27-2.13 4.536-2.261zm-160.5 90.6c1.317 0.1306 1.994 1.76 1.994 4.843 0 3.458-3.198 6.394-5.998 5.327-2.933-1.062-2.395-5.993 0.9371-8.795 1.249-0.9998 2.275-1.457 3.067-1.374zm-12.52 3.624c2.141 0.0306 3.854 1.166 3.854 3.082 0 3.067-9.462 11.07-11.06 9.462-1.87-1.869 0.2653-9.2 3.197-11.33 1.297-0.8545 2.729-1.234 4.01-1.218zm125.2 31.27c2.311-0.2346 8.013 1.536 16.34 5.395 6.4 2.937 10.66 5.998 14.4 10.66 5.864 6.936 9.202 8.138 9.202 3.332 0-1.86-2.135-4.796-5.604-7.858l-5.732-4.936 4.666-0.1306c14.8 0 39.06 12.53 42.79 22.13 1.333 3.734 5.197 4.27 5.197 0.7971-0.136-1.193-0.9331-3.728-2-5.593-1.068-1.869-1.865-3.738-2-4.404 0-2.125 5.998-0.7971 13.86 3.071 9.867 4.801 13.06 7.467 16 13.06 2.135 3.999 5.738 6.93 8.67 6.93 2.265 0 1.729-4.134-0.8025-6.93-3.999-4.4 1.333-2.806 10.26 3.193 5.863 3.874 10.66 8.804 16.13 16.26 4.395 5.868 7.863 11.2 7.863 11.87 0 0.5265 1.066 0.9318 2.395 0.6665 1.733-0.2706 2.134-1.473 1.869-4.805-0.2653-2.261-0.136-4.26 0.4012-4.26 1.333 0 8.398 16.13 12.66 29.33 2.265 6.801 3.999 14.53 3.999 18.4 0 5.998 0.2653 6.665 3.462 7.462 5.203 1.333 9.467-2.13 11.6-9.462 5.239-11.99 15.38-43.91 24.27-47.17 20.47-7.513 20.93 34.59 21.61 43.91 1.77 15.62-3.447 33.84-18.09 42.04-5.733 3.062-24.59 6.285-30.46 5.348-5.998-0.9371-7.998 0.6665-5.597 4.535 1.729 2.797 1.464 3.463-16.8 37.99-8.8 16.66-12.53 22.13-23.19 34.12-7.066 7.998-14.93 15.86-17.46 17.6-2.531 1.729-5.864 4.264-7.332 5.733-5.197 4.666-21.86 15.46-32.66 20.79-16.93 8.535-33.99 12.27-56.65 12.4-15.86 0-20.79-0.5305-32.93-3.463-24.66-6.133-68.78-24.53-84.38-35.19-15.6-10.53-33.32-32.26-39.72-48.39-9.066-22.93-17.2-39.46-19.06-39.19-0.6665 0.1346-2.666-0.8025-4.53-2.135-1.865-1.197-5.864-3.598-9.066-5.196-6.665-3.468-21.67-17.93-25.25-24.47-1.885-3.452-2.338-7.113-2.209-18.32 0.5265-14.52 2.297-25.5 6.79-35.39 3.874-8.523 6.545-11.27 11.48-11.27 4.666 0.136 8.129 2.531 12.53 8.8 3.202 4.53 7.066 24.78 7.066 37.06 0 15.86 3.863 20.93 6.529 8.534 3.603-16.53 12.66-37.59 22.93-53.05 11.33-17.2 21.73-29.33 25.06-29.33 1.202 0 7.468-4.134 13.86-9.2 13.22-10.53 23.89-15.3 32.93-17.6 5.556-1.412 10.06-2.037 20.09 1.754 4.802 2 5.905 1.645 7.639-0.6198 1.598-2.265 3.603 0.068 13.6 1.666 8.263 1.333 11.86 2.531 15.46 5.463 2.666 2.13 5.332 3.463 5.998 3.067 2.395-1.464 1.062-4.27-4.134-8.399-5.203-4.13-6.265-6.362-3.952-6.597zm8.258 114.4c0.047-0.4319 0.4479-1.77 1.292-3.994 0.9317-2.801 1.062-9.07 0.5305-18.4-1.734-27.33-5.332-35.46-18.8-41.86-12.79-5.998-30.79-4.805-46.39 3.193-12 6.138-35.59 28.66-35.59 33.99 0 0.8065-0.9331 2.139-2 3.071-1.729 1.333-2.395 0.8025-4.531-3.999-1.468-3.197-2.931-4.931-3.467-4.128-0.3959 0.7958 0.3999 4.264 2 7.597 1.604 3.332 2.671 6.264 2.27 6.665-0.8025 0.7918-4.802-3.067-7.066-6.93-0.9318-1.333-2-2.135-2.401-1.734-1.462 1.333 2.537 9.998 5.468 12 2 1.333 2.395 2.666 1.729 4.53l-1.062 2.666-1.068-2.666c-0.9318-2.53-6.665-8.664-7.998-8.664-0.2653 0-0.5305 1.204-0.5305 2.666 0 1.469 2.394 5.332 5.332 8.535 9.46 10.26 5.727 12.53-4.4 2.53-3.87-3.734-6.269-5.332-6.269-4.13 0 1.198 3.467 4.932 7.731 8.53 4.135 3.467 8.134 6.8 8.8 7.466 2.401 2-0.2653 2.666-3.463 0.6572-9.466-5.723-15.73-8.92-15.73-7.722 0 0.6665 2.795 2.931 6.398 4.931 3.463 2 8.795 5.733 11.86 8.133 3.067 2.531 6.529 4.796 7.597 4.932 1.068 0.1346 3.067 1.197 4.4 2.53 4.264 3.734 16.8 8.8 27.73 11.07 16.66 3.467 43.86 0.8011 50.79-4.931 0.7132-0.5838 2.37-1.724 2.041-1.542 5.4-7.409 10.98-14.45 14.8-24.99zm37.87 22.26 5.411 3.874c8.263 5.597 14.13 6.529 38.92 6.264 20-0.1306 24.26-0.6665 30.79-3.067 9.331-3.462 17.33-9.862 17.33-13.73 0-1.594 1.197-3.723 2.666-4.666 2.931-1.86 8.398-11.72 7.597-14-0.2652-0.7918-2.135 1.604-4.135 5.332-3.863 6.936-7.461 9.998-7.461 6.404 0-1.072 2-4.53 4.394-7.737 5.203-6.79 8.399-14 6.937-15.33-0.5372-0.5265-1.204-0.2613-1.605 0.5412-0.2652 0.7918-2.666 4.931-5.332 9.195l-4.931 7.998-1.598-5.332c-1.333-4.795-1.197-5.998 2.265-12.93 4.135-8.129 4.666-10.4 2.537-10.4-0.6665 0-1.333 0.5372-1.333 1.204s-1.333 3.999-2.933 7.597c-2.801 6.4-2.801 6.4-4.134 3.197-2.802-6.93-11.6-23.86-14.93-28.79-5.733-8.535-20.35-21.07-26.49-24.14-5.103-2.598-9.826-3.77-15.3-3.691l0.01-5e-3c-1.828 0.0307-3.734 0.1973-5.764 0.4945-26.45 2.349-38.15 38.04-36.56 59.05l0.8025 10.27c0.6705 8.555 7.122 14.84 12.85 22.39zm24.49-87.32c5.884 5e-3 12.76 1.328 17.76 3.743 12.79 6.265 22.61 16.41 33.27 38 8.664 17.6 13.06 33.86 10.8 39.86-0.5305 1.333-5.196 4.395-10.4 6.936-8.394 3.999-10.66 4.53-20.39 4.53-6.269 0-11.06-0.5305-11.06-1.333 18.17-25.51 4.639-64.58-27.29-53.2-16.49 5.853-9.863 42.47-2.578 53.2-1.062 0-4.795-2-8.258-4.404-5.067-3.332-7.602-6.394-11.2-13.46-4.4-8.664-4.886-9.998-4.536-21.33 0.6358-20.7 10.24-52.47 33.87-52.53zm-96.66 2.557c7.06 0 10.66 0.6665 14.93 2.931 8.263 4.4 13.33 11.6 14.53 20.66 2 15.73 1.204 28.39-2.401 37.72-6.264 16-14.13 27.86-18.8 27.86 8.93-20.78 13.1-62.62-18.66-56.29-31.9 10.48-16.41 46.1-8.53 59.36l-9.195-1.068c-17.46-1.729-31.59-7.998-36.66-16.13-2.401-3.999-2.802-6.134-2.401-15.6 0.6665-14.66 5.067-23.59 17.73-36.26 15.46-15.46 31.99-23.19 49.45-23.19zm-6.27 39.86c4.135 0 5.468 0.6665 6.937 3.332 1.333 2.531 1.462 3.734 0.3946 4.801-3.061 3.067-12.39-1.734-12.39-6.269 0-1.333 1.598-1.865 5.06-1.865zm104.6 9.707c-0.9318 1.462-1.734 1.333-4.264-1.068-3.203-2.931-1.458-3.942 0.7958-5.197 5.832-2.89 5.561 2.761 3.468 6.265zm14.53-4.666c1.87 2.394 1.333 7.726-0.9318 8.393-2.134 0.8025-6.373-5.78-5.196-8.263 1.364-2.89 4.54-1.869 6.128-0.1293zm-21.91 10.71c0.025 3.332-2.963 4.462-3.702 1.817-1.229-4.39 3.666-7.701 3.702-1.817zm-111.9 2.229c0.172-0.016 0.3439 0.036 0.5106 0.156 0.6665 0.4012 1.204 1.598 1.204 2.666 0 1.864-1.605 2.53-3.067 1.068-1.052-1.052 0.1453-3.838 1.353-3.89zm493.1 63.4c5.941 0.032 12.74 0.6358 13.24 1.552 1.468 2.401-4.531 6.4-9.998 6.4-5.733 0-25.59 3.332-31.73 5.468-5.463 1.729-6.129 5.728-0.6665 4.395 1.999-0.5319 4.666-1.464 5.998-2.13s10.4-2.135 20.13-3.202c0 0 12.04-1.401 17.44-0.8238 3.14 0.3332 7.889 2.291 7.889 2.291 4.266 1.865 7.462 4.13 7.197 4.931-0.2653 0.7971-4.13 1.734-8.399 1.865-12.13 0.6665-38.84 3.598-42.39 5.191-0.8384 0.3759-1.442 1.876 0.5572 1.989 2.27-0.3999 11.11-0.6558 19.24-1.452 7.998-0.6665 16.64-1.901 19.2-2.135 2.671-0.2453 15.33-2.598 18.46 4.004 1.598 3.332 1.468 4.135-0.5319 7.332-4.8 7.597-19.73 20-35.06 29.33-8.8 5.332-17.73 11.73-20 14.26-4.266 4.936-4.802 7.602-6.134 28.66-0.9317 17.86-2.395 22.26-7.462 23.33-18.58 2.114-21.67-4.884-31.06-16.26-10.93-13.06-15.86-16.93-23.86-18.4-4.535-0.9318-6.534-0.1293-21.99 8.8-21.99 12.66-32.66 17.73-43.86 21.06-14.4 4.264-34.39 6.936-50.39 6.665-7.998-0.1306-20.13 0.5305-26.66 1.468-11.19 1.598-13.33 1.469-29.99-1.333-9.862-1.598-18-3.067-18.13-3.202 0 0-2-4.264-4.399-9.462-3.599-7.867-6.796-11.73-21.19-25.86-14.13-13.73-16.26-16.4-12.93-15.6 19.2 4.399 28.53 5.065 65.85 4.264 30.13-0.6665 40.92-1.333 52.65-3.598 20.26-3.734 41.46-11.87 55.45-21.19 6.269-4.128 16.13-10.13 21.99-13.19 5.868-3.067 12.67-7.326 15.2-9.196 12.66-9.862 37.46-25.86 42.79-27.46 6.269-2 16.4-3.603 39.99-6.269 7.733-0.8025 14.66-1.6 15.33-1.865 1.401-0.4532 4.655-0.6345 8.222-0.6198zm-817.3 0.5839c-0.2959-0.016-0.2133 1.077 0.2453 3.368 0.3959 2.531 1.729 7.066 2.797 9.998 1.068 2.931 3.598 9.863 5.597 15.33 2 5.468 9.467 22.26 16.66 37.32 11.87 25.06 25.59 59.98 23.46 59.98-3.067 0-12.66-6.8-19.33-13.73l-7.733-7.998 5.067-4.399c2.931-2.395 6.264-4.796 7.597-5.197 1.202-0.5305 2.265-1.468 2.265-2.134 0-2.531-3.863-1.062-9.331 3.467-3.062 2.531-6.394 4.666-7.462 4.666-1.202 0-3.467 3.332-5.467 7.602-3.198 7.332-3.332 8.53-2.531 22.39 0.5319 7.998 0.7971 15.86 0.7971 17.33 0 1.469-0.1306 5.337-0.2653 8.67-0.2653 9.191 5.201 20.66 14 29.73 4.264 4.27 7.597 8.67 7.597 9.732 0 3.332 6.665 15.33 10.4 18.8 2 1.865 5.733 4.801 8.263 6.4 4.535 2.931 5.201 2.931 14.4 1.333 8.529-1.473 13.6-3.868 16.53-7.998 0.5372-0.6665 1.204-0.9371 1.469-0.6665 0.4012 0.3959 5.201 12.13 10.8 25.99 5.463 14 13.06 31.73 16.8 39.32 6.801 13.86 8.003 14 1.734 0.1306-4.13-9.066-24.13-61.45-26.66-69.85-1.062-3.467-2.666-6.665-3.734-7.07-0.9318-0.3959-2.13-2.261-2.666-4.26-0.5305-2-1.598-3.999-2.395-4.535-2.134-1.333-4.936-11.6-4.936-18.53 0-7.593-3.197-17.06-6.529-19.33-3.734-2.666-8.931-12.39-9.863-18.26-0.4012-2.937-1.468-5.998-2.401-7.07-0.8011-1.062-4.134-9.863-7.466-19.6-5.597-16.93-7.998-22.66-26.39-62.25-14.4-30.93-19.33-42.12-19.33-44.12 0-1.066-0.6665-2.801-1.333-3.868-0.2919-0.4586-0.5052-0.6918-0.6412-0.7025zm489.2 74.02 7.998 8.93c4.4 4.932 12.26 13.33 17.46 18.53 5.332 5.332 11.07 12.26 12.93 15.46 4.531 7.467 10.26 29.99 10.26 39.59 0 6.398-0.6665 8.534-4.936 14.8-2.666 3.999-9.862 12.53-16.13 18.93-16.26 16.66-27.46 22.13-51.59 25.06-6.534 0.8025-16.4 2.666-21.73 3.999-11.6 3.198-48.12 7.998-60.38 7.998-9.331 0-9.596-0.1346-24.79-11.07-4.795-3.332-5.732-4.795-5.732-8.398 0-7.197-3.463-21.33-11.46-46.52-7.733-24.53-10.66-31.99-13.6-35.19-0.9331-0.9371-2.802-3.999-4.266-6.936-1.468-2.797-4.8-6.796-7.332-8.795-2.535-2-4.666-4.4-4.666-5.332 0-2.666 28.53-2.802 37.99-0.2706 18.66 5.067 24.39 5.868 44.66 5.868 23.33 0 28.93-1.068 47.99-8.93 15.33-6.269 25.59-12 37.99-20.93zm-421.2 21.33c0.4012 0 4.666 2.135 9.598 4.801 5.065 2.53 20.13 8.93 33.72 14.13 13.6 5.061 28.53 11.06 33.19 13.2 11.6 5.332 33.19 11.33 49.99 13.86 16 2.265 82.91 2.802 96.11 0.6665 7.598-1.197 27.86-8.399 30.53-10.93 0.8012-0.5359 2.265-1.068 3.467-1.068 2.797 0 5.332 5.998 11.46 27.19l4.535 15.86-2.666 2.931c-1.468 1.598-4.399 3.734-6.398 4.796-2 1.068-4.802 2.937-6.265 4.27-7.065 6.4-36.26 16.4-56.65 19.46-4.8 0.6665-14.66 2.265-21.99 3.332-18.4 2.931-37.99 2.666-52.39-0.4012-22.53-5.061-46.39-7.597-68.52-7.326l-11.6 0.1293-2.265-6.8c-2.931-8.664-8.93-22.53-18.53-42.79-4.134-8.799-8.664-18.8-10.13-22.26-1.333-3.468-5.468-12.27-9.196-19.6-3.603-7.462-6.398-13.46-5.998-13.46zm-49.45 9.066 2.671 3.863c1.598 2 5.196 6.265 8.127 9.467 2.933 3.197 9.331 7.862 14.4 10.4 8.399 4.264 8.93 4.795 8.93 9.195 0 5.998-3.332 7.733-14.66 7.863-7.466 0.1346-9.731-0.5319-16.26-4.266-5.201-3.066-7.998-5.597-8.534-7.862-1.198-4.801 0.2653-16.13 2.931-22.79zm291.4 3.734 4.13 3.999c2.27 2.134 5.337 6.133 6.801 9.06 2.937 5.737 2.399 6.8-4.395 7.998-4.666 0.8011-4.931 0.6665-5.733-3.332-0.4012-2.261-0.8025-7.197-0.8025-10.93zm-293.3 34.66c1.193 0.0627 3.166 0.9424 5.941 2.666 7.467 4.8 29.86 4.8 33.46 0 1.197-1.734 1.734-1.198 3.598 2.666 1.204 2.535 2.265 4.8 2.265 5.061 0 0.2706-3.197 0.9371-7.065 1.333-8.795 1.202-19.33-1.062-29.46-5.998-4.264-2.13-8.263-3.463-8.93-3.062-0.6665 0.3959-1.204-0.2706-1.204-1.333 0-0.9371 0.4586-1.38 1.39-1.333zm1.36 4.68c0.8171 0.048 1.786 0.6518 3.384 1.849 7.066 5.603 14.53 7.733 29.19 8.53l14.66 0.8011 2.266 4.666c1.333 2.531 2.399 7.197 2.399 10.27 0 5.468-0.1346 5.728-5.597 7.197-8.534 2.265-26.26 3.467-32.93 2.27-7.862-1.469-11.46-5.072-14.8-14.8-3.066-9.07-3.467-16.93-1.066-19.33 0.9998-0.9998 1.666-1.5 2.483-1.448zm525.2 0.2146c0.2919 0.0253 2.687 2.978 5.436 7.102 3.067 4.264 8.664 11.06 12.4 14.93 3.734 3.87 10.66 9.602 15.46 12.79 15.33 9.998 39.06 25.46 46.92 30.53 4.128 2.666 16.8 9.732 27.99 15.73 11.19 5.998 25.46 14 31.73 17.86 6.265 3.859 14.4 8.664 18 10.66 24.39 13.86 39.99 26.66 52.65 43.46 10.66 14.26 17.2 29.86 21.99 52.52 1.6 7.727 1.6 9.596 0 12.66-2 3.859-21.46 22.66-23.46 22.66-0.6665 0-1.198-1.473-1.198-3.202 0-5.864-6.665-26.79-12.53-38.79-5.196-10.8-27.59-44.26-41.06-61.32-8.534-10.8-21.19-23.46-31.86-31.59-20.53-15.86-43.86-31.99-62.52-43.32-29.46-17.73-34.66-21.86-46.79-37.06-5.998-7.597-13.2-21.46-13.2-25.59 0-0.0267 0.011-0.036 0.032-0.036zm-0.9264 14.4c0.031-9e-3 0.063 0 0.099 0.0373 0.2653 0.2653 3.598 4.66 7.462 9.862 13.06 17.33 17.06 20.66 48.92 39.19 15.06 8.799 26.93 17.06 57.32 39.72 20.53 15.33 18.53 13.6 30.13 27.06 14.26 16.53 41.59 55.99 48.39 70.12 10.93 22.39 16.13 51.99 14.53 81.45-0.5318 9.066-1.464 16.4-2.266 16.4-0.6665 0-5.461-3.999-10.79-9.066-13.73-12.8-27.46-23.59-50.25-39.06-11.46-7.863-27.73-20.39-43.46-33.46-21.73-17.86-49.59-50.79-61.98-73.05-3.067-5.467-10.26-17.2-15.86-25.99-14.66-22.66-20.39-34.79-26.79-56.79-3.067-10.53-5.868-20.53-6.134-22.13-0.5306-2 1.068-5.332 4.801-10.53 3.062-4.13 5.463-9.196 5.463-10.93 0-1.634 0.2026-2.754 0.4319-2.833zm-200.6 15.48c0.1346 0.02 0.2439 0.0627 0.3279 0.1613 0.4012 0.5305 1.869 5.067 3.071 9.998 2.933 12.12 4.266 24.93 2.531 24.93-1.469 0-14.53-21.73-15.33-25.33-0.3746-2.125 7.332-9.987 9.399-9.752zm-269.9 6.737c1.453 0.0787 2.02 1.714 2.853 5.547l0.9371 4.54-9.731-0.9371c-18.93-1.865-33.59-4.13-34.12-5.463-0.2653-0.8065 3.067-1.068 8.534-0.8065 16.4 1.072 23.59 0.6665 27.73-1.458 1.75-0.9531 2.937-1.469 3.807-1.422zm456.8 1.824c0.5305-0.136 2.13 4.795 3.728 10.79 8.799 34.39 13.2 44.92 27.86 67.18 4.4 6.665 11.33 18 15.6 25.33 17.33 29.99 40.66 57.19 69.32 80.78 22.66 18.66 23.06 19.06 45.99 35.46 31.73 22.78 41.46 30.93 37.59 30.93-0.7972 0-7.863-2-15.86-4.535-7.867-2.395-20.13-5.728-27.06-7.462-31.99-7.733-47.45-12.93-68.65-23.19-42.12-20.26-65.58-42.66-84.38-80.78-10.93-22.26-14.8-37.59-16.4-64.65-2.666-44.52-3.728-51.59-3.062-20 0.7971 33.72 1.864 42.92 7.462 61.32 5.201 17.2 17.73 42.39 28.13 56.39 6.264 8.529 29.06 28.66 42.26 37.44 43.06 28.54 65.18 46.79 70.65 58.25 2.531 5.061 2.933 7.466 2.136 14.13-1.068 10.93-8.664 32.93-12.13 35.19-1.468 0.9371-7.466 2.937-13.33 4.535-5.862 1.598-11.33 3.468-12.26 4.264-1.197 1.068-2 0.4012-3.067-2.265-0.6665-1.869-1.333-4.139-1.333-4.931 0-2.937-9.727-19.73-16.4-27.87-6.269-7.858-11.2-12.79-33.59-33.19-17.46-15.86-45.32-48.92-58.39-69.32-7.332-11.2-15.33-28.66-24.26-52.52-15.33-41.32-18.93-57.32-18.8-83.31l0.1293-13.86 8.399-1.729c9.596-2 25.73-9.07 29.06-12.67 1.197-1.458 3.067-2.526 4.134-2.526 0.9331 0 1.729-0.6665 1.729-1.473 0-1.594 13.2-15.6 14.8-15.73zm-488.1 6.529c2.65-0.0986 6.748 0.5985 12.54 2.135 4.4 1.066 12 2.134 16.8 2.265 8.399 0.2653 8.795 0.4012 9.196 3.734 0.4012 2.931-0.5319 3.732-5.998 6.128-6.53 2.937-26.26 6.4-28.53 4.936-2-1.202-7.867-13.46-7.867-16.53 0-1.666 1.202-2.562 3.854-2.666zm292.1 5.332c0.4012 0 3.067 4.4 5.998 9.596 5.332 9.602 5.468 9.732 11.87 10.66 4.666 0.6665 7.731 2.005 10.53 4.801l3.868 3.863-4.535 4.536-3.915 9.84s-1.068 3.468-3.067 7.332c-1.87 3.734-4.666 11.6-6.134 17.46-1.462 5.863-3.734 13.6-5.067 16.93-6.93 17.73-8.127 48.12-2.931 67.18 1.734 6.534 3.864 11.73 4.796 11.73 0.9371 0 4.27 5.864 7.466 12.93 3.198 7.065 8.931 16.8 12.66 21.59 9.998 12.93 26.39 37.06 30.39 45.06 6.53 13.06 16.53 37.59 20.13 48.92 3.603 12.26 7.332 41.32 7.332 58.12-0.1306 20.39-4.13 42.39-8.795 47.85-4.264 5.201-1.869 6.665 3.864 2.535 6.264-4.8 12.66-8.133 21.59-11.73 4.4-1.733 10.53-4.8 13.46-6.8 6.801-4.666 16.8-15.6 19.6-21.46 6.264-13.33 14.26-31.86 14.26-32.93 0-3.863 3.603-1.864 12.53 6.936 9.596 9.596 19.86 23.86 23.33 32.66 2.13 5.197 3.463 5.332 5.998 0.5319 3.598-7.066 5.067-17.86 3.463-27.59-0.7972-4.931-1.068-9.34-0.6665-9.731 2-2 24.79 4.264 51.99 14.38 5.998 2.139 10.8 2.942 19.33 2.806 16.53 0 17.46-0.5305 21.06-12.39 1.733-5.603 2.931-12.66 2.801-16-0.2653-3.202 0-6.534 0.5319-7.332 0.5358-0.8011 4.134-2.134 7.867-2.937 20.53-4.53 23.46-5.597 24.79-9.195 0.8012-2 2.931-8.129 4.931-13.6 2-5.467 4.27-11.6 4.936-13.6 2-5.332 14.93-16.93 27.06-24.26 5.868-3.603 11.6-7.602 12.8-8.935 2-2.13 2.401-2.13 9.331 0.2706 3.999 1.333 9.998 2.797 13.46 3.332 4.796 0.6665 7.332 2 11.19 5.998 2.802 2.931 5.468 5.196 5.998 5.196 2.537 0 4.266-15.73 4.4-37.99l0.136-23.86 5.998-4.535c3.332-2.531 8.528-6.932 11.73-9.998 3.947-4.108 8.591-6.489 9.56-10.85 1.394-6.28 0.088-12.07-4.495-26.74-6.133-20.53-9.064-26.93-17.2-37.99-12.93-17.33-27.06-29.59-50.25-43.32-8.394-4.931-17.73-10.53-20.66-12.4-2.931-1.865-16.66-9.462-30.66-16.93-26.66-14.26-41.72-23.19-54.12-31.99-23.19-16.66-37.46-28.26-44.92-36.52-8.534-9.467-17.6-21.99-17.6-24.26 0-1.333 3.734-0.9371 17.73 1.729 5.201 0.9371 12.8 1.066 23.33 0.2706 8.534-0.5372 21.86-0.9371 29.46-0.8025 16.4 0.4012 39.06-2.666 54.25-7.196 13.33-3.999 24.79-9.467 43.72-21.06 7.998-4.801 16-8.8 17.73-8.8 6.665 0 13.73 5.332 25.06 19.2 9.623 12.14 15.21 18.36 31.91 16.09 4.49-0.5159 7.254-2.406 8.618-5.696 2-5.061 4.13-22.66 4.13-33.72 0-8.535 0.2706-9.467 4.535-14.26 2.531-2.666 9.196-7.863 15.06-11.46 18-11.2 20.66-13.2 30.66-23.46 8.129-8.263 9.727-10.66 9.727-14.4 0-2.933-1.062-5.463-3.327-7.733-1.87-1.865-3.332-4.395-3.332-5.728 0-2.265-6.665-5.998-15.6-8.664-2.666-0.8025-2.666-1.202-1.062-4.4 4.264-8.133-3.598-10.93-24.39-8.529-7.862 0.9318-19.6 2.265-26.26 2.795-16.13 1.6-29.86 4.531-36.79 7.998-5.733 2.933-15.86 9.732-34.26 23.19-4.931 3.467-14 9.066-20.26 12.4-6.264 3.197-15.86 9.064-21.33 12.8-16.13 11.2-45.52 20.37-62.94 21.59-16.13 1.125-31.11 1.166-46.54 1.881-29.06 1.197-42.66 0.6665-55.05-2-3.062-0.6665-6.149-1.172-9.236-1.704l-4.182-2.973 4.8-4.27c11.2-10.13 25.19-26.66 30.79-36.39 9.331-16 18.13-32.26 22.53-41.59 3.332-7.197 4.848-10.05 8.05-10.05 5.728 0 23.75-4.681 29.62-7.613 3.203-1.6 7.842-5.561 12.77-12.09 4.905-9.388 6.712-18.88 6.654-22.46-0.2706-12.13 0.032-16.45-2.104-29.51-2.937-13.16-5.603-34.15-21.46-31.21-6.014 1.12-10.21 5.519-13.97 11.69l-3.035 4.993-0.1307-14.26c-0.2706-17.86-3.202-30.93-9.066-39.86-2.535-3.598-5.868-9.331-7.466-12.66-1.598-3.198-4.931-8.664-7.462-12.13-4.4-6.133-4.4-6.269-1.468-7.201 1.598-0.4012 4.134-2 5.732-3.468 2.802-2.53 2.933-2.53 11.33 2.537 17.46 10.13 24.53 16.93 29.06 27.33 3.728 8.664 5.864 20.66 4.931 27.33-0.3999 3.197-0.2653 5.723 0.2666 5.723 0.6665 0 3.598-4.791 6.8-10.79 7.863-14.66 8.664-23.06 3.332-33.99-2-4.4-3.999-8.399-4.264-9.066-1.068-2.265 7.862 4.801 15.2 12 9.598 9.331 11.6 14.26 9.732 23.19-0.7972 3.738-1.068 7.206-0.5359 7.737 1.604 1.734 4.671-4.264 4.671-9.195 0-2.666 0.9318-9.602 2.129-15.33 1.204-5.733 1.87-13.2 1.6-16.8-0.3959-3.467-0.2666-6.404 0.3999-6.404 1.6 0 7.733 7.873 10.66 13.46 2 4.13 2.401 6.665 1.734 12.66-0.8012 6.129-0.5306 7.462 0.9317 6.93 2.27-0.8011 4.27-16.4 4.4-33.32l0.1359-11.74 7.065 7.07c3.864 3.734 8.259 9.467 9.727 12.53 1.6 3.197 3.332 5.723 4.135 5.723 2.401 0-1.333-27.86-5.864-43.59-0.9371-3.071-1.202-5.998-0.8011-6.404 1.464-1.594 8.799 3.207 13.73 8.935 7.332 8.664 11.19 17.2 12.93 29.06 0.7971 5.873 1.864 10.66 2.395 10.66 1.333 0 2.671-12.12 2.671-24.66 0-9.592-2.27-23.71-4.802-30.66-1.598-4.666 10.93 8.539 14.66 15.21 1.865 3.458 3.598 8.529 3.864 11.19 0.5305 4.801 1.733 7.332 2.801 6.134 0.2653-0.2706 1.068-7.998 1.865-17.21 1.598-18.93 0.6665-26.93-4.135-37.06-1.864-3.864-2.931-6.936-2.395-6.936 3.598 0 15.6 11.33 18.93 17.73 2.531 4.801 6.4 5.733 4.4 1.068-0.4013-1.202-2.535-6.4-4.535-11.47-2-5.192-4.13-10.39-4.666-11.86-0.9318-2.139-0.6665-2.265 3.067-1.598 7.065 1.598 8.133-5.067 2.134-15.21-1.333-2.125-2.931-3.999-3.467-3.999-0.5318 0-0.6665-2.666-0.1306-5.998 0.6665-5.593 0.3959-6.26-3.868-10.39-4.531-4.135-9.727-7.202-17.73-10.53l-3.999-1.598 6.936-0.8065c14.93-1.594 14.4-9.998-0.9371-16-5.864-2.261-7.733-3.458-5.733-3.723 4.535-0.6665 6.4-3.734 4.666-7.607-3.196-6.79-21.99-13.72-33.19-12.12-2.802 0.5305-4.135 0.4012-3.067 0 12.13-5.067 18.66-8.935 18.66-11.07 0-7.471-22.66-4.931-41.72 4.666-3.598 1.86-6.796 3.193-7.061 2.797-1.068-1.062 5.728-9.602 9.863-12.53 2.399-1.598 7.196-3.999 10.66-5.196 9.331-3.468 13.6-6.801 13.6-10.66 0-4.4-4.264-5.873-16.4-5.733-16.26 0.1306-22.66 3.999-29.06 17.6-2.27 4.531-3.598 6.801-3.196 4.927 0.3959-1.86 1.062-10.52 1.598-19.33 0.6665-13.33 0.4012-16.26-1.202-17.73-3.463-2.797-6.265-0.2706-8.931 8.269l-2.399 8.123-0.9331-5.332c-1.864-10.26-6.398-21.99-8.799-23.33-3.728-2-5.463 2.139-6.129 14.4-0.4012 5.733-0.9317 11.73-1.333 13.33-0.6665 3.067-0.8011 2.927-4.535-1.738-5.332-6.79-21.86-20.66-29.06-24.53-4.874-2.499-11.86-4.764-14.14-4.598l0.01 0.01066c-0.1573 0.009331-0.2866 0.03066-0.3959 0.06665-2.797 1.068-2 5.332 2.931 15.06 2.535 5.061 4.666 9.732 4.666 10.26 0 0.6665-3.999-3.197-9.06-8.529-14.13-15.06-18.66-14.26-13.2 2.395 1.733 5.067 2.937 9.2 2.801 9.2-0.2653 0-4.666-3.202-9.998-7.201-5.196-3.999-11.46-8.263-13.86-9.596-5.468-2.933-9.196-1.734-7.998 2.399 1.734 5.864 9.732 21.73 14.4 28.66l4.666 7.066-4.802-2.27c-9.331-3.999-25.86-8.399-32.26-8.399-8.134 0-14.66 2.27-14.66 5.067 0 1.333 3.332 6.264 7.332 11.33 3.999 4.931 7.332 9.191 7.332 9.596 0 0.2613-4.666 0.2706-10.4-0.2653-8.664-0.6665-11.07-0.4012-14 1.598-2 1.204-3.598 3.067-3.598 3.999 0 0.8025 3.062 5.603 6.794 10.53 3.734 4.931 6.536 9.195 6.265 9.46-0.2666 0.2706-4.266-0.6665-8.931-2-4.53-1.462-8.93-2.666-9.596-2.666-2.931 0-0.5306 3.603 8.53 13.2 13.2 13.72 25.06 27.19 24.53 27.71-0.2652 0.2759-3.999-0.7918-8.269-2.261-7.332-2.53-16.66-3.598-16.66-1.864 0 1.062 11.6 12.12 25.33 23.86 10.13 8.8 17.33 16.26 20.53 21.86 0.9318 1.333 0.5319 1.604-1.468 0.9371-6.53-2-15.06 5.998-15.06 14.12 0 2.139-0.4012 3.738-0.7971 3.738-0.5359 0-5.467-2.134-11.07-4.931-11.33-5.332-20.26-6.805-40.92-6.269-10.66 0.2706-13.33 0.9371-20.39 4.4-4.399 2.265-8.133 4.8-8.133 5.467 0 1.865 0.6665 1.734 7.733-1.869 14.93-7.597 42.26-6.93 59.98 1.333 11.33 5.332 29.99 22.53 31.59 29.06 0.3959 2.265 1.864 4.795 3.062 5.728 2.666 2 11.47 2.27 14.93 0.4052 2-1.072 2.53-0.6665 3.197 3.198 0.5318 2.535 3.864 8.394 7.462 13.06s6.665 9.736 6.665 11.33c0 3.738 1.338 7.07 2.801 7.07 0.6665 0 1.198-1.333 1.198-3.071 0-1.729 2.801 2.27 7.332 10.66 8.799 16.4 10.93 27.59 9.331 48.39-0.5319 6.926-1.068 16-1.333 20-0.1306 4.26-1.333 9.592-2.931 12.66-1.6 2.927-3.463 7.863-4.266 11.07-1.598 5.733-4.134 7.597-4.134 2.931 0-1.468-0.5319-3.738-1.198-5.071-0.6665-1.193-3.196-8.525-5.597-16.26-4.8-14.8-15.6-35.32-18.66-35.32-1.068 0-2 1.333-2.27 2.927-0.6665 4.139-1.729 3.874-5.463-1.724-4.264-6.134-15.33-16.13-21.73-19.33-2.666-1.333-6.801-2.537-9.202-2.537-2.53 0-5.728-1.333-8.263-3.462-8.93-7.598-29.73-14-32.13-9.998-0.5359 0.9318-2.795 0-6.398-2.666-9.462-6.801-36.66-13.6-39.99-9.998-1.198 1.333-3.599 0.7958-10.8-2.135-4.931-2.13-11.6-3.999-14.66-4.139-5.332-0.2613-5.597-0.1253-5.597 3.472 0.1347 3.598-0.1306 3.859-4.666 3.067-14.13-2.135-35.06-3.734-42.26-3.067-7.598 0.5265-17.46 4.4-40.26 15.33-5.332 2.666-11.6 8.664-20.79 20.26-6.4 7.998-26.35 34.14-26.35 32.81 4.026-18.96 15.44-31.47 27.7-41.7 1.562-1.806-0.9278-1.844-1.865-1.396-22.14 14.34-31.23 39.16-34.54 59.07-2 11.87-2.931 14.66-4.931 15.06-2.135 0.3959-2.265-0.2706-1.464-7.998 0.5319-4.666 1.464-16.66 2.13-26.53 1.202-19.73 1.869-21.86 12.66-41.06 6.133-10.79 7.066-13.6 4.666-13.6-1.598 0-9.992 12.92-14.26 21.99l-3.067 6.665 0.8011-9.331c1.062-13.2 2.802-20.39 6.134-25.19 5.998-8.534 13.6-16.8 15.46-16.8 1.066 0 3.863-2 6.398-4.535 3.062-3.062 5.332-4.264 7.197-3.868 2.801 0.8065 10.66-5.998 10.66-9.191 0-1.068 1.734-2.535 3.868-3.332 4.4-1.598 8.129-6.665 9.331-12.66 0.9318-4.805 8.93-10.8 24.79-18.8 22.93-11.59 39.46-13.6 55.32-6.926 4.8 2 10.66 5.067 13.06 6.926 2.399 1.869 4.8 2.937 5.332 2.535 0.3999-0.5359 0.7958-4.13 0.7958-7.998 0.136-5.332-0.5305-7.998-2.53-10.13-4.4-5.071-16-11.74-25.59-14.93l-9.066-3.067 9.862-0.3999c7.602-0.2613 10.26 0.1346 12.26 1.869 2.666 2.401 6.534 1.734 6.534-1.068 0-1.864-3.734-4.53-17.2-12-10.93-5.998-9.331-7.066 9.064-5.998 15.46 0.9318 17.46 1.598 16.53 5.067-0.5372 1.864 0 2.931 2 3.463 2.931 0.6665 4.264 3.999 4.264 10.66 0 7.332 2.265 4.936 3.067-3.332 1.197-11.46 4.795-21.06 9.862-26.26 6.4-6.534 7.733-5.737 2.931 1.594-6.529 10.53-11.19 29.33-6.398 26.26 0.6665-0.4012 1.202 0.5359 1.202 2 0 1.598 0.4013 2.801 0.9318 2.801 0.4012 0 4.135-3.332 8.134-7.461 7.461-7.607 17.2-13.2 25.73-14.66 3.732-0.6665 3.202-5e-3 -3.864 3.598-10.4 5.332-21.59 15.45-21.59 19.6 0 3.999 1.864 3.734 7.862-1.197 6.4-5.067 19.46-9.202 29.19-9.202 8.93 0 8.529 0.6665-1.87 3.332-17.73 4.531-35.19 17.2-35.19 25.46 0 3.863 0.9371 3.999 4.535 0.6612 3.598-3.202 10.66-5.463 16.66-5.463 3.463 0 4.264 0.4012 2.797 1.204-1.198 0.9318 0 1.197 3.863 0.7958 7.467-0.5305 9.868-2.801 4.936-4.666-4.399-1.598-13.06-1.738-19.86-0.1346l-5.196 1.202 2.931-3.067c4.4-4.666 14.4-9.596 24.66-12.13 5.201-1.198 10.4-3.198 11.73-4.531 2.27-2.134 2.265-2.405 0.2653-4.535-3.198-3.067-12.93-2.666-26.13 1.068-10.13 2.931-10.8 2.931-7.867 0.6665 3.467-2.666 15.86-9.066 24.39-12.4 14.4-5.868-4.932-7.061-20.26-1.333-4.666 1.734-9.596 4.004-10.66 4.796-1.197 0.9371-0.2652-0.3959 1.865-2.797 2.27-2.395 7.466-6.796 11.73-9.727 4.264-2.806 7.332-5.733 6.93-6.4-0.7971-1.333-11.6 1.333-18 4.666-2.531 1.198-7.332 4.801-10.53 7.863l-5.868 5.467 4.535-8.529c2.401-4.666 5.998-9.732 8.134-11.21 7.462-5.457 0.3959-5.728-8.399-0.1306-6.4 3.999-11.47 10.27-13.33 16.53-1.468 4.927-1.598 5.067-3.734 2.531-1.462-1.604-5.732-3.198-12.66-4.531-8.93-1.598-13.06-1.738-25.73-0.4052-14.93 1.604-17.86 2.666-12 4.404 5.065 1.594 23.59 10.4 23.59 11.33 0 0.5319-4.66 1.333-10.26 1.734-13.46 0.7971-39.06 10.93-39.06 15.2 0 2.806 2.666 3.332 5.733 1.202 10.93-7.998 13.73-9.2 22.26-9.867 7.066-0.3906 10.13 0 16.93 2.806 15.2 6.129 26.13 16 23.19 20.79-0.8011 1.333-2.535 0.9318-7.602-1.604-7.998-3.999-20.13-7.593-25.73-7.593-14.4 0-38.12 8.926-55.45 20.79-4.802 3.202-8.93 5.868-9.196 5.868-0.2652 0-0.8011-1.202-1.202-2.671-0.9318-3.598-8.93-3.732-12-0.2653-3.067 3.332-2.931 5.197 0.136 2.531 1.333-1.198 3.863-2.395 5.732-2.531 4.666-0.5305 4.932 5.197 0.5319 12.93-3.864 6.394-8.664 8.259-8.664 3.327 0-3.732-1.469-3.332-5.998 1.333-2 2.135-4.27 3.599-4.801 3.203-0.5305-0.2706-1.734 0.5305-2.401 1.729-1.333 2.27-1.598 2.27-3.327 0-2.666-3.463-5.603-2.797-14 3.332-4.399 3.332-8.403 2.937-12.67-0.9331-7.332-6.794-2.661-18 7.603-18 2.666 0 4.931-0.3999 4.931-1.066 0-0.5319-1.598-3.332-3.332-6.265-5.864-9.466-3.468-16.4 6.529-19.06 4.936-1.464 9.602-0.7971 12.53 1.468 0.9318 0.7971 1.598 4.4 1.598 9.066 0 6.796-0.2653 7.862-2.531 7.862-3.066 0-10.8 8.53-10.8 11.73 0 1.333 0.9318 0.3959 2.265-2.134 2.802-5.599 6.134-7.467 12.8-6.53 4.666 0.6665 5.065 0.5319 3.332-1.202-1.6-1.598-1.734-3.062-0.4012-7.863 1.864-7.731 3.332-9.064 10.66-9.466l5.998-0.4012v6.665c0 7.867 2 8.534 3.999 1.202 1.598-5.998 0-10.66-3.463-10.66-1.734 0-2.005-0.8011-1.202-3.598 1.197-5.067 5.067-10.27 15.86-21.59 10.8-11.06 19.46-16.66 34.52-21.59 13.33-4.531 29.06-13.2 28.53-15.86-0.2653-1.468-2.265-2-8.664-2-4.53 0-8.263-0.1346-8.263-0.2653 0-0.1346 1.197-2.265 2.666-4.8 5.461-9.196 3.062-18.4-5.203-20.26-3.196-0.6665-11.73 0.5372-19.06 2.802-4.266 1.197-2.661-2.535 3.732-8.93 9.202-9.331 5.869-12-7.196-5.869-3.999 1.87-7.468 3.332-7.733 3.332-0.2653 0 1.068-3.332 3.067-7.332 2.802-5.732 3.332-7.998 2.27-9.731-1.734-2.797-9.867-3.599-15.6-1.6-3.598 1.204-4.53 1.068-5.862-0.9318-0.9331-1.197-1.734-3.863-1.734-5.863 0-5.067-4.796-10.53-9.196-10.53-3.467 0-6.93 2.266-17.73 10.93-2 1.604-3.999 2.535-4.531 2-0.4012-0.3959 0.8025-5.599 2.802-11.46 4.53-13.86 4.264-16.66-2.27-17.2-5.599-0.5319-10.79 1.869-25.86 11.73-14.26 9.331-15.6 8.931-7.867-2.666 5.733-8.398 5.998-12.93 1.202-14.66-8.799-3.332-20 4.4-31.73 21.73-7.597 11.47-11.06 14.4-13.06 11.33-2-3.197 1.197-16.13 6.529-26.79 1.734-3.599 2.937-6.932 2.535-7.332-2.265-2.266-15.06 8.935-20 17.46-1.733 3.067-4.264 10.53-5.467 16.66-2.531 11.47-4.666 16-6.93 14.53-2.266-1.464-2.933-8.795-1.865-20 0.9318-11.6 0.4012-13.6-3.603-12.39-7.332 2.395-15.86 19.86-17.2 35.46-0.6665 6.4-1.734 11.33-2.666 11.6-2.666 0.9371-4.801-8.664-3.864-17.73 0.5319-4.666 0.5319-8.535 0.1306-8.535-0.4012 0-3.468 4.266-6.801 9.331-8.794 13.73-11.6 22.26-11.73 36.92l-0.1346 12.4-3.067-5.065c-2.53-4.13-2.931-6.265-2.53-12.53 0.7958-9.2-0.6665-10.8-4.4-4.8-5.468 8.93-8.53 33.19-5.332 41.72 1.202 3.198 1.068 3.332-1.333 2-1.464-0.8011-3.734-2.931-4.931-4.795-2.135-3.332-2.266-3.332-3.999-1.068-3.599 4.931-1.068 16.26 5.732 25.46 2.531 3.603 1.464 3.732-6.264 1.066-4.535-1.598-5.868-1.733-6.8-0.3999-1.6 2.535 0.1346 10.4 3.197 14.66l2.535 3.732h-5.467c-8.399 0-9.066 6.4-1.333 15.2 4.666 5.196 4.936 6.128 1.734 6.128-1.333 0-4.4 1.204-6.665 2.671-8.795 5.332-3.999 17.2 6.133 15.73 3.463-0.5305 3.864-0.2653 2.666 1.734-0.6665 1.333-1.869 2.797-2.535 3.202-6.394 3.864-17.46 44.66-12.26 44.66 0.6665 0 2.931-2.795 5.201-6.404 5.332-8.123 12.39-16.93 12.39-15.45 0 0.6665-1.464 5.863-3.332 11.6-3.728 11.6-4.264 20.53-1.464 24.26 1.865 2.537 2 2.401 4.4-1.729 4.395-7.998 12.79-18.66 11.86-14.93-2.801 10.53-2.399 35.99 0.6665 35.99 0.6665 0 1.865-1.598 2.666-3.728 3.463-8.664 10.93-22.93 13.06-24.79 2-1.865 2.13-0.7971 1.729 13.06-0.3959 11.33 0 16.13 1.469 19.86 3.332 7.733 5.461 6.269 10.26-7.061 2.401-6.534 5.196-12.66 6.4-13.6 1.864-1.464 2-1.333 0.9318 0.9318-1.865 4.536-2.395 18.8-0.7971 23.59 1.598 4.796 8.795 12.79 10.26 11.32 0.5319-0.3959 1.333-5.989 2-12.39 2-19.06 6.394-31.33 5.463-15.06-0.4012 6.529 0.136 11.07 1.598 15.06 2.135 5.461 6.801 11.19 7.998 9.998 0.4012-0.2666 1.333-5.599 2.135-11.87 2-14.66 3.734-20.66 7.201-23.86l2.797-2.666v8.263c0 7.998 5.196 27.59 7.332 27.59 0.5305 0 1.333-5.467 1.734-12 0.5305-9.07 1.468-13.19 3.598-16.66 1.598-2.53 3.067-4.666 3.332-4.666 0.1346 0-0.1306 2.261-0.7971 4.927-1.604 6.805-1.468 12.4 0.1306 12.4 0.8011 0 1.333-2 1.333-4.404 0-5.457 2.931-16.26 5.998-22.26 5.332-10.4 17.2-26.79 21.19-29.19 5.728-3.468 26.13-5.998 28.66-3.468 1.598 1.469 0.7971 2.927-4.8 9.592-11.07 12.8-13.06 19.06-14.53 44.66-0.4012 8.269-1.333 18.26-2.129 22.26l-1.333 7.061-5.604-6.124c-5.06-5.468-6.393-6.134-11.33-6.134-4.128 0-6.393 0.8025-8.93 3.332-7.196 7.197-12.53 26.39-12.93 46.66-0.2653 9.863 0.2973 13.05 2.666 18.26 3.759 8.258 17.73 21.99 27.73 27.33 13.73 7.332 17.33 12.53 29.99 44.26 6.534 16.26 21.59 35.46 36.92 46.92 8.399 6.269 30.79 17.73 48.79 24.93l12.93 5.192-10.26 0.9371c-14.8 1.333-15.06 1.598-15.06 13.86-0.2453 6.092-0.3746 14.16 1.432 17.09-0.2133 0.9478-2.973 2.619-7.634 4.52-7.332 2.937-9.643 2.693-49.85 4.671-16.77 0.8225-35.9-0.7345-51.12-2.026-9.43-0.8011-48.39-9.998-54.52-14-2.797-1.733-31.59-12.66-46.26-17.33-3.999-1.333-13.33-5.201-20.66-8.664l-13.33-6.264-6.264-13.19c-22.53-48.12-27.33-59.19-29.86-69.05-1.202-4.535-3.603-10.53-5.332-13.46l-3.202-5.332 0.8011 7.332c0.7971 8.399 6.265 24.39 14.8 42.66 11.6 24.79 12.4 26.53 12.4 27.33 0 0.4012 6.529 13.73 14.4 29.73 7.862 15.86 16.66 34.26 19.46 40.92 2.802 6.536 7.733 17.2 10.93 23.59 3.203 6.398 10.53 23.59 16.4 38.26 5.869 14.66 12 29.19 13.6 32.39 5.869 11.6 21.19 48.25 21.19 50.92 0 4.395-11.2 10.79-18.8 10.79-3.462 0-5.998 0.4012-5.597 1.068 1.197 2 12 0.8025 18.66-2.265 10.53-4.936 10.53-5.868-0.4012-35.46-0.9318-2.53-4.53-10.93-7.862-18.66-7.597-16.93-15.33-35.59-15.33-36.79 0-0.5319 5.196-0.5319 11.73-0.1306 27.73 1.865 43.59 3.734 62.92 7.733 18.66 3.728 22.13 3.994 35.72 3.327 36.52-2.13 83.58-13.6 97.98-23.73 2.134-1.468 3.868-2.535 4.134-2.27 0.1306 0.2653 1.068 2.265 1.865 4.4zm-251.5 13.54c0.4892 0.0467 0.4892 0.5105 0.0787 1.39-2.266 5.597-20.93 11.6-25.59 8.263-2.53-1.864-2.931-1.598 7.202-4.399 3.062-0.7971 6.665-1.464 7.998-1.464 1.462 0 3.994-0.9371 5.863-1.869 2.401-1.349 3.827-1.98 4.458-1.922zm-19.12 1.39h4.666l-4.666 1.734c-5.461 2.13-12.79 2.53-14 0.7971-0.6665-1.333 4.801-2.266 14-2.531zm406.6 7.733v17.6c0.136 27.19 2.666 38.26 18.93 82.38 10.4 28.53 19.6 46.12 33.99 66.25 15.6 21.46 32.13 39.99 57.32 63.98 27.33 25.99 36.66 39.32 41.19 58.65 2.401 10.4 1.598 18.26-2.401 26.39-3.463 6.796-2.666 6.129-9.195 7.332-7.998 1.464-20.39-0.5359-31.99-5.201-12.94-5.197-28.53-9.331-38.79-10.53l-8.269-0.9318-4.13-12.13c-8.133-23.46-14.93-33.32-41.86-60.52-17.06-17.33-25.73-27.19-33.32-38.52-18-26.53-32.93-71.58-37.46-113.2-1.598-14.4-0.6665-28.13 3.463-50.12 0.9371-5.728 1.869-13.06 1.869-16.26 0-6.665 2.13-8.529 10.4-8.529 2.797 0 7.196-0.6665 9.596-1.469 6.796-2.399 18.8-4.795 25.06-5.065zm-55.72 8.129c0.5372 0 1.204 0.9318 1.605 2.134 1.333 4.796 0.6665 14.66-1.605 25.06-3.598 16.93-3.196 53.19 0.8025 71.32 9.998 45.06 22.26 75.05 39.99 98.64 4.135 5.463 15.2 17.73 24.39 27.33 22.79 23.46 28.13 29.73 33.72 39.59 9.862 17.86 17.73 45.19 16.4 57.85-1.333 12.4-2.265 12.53-9.46 1.197-8.535-13.46-29.46-33.99-57.59-56.65-18.26-14.66-45.32-49.45-57.85-74.51-11.73-23.46-19.33-53.45-23.99-94.91-4.4-39.06-4.4-39.32 3.999-68.65l7.332-25.59 10.66-1.202c5.869-0.8025 11.07-1.469 11.6-1.598zm-44.5 2.15c0.3279 0.0307 0.6292 0.156 0.9051 0.3852 0.8025 0.6665 4.666 0.9318 8.399 0.3959 6.529-0.6665 6.93-0.6665 6.93 2.265 0 4.801-3.734 23.46-7.597 37.32-3.868 14.53-3.734 21.99 0.9318 62.92 5.998 50.92 16.4 81.45 39.32 115.8 15.2 22.66 32.53 40.79 63.18 65.98l3.467 2.931-3.196 9.732c-1.734 5.196-5.998 15.72-9.602 23.33-5.332 11.19-7.998 14.93-14.93 21.33-5.461 5.196-11.19 8.93-16.26 11.06-4.4 1.734-10.26 4.656-13.06 6.394-2.931 1.734-5.332 3.067-5.597 2.802-0.2653-0.2653 0.4012-3.999 1.469-8.399 1.197-4.53 2.265-17.86 2.795-30.66 0.8024-26.39-1.598-48.65-7.065-65.98-3.864-12.53-15.73-40.26-21.99-51.59-5.463-9.863-21.06-32.13-29.59-41.99-9.596-11.46-22.66-37.86-26.26-53.59-2.801-11.86-2.931-13.73-1.333-28.13 0.8024-8.394 2.797-19.33 4.264-24.39 1.469-4.936 3.599-12.8 4.666-17.6 4.75-20.25 15.24-40.84 20.16-40.38zm263.4 181.8c0.2813 0.0267 0.7651 0.172 1.417 0.3959 1.468 0.6665 9.466 3.468 17.73 6.264 8.399 2.933 19.46 6.134 24.66 7.202 5.332 1.066 14.66 3.332 20.79 4.931l11.19 3.197-13.6 9.066c-7.461 5.067-16.26 12.13-19.46 15.73l-5.998 6.665v-6.801c0-3.863-0.8025-8.93-1.87-11.47-2.53-5.998-12.4-16.4-24.13-25.73-9.426-7.482-11.98-9.582-10.75-9.467z" stroke-width="1.333"/>
    <path d="m733.2 429.5c0 2 4.931 13.2 19.33 44.12 18.4 39.59 20.79 45.32 26.39 62.25 3.332 9.732 6.665 18.53 7.461 19.6 0.9384 1.068 2 4.135 2.401 7.066 0.9318 5.859 6.134 15.6 9.863 18.26 3.332 2.261 6.534 11.73 6.534 19.33 0 6.926 2.797 17.2 4.931 18.53 0.8025 0.5305 1.865 2.53 2.401 4.53 0.5305 2 1.734 3.868 2.666 4.264 1.068 0.4012 2.666 3.603 3.734 7.066 2.53 8.399 22.53 60.78 26.66 69.85 3.057 6.76 4.332 10.19 4.056 10.32 0.1506 1.702 2.494 5.311 2.494 5.311 0.9478-0.2813 2.749-0.4372 4.909-0.4372 7.603 0 18.8-6.4 18.8-10.8 0-2.666-15.33-39.32-21.19-50.92-1.605-3.197-7.733-17.73-13.6-32.39-5.863-14.66-13.19-31.86-16.4-38.26-3.203-6.4-8.134-17.06-10.94-23.59-2.795-6.665-11.6-25.06-19.46-40.92-7.869-16-14.4-29.33-14.4-29.73 0-0.8025-0.7971-2.531-12.4-27.33-8.529-18.26-14-34.26-14.8-42.66-14.29-26.49-23.43-9.987-19.46 6.534z" fill="#79cef6" stroke-width="1.333"/>
    <path d="m375.4 281.8c-7.639 0.136-15.26 4.785-18.12 12.01-1.937 4.671-1.724 9.904-0.7185 14.77 6.17 39.2 12.1 78.42 18.98 117.5 8.8 46.89 18.77 93.58 28.9 140.2 3.556 16.12 7.389 32.34 12.14 48.21 0.4226 1.812 2.551 2.275 4.092 2.718 5.219 1.193 10.64 0.6972 15.9 0.0733 5.264-0.6932 10.48-1.942 15.45-3.526 2.682-0.8331 5.744-2.019 8.258-3.166 1.276-0.5879 2.531-1.244 3.838-2 3.468-2.01 6.249-4.936 9.254-7.539 12.2-11.15 23.35-23.87 30.54-38.88 2.129-4.51 4.114-9.143 5.067-14.05 1.009-4.322 2.155-8.67 2.347-13.19 0.5839-10.18-1.51-20.62-6.676-29.49-5.461-9.482-14.17-16.89-24.06-21.43-2.395-0.6505-4.864-1.077-7.285-1.645-3.676-0.8438-7.525-1.26-11.22-0.7505-9.196 1.052-17.46 5.963-24.29 12.01-2.229 2-4.447 4.01-6.67 6.014-5.988-28.98-12.03-57.95-17.29-87.06-6.534-37.83-12.2-75.81-18.32-113.7-1.229-6.248-4.936-12.31-10.81-15.13-2.885-1.433-6.129-2.083-9.347-2zm-274.6 7.973c-8.285 0.2813-15.92 4.562-21.87 10.1-7.437 6.837-13.14 15.34-17.84 24.22-10.88 26.59-18.41 54.48-24.57 82.46-4.598 20.93-8.55 42.06-12.62 63.12-4.238 23.23-8.233 46.52-12.39 69.77-3.567 20.1-7.264 40.19-11.09 60.25-1.046 6.258 0.2866 13.2 4.753 17.9 6.634 7.165 18.72 8.561 26.62 2.697 4.644-3.41 7.373-8.919 8.211-14.54 4.859-24.77 9.248-49.59 13.68-74.43 2.286-12.94 4.572-25.87 6.853-38.82 27.62-4.124 55.32-7.753 83.13-10.51 6.264 37.43 12.3 74.98 19.22 112.3 1.161 5.821 2.051 11.7 3.467 17.48 1.657 5.827 5.703 11.17 11.43 13.45 8.613 3.567 19.6 0.4532 24.69-7.455 3.286-5.072 3.707-11.5 2.374-17.26-8.788-45.56-15.93-91.43-23.71-137.2-3.186-18.42-6.628-36.78-10.8-55.03-1.849-7.993-3.864-16.17-6.045-24.1-5.525-20.13-12.24-39.98-20.81-59.04-2.817-4.556-5.373-9.274-8.206-13.82-0.8691-1.37-1.932-3.005-2.963-4.416-3.456-5.004-7.977-9.295-13.33-12.2-5.535-3.026-11.79-5.108-18.16-4.884zm134.1 4.176c-7.228 0.2346-14.37 4.567-17.26 11.31-2.041 4.53-2.13 9.634-1.489 14.49 4.212 44.55 10.33 88.94 15.94 133.3 5.567 42.83 12.18 85.51 19.24 128.1 1.957 9.858 3.145 19.85 5.237 29.67-0.1093 0.6772 0.4745 1.302 0.4639 2.021 0.3279 1.333 0.6252 2.671 1.005 3.999 8.263 3.077 17.36 4.019 26.07 2.557 4.438-0.7558 8.603-2.573 12.5-4.785 7.754-4.203 14.96-9.378 21.75-14.97 11.38-9.44 21.11-21.25 26.59-35.1 1.297-3.218 2.062-6.618 3.114-9.919 2.057-6.754 2.686-13.89 2.369-20.91-0.088-1.656-0.2706-3.655-0.5359-5.513-1.448-10.65-6.134-20.94-13.7-28.63-2.865-2.833-5.911-5.603-9.53-7.441-2.734-1.234-5.499-2.421-8.305-3.463-9.91-2.457-20.26-4.16-30.46-2.629-3.546 0.5145-6.993 1.541-10.42 2.566-3.146-21.86-6.061-43.75-8.826-65.65-4.744-36.82-9.488-73.63-12.96-110.6-0.7078-6.405-4.108-12.79-9.894-15.94-3.291-1.865-7.124-2.687-10.89-2.526zm-131.8 41.72c1.646 3.057 3.562 5.967 5.337 8.95 1.338 2.433 2.135 5.113 3.218 7.661 11.39 29.1 18.85 59.56 24.9 90.16-22.29 2.187-44.4 5.093-66.54 8.17-0.8171 0.0986-2.019 0.5572-1.406-0.6972 6.65-34.08 13.25-68.42 25.66-101 2.141-5.655 4.526-11.21 6.812-16.8 0.6772 1.182 1.353 2.365 2.025 3.546zm462.6 146.8c-7.586 0.5052-14.97 5.463-17.48 12.78-1.792 4.931-1.27 10.35 0.084 15.32 4.28 18.72 9.039 37.32 14.78 55.67 1.761 5.567 3.556 11.2 5.577 16.76 2.739 6.842 6.154 13.66 11.19 19.22 1.245 1.49 2.813 2.666 4.13 4.062 0.8385 1.161 0.2599 2.603-0.3586 3.712-12.42 29.74-25.49 59.21-39.02 88.47-2.718 4.65-4.322 9.575-6.534 14.48-1.177 2.754-2.734 5.316-4.323 7.847-2.946 5.436-3.967 12.22-1.462 18.02 3.764 9.071 14.73 14.53 24.19 11.66 5.655-1.682 10.14-6.108 12.83-11.25 3.838-7.014 7.118-14.3 10.53-21.5 9.236-19.82 18.17-39.79 26.93-59.84 13.01-29.85 25.23-60.02 37.99-89.98 4.004-8.061 7.722-16.32 11.11-24.57 2.406-5.859 4.624-11.81 6.722-17.78 1.177-5.088-1.281-10.31-4.769-13.93-5.124-5.457-13.04-8.686-20.5-7.025-6.056 1.385-10.78 6.108-13.64 11.44-2.405 4.51-4.196 9.3-6.321 13.94-3.343 7.613-6.488 15.32-9.878 22.91l-4.139 8.186c-4.067-13.05-7.853-26.19-11.16-39.46-1.896-7.446-3.63-14.93-5.389-22.42-1.166-5.087-3.828-9.966-8.077-13.11-3.692-2.77-8.441-3.942-13.02-3.618zm-101.7 37.91c3.436 0.0773 6.034 2.926 7.285 5.899 3.608 6.941 2.921 15.6-0.9331 22.29-3.338 6.066-8.903 11.06-15.58 13.07-1.442 0.1826-2.531-0.9944-3.067-2.207-2.858-4.02-3.327-9.222-2.931-14.01 0.6865-7.124 2.858-14.25 7.04-20.11 1.926-2.625 4.744-5.035 8.197-4.925zm-165.6 4.082c5.041-0.0733 10.5 1.51 13.66 5.671 3.328 4.374 3.411 10.37 1.881 15.45-2.406 7.946-7.879 15.12-15.34 18.9-1.89 0.8851-3.848 1.604-5.775 2.41-2.479-8.856-5.649-17.74-5.572-27.06 0.0986-5.149 1.948-10.47 5.925-13.89 0.8811-1.016 2.209-1.532 3.542-1.396 0.5625-0.0426 1.12-0.0426 1.681-0.0573z" stroke-width="1.333"/>
    <path d="m1051 439.5c0 1.9-2.431 2.478-2.431 2.478-4.27 8.555-5.993 12.41-13.19 25.19-1.068 1.889-2.27 4.279-0.9838 4.983 2.541 1.38 3.113-0.9838 4.582-3.515 1.333-2.53 2.797-4.666 3.197-4.666 0.4012 0 3.198 1.734 6.134 3.999 63.5 24.66 103.9 13.44 132.5 7.514 3.15-1.953 6.113-3.39 6.509-3.348 0.3999 0.0413 1.634 2.311 2.702 4.968 1.202 2.666 1.526 5.081 4.196 3.967 1.354-0.5679 0.4012-3.067-0.4679-5.061-5.858-13.45-7.181-17.46-10.55-26.41 0 0-0.3906-3.103-3.073-2.723-1.844 0.2599-1.53 1.926-0.9998 4.395 1.073 4.832 2.926 8.826 4.234 13.53 0.9785 3.504-2.327 4.921-5.135 6.192-41.19 10.63-83.49 11.85-126.9-7.228-2.662-1.557-5.807-3.302-4.474-6.686 1.781-4.546 4.035-8.326 5.592-13.03 0.7811-2.401 1.261-4.02-0.5466-4.468-0.3279-0.0827-0.9011-0.3586-0.9011-0.0827z" stroke-width="1.333"/>
    <path d="m1123 366c-9.816-0.2186-20.79 9.378-22.46 19.06-1.254 7.312 4.056 17.2 11.19 19.24 12.14 3.494 33.7-3.374 33.54-17.65-0.1093-10.13-12.15-20.42-22.26-20.65z" fill="#f57ba4" stroke="#000" stroke-width="3.999"/>
</svg>
